<?xml version="1.0" encoding="UTF-8"?>
<svg width="547px" height="230px" viewBox="0 0 547 230" version="1.1" xmlns="http://www.w3.org/2000/svg" xmlns:xlink="http://www.w3.org/1999/xlink">
    <title>700</title>
    <g id="Page-1" stroke="none" stroke-width="1" fill="none" fill-rule="evenodd" opacity="0.46635001">
        <g id="Sahl" transform="translate(100.000000, -437.000000)" fill="#aaaaaa">
            <g id="700" style="mix-blend-mode: saturation;" transform="translate(-100.000000, 437.000000)">
                <polygon id="Fill-3" points="0 230 547 230 547 229 0 229"></polygon>
                <polyline id="Fill-4" points="26.5218054 143.558989 58.4781946 143.558989 58.4781946 228 60 228 60 142 25 142 25 228 26.5218054 228 26.5218054 143.558989"></polyline>
                <polygon id="Fill-5" points="53 219 54 219 54 214 53 214"></polygon>
                <polygon id="Fill-6" points="49 219 50 219 50 214 49 214"></polygon>
                <polygon id="Fill-7" points="44 219 45 219 45 214 44 214"></polygon>
                <polygon id="Fill-8" points="35 219 36 219 36 214 35 214"></polygon>
                <polygon id="Fill-9" points="30 219 31 219 31 214 30 214"></polygon>
                <polygon id="Fill-10" points="49 213 50 213 50 208 49 208"></polygon>
                <polygon id="Fill-11" points="44 213 45 213 45 208 44 208"></polygon>
                <polygon id="Fill-12" points="39 213 40 213 40 208 39 208"></polygon>
                <polygon id="Fill-13" points="35 213 36 213 36 208 35 208"></polygon>
                <polygon id="Fill-14" points="30 213 31 213 31 208 30 208"></polygon>
                <polygon id="Fill-15" points="53 206 54 206 54 201 53 201"></polygon>
                <polygon id="Fill-16" points="49 206 50 206 50 201 49 201"></polygon>
                <polygon id="Fill-17" points="44 206 45 206 45 201 44 201"></polygon>
                <polygon id="Fill-18" points="39 206 40 206 40 201 39 201"></polygon>
                <polygon id="Fill-19" points="53 199 54 199 54 194 53 194"></polygon>
                <polygon id="Fill-20" points="49 199 50 199 50 194 49 194"></polygon>
                <polygon id="Fill-21" points="44 199 45 199 45 194 44 194"></polygon>
                <polygon id="Fill-22" points="39 199 40 199 40 194 39 194"></polygon>
                <polygon id="Fill-23" points="35 199 36 199 36 194 35 194"></polygon>
                <polygon id="Fill-24" points="30 199 31 199 31 194 30 194"></polygon>
                <polygon id="Fill-25" points="53 192 54 192 54 187 53 187"></polygon>
                <polygon id="Fill-26" points="49 192 50 192 50 187 49 187"></polygon>
                <polygon id="Fill-27" points="44 192 45 192 45 187 44 187"></polygon>
                <polygon id="Fill-28" points="39 192 40 192 40 187 39 187"></polygon>
                <polygon id="Fill-29" points="35 192 36 192 36 187 35 187"></polygon>
                <polygon id="Fill-30" points="30 192 31 192 31 187 30 187"></polygon>
                <polygon id="Fill-31" points="53 186 54 186 54 181 53 181"></polygon>
                <polygon id="Fill-32" points="44 186 45 186 45 181 44 181"></polygon>
                <polygon id="Fill-33" points="39 186 40 186 40 181 39 181"></polygon>
                <polygon id="Fill-34" points="35 186 36 186 36 181 35 181"></polygon>
                <polygon id="Fill-35" points="53 179 54 179 54 174 53 174"></polygon>
                <polygon id="Fill-36" points="49 179 50 179 50 174 49 174"></polygon>
                <polygon id="Fill-37" points="44 179 45 179 45 174 44 174"></polygon>
                <polygon id="Fill-38" points="39 179 40 179 40 174 39 174"></polygon>
                <polygon id="Fill-39" points="35 179 36 179 36 174 35 174"></polygon>
                <polygon id="Fill-40" points="53 173 54 173 54 168 53 168"></polygon>
                <polygon id="Fill-41" points="49 173 50 173 50 168 49 168"></polygon>
                <polygon id="Fill-42" points="44 173 45 173 45 168 44 168"></polygon>
                <polygon id="Fill-43" points="39 173 40 173 40 168 39 168"></polygon>
                <polygon id="Fill-44" points="35 173 36 173 36 168 35 168"></polygon>
                <polygon id="Fill-45" points="30 173 31 173 31 168 30 168"></polygon>
                <polygon id="Fill-46" points="53 165 54 165 54 160 53 160"></polygon>
                <polygon id="Fill-47" points="49 165 50 165 50 160 49 160"></polygon>
                <polygon id="Fill-48" points="44 165 45 165 45 160 44 160"></polygon>
                <polygon id="Fill-49" points="39 165 40 165 40 160 39 160"></polygon>
                <polygon id="Fill-50" points="30 165 31 165 31 160 30 160"></polygon>
                <polygon id="Fill-51" points="53 159 54 159 54 154 53 154"></polygon>
                <polygon id="Fill-52" points="44 159 45 159 45 154 44 154"></polygon>
                <polygon id="Fill-53" points="39 159 40 159 40 154 39 154"></polygon>
                <polygon id="Fill-54" points="35 159 36 159 36 154 35 154"></polygon>
                <polygon id="Fill-55" points="30 159 31 159 31 154 30 154"></polygon>
                <polygon id="Fill-56" points="53 152 54 152 54 147 53 147"></polygon>
                <polygon id="Fill-57" points="49 152 50 152 50 147 49 147"></polygon>
                <polygon id="Fill-58" points="39 152 40 152 40 147 39 147"></polygon>
                <polygon id="Fill-59" points="35 152 36 152 36 147 35 147"></polygon>
                <polygon id="Fill-60" points="30 152 31 152 31 147 30 147"></polygon>
                <polyline id="Fill-61" points="59 139.534752 60.5391232 139.534752 60.5391232 109.828867 92.1407409 97.1486643 92.1407409 191 93.6798642 191 93.6798642 89.9187424 96.9626419 86.4151379 96.9626419 190.82781 98.5017651 190.82781 98.5017651 72.5440399 103.460877 72.5440399 103.460877 173.415473 105 173.415473 105 71 96.9626419 71 96.9626419 84.160685 92.1407409 89.3073129 92.1407409 95.4860504 59 108.783869 59 139.534752"></polyline>
                <polyline id="Fill-62" points="77 210.588298 77 209 64 209 64 215 76.8295871 215 76.8295871 213.411702 65.5321812 213.411702 65.5321812 210.588298 77 210.588298"></polyline>
                <polyline id="Fill-63" points="77 202.587908 77 201 64 201 64 207 76.8295871 207 76.8295871 205.411562 65.5321812 205.411562 65.5321812 202.587908 77 202.587908"></polyline>
                <polyline id="Fill-64" points="88 192.588438 88 191 64 191 64 197 77.0553084 197 77.0553084 195.411562 65.5591382 195.411562 65.5591382 192.588438 88 192.588438"></polyline>
                <path d="M65.5100557,186.411702 L86.4894399,186.411702 L86.4894399,183.588298 L65.5100557,183.588298 L65.5100557,186.411702 Z M64,188 L88,188 L88,182 L64,182 L64,188 Z" id="Fill-65"></path>
                <path d="M65.5100557,178.411702 L86.4894399,178.411702 L86.4894399,175.588298 L65.5100557,175.588298 L65.5100557,178.411702 Z M64,180 L88,180 L88,174 L64,174 L64,180 Z" id="Fill-66"></path>
                <path d="M65.5100557,169.411562 L86.4894399,169.411562 L86.4894399,166.587908 L65.5100557,166.587908 L65.5100557,169.411562 Z M64,171 L88,171 L88,165 L64,165 L64,171 Z" id="Fill-67"></path>
                <path d="M65.5100557,161.411562 L86.4894399,161.411562 L86.4894399,158.588438 L65.5100557,158.588438 L65.5100557,161.411562 Z M64,163 L88,163 L88,157 L64,157 L64,163 Z" id="Fill-68"></path>
                <path d="M65.5100557,152.411702 L86.4894399,152.411702 L86.4894399,149.588298 L65.5100557,149.588298 L65.5100557,152.411702 Z M64,154 L88,154 L88,148 L64,148 L64,154 Z" id="Fill-69"></path>
                <path d="M65.5100557,142.411702 L86.4894399,142.411702 L86.4894399,139.588298 L65.5100557,139.588298 L65.5100557,142.411702 Z M64,144 L88,144 L88,138 L64,138 L64,144 Z" id="Fill-70"></path>
                <path d="M65.5100557,134.411562 L86.4894399,134.411562 L86.4894399,131.587908 L65.5100557,131.587908 L65.5100557,134.411562 Z M64,136 L88,136 L88,130 L64,130 L64,136 Z" id="Fill-71"></path>
                <path d="M65.5100557,125.411562 L86.4894399,125.411562 L86.4894399,122.588438 L65.5100557,122.588438 L65.5100557,125.411562 Z M64,127 L88,127 L88,121 L64,121 L64,127 Z" id="Fill-72"></path>
                <path d="M65.5100557,117.411702 L86.4894399,117.411702 L86.4894399,114.588298 L65.5100557,114.588298 L65.5100557,117.411702 Z M64,119 L88,119 L88,113 L64,113 L64,119 Z" id="Fill-73"></path>
                <polyline id="Fill-74" points="160 227 160 182.353984 135.526399 182.353984 135.526399 176 104 176 104 191.010493 105.529664 191.010493 105.529664 177.535187 133.996735 177.535187 133.996735 183.889171 158.470336 183.889171 158.470336 227 160 227"></polyline>
                <polygon id="Fill-75" points="135 220 157 220 157 219 135 219"></polygon>
                <polygon id="Fill-76" points="135 216 157 216 157 215 135 215"></polygon>
                <polygon id="Fill-77" points="135 213 157 213 157 212 135 212"></polygon>
                <polygon id="Fill-78" points="135 209 157 209 157 208 135 208"></polygon>
                <polygon id="Fill-79" points="135 205 157 205 157 204 135 204"></polygon>
                <polygon id="Fill-80" points="135 203 157 203 157 202 135 202"></polygon>
                <polygon id="Fill-81" points="135 199 157 199 157 198 135 198"></polygon>
                <polygon id="Fill-82" points="135 196 157 196 157 195 135 195"></polygon>
                <polygon id="Fill-83" points="135 192 157 192 157 191 135 191"></polygon>
                <polygon id="Fill-84" points="135 188 157 188 157 187 135 187"></polygon>
                <polygon id="Fill-85" points="130 222 131 222 131 218 130 218"></polygon>
                <polygon id="Fill-86" points="126 222 127 222 127 218 126 218"></polygon>
                <polygon id="Fill-87" points="124 222 125 222 125 218 124 218"></polygon>
                <polygon id="Fill-88" points="120 222 121 222 121 218 120 218"></polygon>
                <polygon id="Fill-89" points="118 222 119 222 119 218 118 218"></polygon>
                <polygon id="Fill-90" points="112 222 113 222 113 218 112 218"></polygon>
                <polygon id="Fill-91" points="108 222 109 222 109 218 108 218"></polygon>
                <polygon id="Fill-92" points="126 215 127 215 127 211 126 211"></polygon>
                <polygon id="Fill-93" points="124 215 125 215 125 211 124 211"></polygon>
                <polygon id="Fill-94" points="120 215 121 215 121 211 120 211"></polygon>
                <polygon id="Fill-95" points="114 215 115 215 115 211 114 211"></polygon>
                <polygon id="Fill-96" points="112 215 113 215 113 211 112 211"></polygon>
                <polygon id="Fill-97" points="108 215 109 215 109 211 108 211"></polygon>
                <polygon id="Fill-98" points="130 211 131 211 131 207 130 207"></polygon>
                <polygon id="Fill-99" points="126 211 127 211 127 207 126 207"></polygon>
                <polygon id="Fill-100" points="124 211 125 211 125 207 124 207"></polygon>
                <polygon id="Fill-101" points="120 211 121 211 121 207 120 207"></polygon>
                <polygon id="Fill-102" points="118 211 119 211 119 207 118 207"></polygon>
                <polygon id="Fill-103" points="112 211 113 211 113 207 112 207"></polygon>
                <polygon id="Fill-104" points="108 211 109 211 109 207 108 207"></polygon>
                <polygon id="Fill-105" points="130 206 131 206 131 202 130 202"></polygon>
                <polygon id="Fill-106" points="126 206 127 206 127 202 126 202"></polygon>
                <polygon id="Fill-107" points="124 206 125 206 125 202 124 202"></polygon>
                <polygon id="Fill-108" points="118 206 119 206 119 202 118 202"></polygon>
                <polygon id="Fill-109" points="114 206 115 206 115 202 114 202"></polygon>
                <polygon id="Fill-110" points="112 206 113 206 113 202 112 202"></polygon>
                <polygon id="Fill-111" points="130 201 131 201 131 197 130 197"></polygon>
                <polygon id="Fill-112" points="126 201 127 201 127 197 126 197"></polygon>
                <polygon id="Fill-113" points="124 201 125 201 125 197 124 197"></polygon>
                <polygon id="Fill-114" points="120 201 121 201 121 197 120 197"></polygon>
                <polygon id="Fill-115" points="118 201 119 201 119 197 118 197"></polygon>
                <polygon id="Fill-116" points="114 201 115 201 115 197 114 197"></polygon>
                <polygon id="Fill-117" points="112 201 113 201 113 197 112 197"></polygon>
                <polygon id="Fill-118" points="108 201 109 201 109 197 108 197"></polygon>
                <polygon id="Fill-119" points="130 195 131 195 131 191 130 191"></polygon>
                <polygon id="Fill-120" points="126 195 127 195 127 191 126 191"></polygon>
                <polygon id="Fill-121" points="124 195 125 195 125 191 124 191"></polygon>
                <polygon id="Fill-122" points="120 195 121 195 121 191 120 191"></polygon>
                <polygon id="Fill-123" points="118 195 119 195 119 191 118 191"></polygon>
                <polygon id="Fill-124" points="114 195 115 195 115 191 114 191"></polygon>
                <polygon id="Fill-125" points="112 195 113 195 113 191 112 191"></polygon>
                <polygon id="Fill-126" points="108 195 109 195 109 191 108 191"></polygon>
                <polygon id="Fill-127" points="130 190 131 190 131 186 130 186"></polygon>
                <polygon id="Fill-128" points="126 190 127 190 127 186 126 186"></polygon>
                <polygon id="Fill-129" points="124 190 125 190 125 186 124 186"></polygon>
                <polygon id="Fill-130" points="120 190 121 190 121 186 120 186"></polygon>
                <polygon id="Fill-131" points="118 190 119 190 119 186 118 186"></polygon>
                <polygon id="Fill-132" points="114 190 115 190 115 186 114 186"></polygon>
                <polygon id="Fill-133" points="108 190 109 190 109 186 108 186"></polygon>
                <polygon id="Fill-134" points="130 185 131 185 131 181 130 181"></polygon>
                <polygon id="Fill-135" points="124 185 125 185 125 181 124 181"></polygon>
                <polygon id="Fill-136" points="118 185 119 185 119 181 118 181"></polygon>
                <polygon id="Fill-137" points="114 185 115 185 115 181 114 181"></polygon>
                <polygon id="Fill-138" points="112 185 113 185 113 181 112 181"></polygon>
                <polygon id="Fill-139" points="108 185 109 185 109 181 108 181"></polygon>
                <polyline id="Fill-140" points="115.549988 104.084403 119.139544 103.062779 119.139544 174 120.689532 174 120.689532 102.621813 124.305999 101.59237 124.305999 174 125.855987 174 125.855987 101.151403 129.472454 100.12196 129.472454 174 131.022442 174 131.022442 99.6809938 134.638908 98.6515508 134.638908 174 136.188897 174 136.188897 98.2105843 141.252364 96.7688429 141.252364 116.15573 151.068784 116.15573 151.068784 71.759373 166.632322 65.4226955 178.450529 65.4226955 178.450529 173.913475 180 173.913475 180 61 178.450529 61 178.450529 63.8615908 166.330605 63.8615908 149.518796 70.7064744 149.518796 114.594625 142.802352 114.594625 142.802352 94.7057871 114 102.903802 114 174 115.549988 174 115.549988 104.084403"></polyline>
                <polygon id="Fill-141" points="142 179 152 179 152 178 142 178"></polygon>
                <polygon id="Fill-142" points="142 174 152 174 152 173 142 173"></polygon>
                <polygon id="Fill-143" points="142 170 152 170 152 169 142 169"></polygon>
                <polygon id="Fill-144" points="142 166 152 166 152 165 142 165"></polygon>
                <polygon id="Fill-145" points="142 161 152 161 152 160 142 160"></polygon>
                <polygon id="Fill-146" points="142 158 152 158 152 157 142 157"></polygon>
                <polygon id="Fill-147" points="142 154 152 154 152 153 142 153"></polygon>
                <polygon id="Fill-148" points="142 149 152 149 152 148 142 148"></polygon>
                <polygon id="Fill-149" points="142 145 152 145 152 144 142 144"></polygon>
                <polygon id="Fill-150" points="142 141 152 141 152 140 142 140"></polygon>
                <polygon id="Fill-151" points="142 137 152 137 152 136 142 136"></polygon>
                <polygon id="Fill-152" points="142 133 152 133 152 132 142 132"></polygon>
                <polygon id="Fill-153" points="142 128 152 128 152 127 142 127"></polygon>
                <polygon id="Fill-154" points="142 125 152 125 152 124 142 124"></polygon>
                <polygon id="Fill-155" points="142 120 152 120 152 119 142 119"></polygon>
                <polyline id="Fill-156" points="214 227 214 176 164 176 164 227 165.562582 227 165.562582 177.535187 212.437418 177.535187 212.437418 227 214 227"></polyline>
                <polyline id="Fill-157" points="169 214 169 219 209 219 209 217.554118 170.558536 217.554118 170.558536 214 169 214"></polyline>
                <polyline id="Fill-158" points="209 210.554601 170.558536 210.554601 170.558536 207 169 207 169 212 209 212 209 210.554601"></polyline>
                <polyline id="Fill-159" points="209 201.554118 170.558536 201.554118 170.558536 198 169 198 169 203 209 203 209 201.554118"></polyline>
                <polyline id="Fill-160" points="209 194.554118 170.558536 194.554118 170.558536 191 169 191 169 196 209 196 209 194.554118"></polyline>
                <polyline id="Fill-161" points="209 186.554118 170.558536 186.554118 170.558536 183 169 183 169 188 209 188 209 186.554118"></polyline>
                <polyline id="Fill-162" points="174 168 156 168 156 173 157.500083 173 157.500083 169.666667 174 169.666667 174 168"></polyline>
                <polyline id="Fill-163" points="156 165 157.500083 165 157.500083 161.666667 174 161.666667 174 160 156 160 156 165"></polyline>
                <polyline id="Fill-164" points="156 159 157.500083 159 157.500083 155.666852 174 155.666852 174 154 156 154 156 159"></polyline>
                <polyline id="Fill-165" points="156 152 157.500083 152 157.500083 148.666667 174 148.666667 174 147 156 147 156 152"></polyline>
                <polyline id="Fill-166" points="156 146 157.500083 146 157.500083 142.666296 174 142.666296 174 141 156 141 156 146"></polyline>
                <polyline id="Fill-167" points="156 138 157.500083 138 157.500083 134.666852 174 134.666852 174 133 156 133 156 138"></polyline>
                <polyline id="Fill-168" points="156 132 157.500083 132 157.500083 128.666667 174 128.666667 174 127 156 127 156 132"></polyline>
                <polyline id="Fill-169" points="156 125 157.500083 125 157.500083 121.666296 174 121.666296 174 120 156 120 156 125"></polyline>
                <polyline id="Fill-170" points="156 119 157.500083 119 157.500083 115.666667 174 115.666667 174 114 156 114 156 119"></polyline>
                <polyline id="Fill-171" points="156 111 157.500083 111 157.500083 107.666667 174 107.666667 174 106 156 106 156 111"></polyline>
                <polyline id="Fill-172" points="156 105 157.500083 105 157.500083 101.666852 174 101.666852 174 100 156 100 156 105"></polyline>
                <polyline id="Fill-173" points="156 98 157.500083 98 157.500083 94.6666667 174 94.6666667 174 93 156 93 156 98"></polyline>
                <polyline id="Fill-174" points="156 92 157.500083 92 157.500083 88.6666667 174 88.6666667 174 87 156 87 156 92"></polyline>
                <polyline id="Fill-175" points="156 84 157.500083 84 157.500083 80.6668522 174 80.6668522 174 79 156 79 156 84"></polyline>
                <polyline id="Fill-176" points="174 74.6666667 174 73 156 73 156 78 157.500083 78 157.500083 74.6666667 174 74.6666667"></polyline>
                <polyline id="Fill-177" points="188 174.489829 189.560172 174.489829 189.560172 110.56871 239.439828 110.56871 239.439828 189 241 189 241 109 188 109 188 174.489829"></polyline>
                <polygon id="Fill-178" points="219 219 223 219 223 218 219 218"></polygon>
                <polygon id="Fill-179" points="219 214 224 214 224 213 219 213"></polygon>
                <polygon id="Fill-180" points="219 209 224 209 224 208 219 208"></polygon>
                <polygon id="Fill-181" points="219 199 224 199 224 198 219 198"></polygon>
                <polygon id="Fill-182" points="219 196 224 196 224 195 219 195"></polygon>
                <polygon id="Fill-183" points="219 186 236 186 236 185 219 185"></polygon>
                <polygon id="Fill-184" points="219 181 236 181 236 180 219 180"></polygon>
                <polygon id="Fill-185" points="219 176 236 176 236 175 219 175"></polygon>
                <polygon id="Fill-186" points="195 172 235 172 235 171 195 171"></polygon>
                <polygon id="Fill-187" points="195 167 235 167 235 166 195 166"></polygon>
                <polygon id="Fill-188" points="195 158 235 158 235 157 195 157"></polygon>
                <polygon id="Fill-189" points="195 153 235 153 235 152 195 152"></polygon>
                <polygon id="Fill-190" points="195 149 235 149 235 148 195 148"></polygon>
                <polygon id="Fill-191" points="195 144 235 144 235 143 195 143"></polygon>
                <polygon id="Fill-192" points="195 134 235 134 235 133 195 133"></polygon>
                <polygon id="Fill-193" points="195 130 235 130 235 129 195 129"></polygon>
                <polygon id="Fill-194" points="195 126 235 126 235 125 195 125"></polygon>
                <polygon id="Fill-195" points="195 116 235 116 235 115 195 115"></polygon>
                <polyline id="Fill-196" points="215.548559 83.5276601 235.005883 72.612655 252.961199 72.612655 252.961199 39.5498976 268.450924 39.5498976 268.450924 54.1008228 270 54.1008228 270 38 251.412123 38 251.412123 71.0627574 234.601417 71.0627574 214 82.6199738 214 108 215.548559 108 215.548559 83.5276601"></polyline>
                <polygon id="Fill-197" points="265 219 266 219 266 212 265 212"></polygon>
                <polygon id="Fill-198" points="260 219 261 219 261 212 260 212"></polygon>
                <polygon id="Fill-199" points="265 210 266 210 266 203 265 203"></polygon>
                <polygon id="Fill-200" points="260 210 261 210 261 203 260 203"></polygon>
                <polygon id="Fill-201" points="265 202 266 202 266 195 265 195"></polygon>
                <polygon id="Fill-202" points="260 202 261 202 261 195 260 195"></polygon>
                <polygon id="Fill-203" points="265 193 266 193 266 186 265 186"></polygon>
                <polygon id="Fill-204" points="260 193 261 193 261 186 260 186"></polygon>
                <polygon id="Fill-205" points="255 193 256 193 256 186 255 186"></polygon>
                <polygon id="Fill-206" points="265 185 266 185 266 178 265 178"></polygon>
                <polygon id="Fill-207" points="260 185 261 185 261 178 260 178"></polygon>
                <polygon id="Fill-208" points="255 185 256 185 256 178 255 178"></polygon>
                <polygon id="Fill-209" points="250 185 251 185 251 178 250 178"></polygon>
                <polygon id="Fill-210" points="246 185 247 185 247 178 246 178"></polygon>
                <polygon id="Fill-211" points="265 176 266 176 266 169 265 169"></polygon>
                <polygon id="Fill-212" points="260 176 261 176 261 169 260 169"></polygon>
                <polygon id="Fill-213" points="255 176 256 176 256 169 255 169"></polygon>
                <polygon id="Fill-214" points="250 176 251 176 251 169 250 169"></polygon>
                <polygon id="Fill-215" points="246 176 247 176 247 169 246 169"></polygon>
                <polygon id="Fill-216" points="265 167 266 167 266 160 265 160"></polygon>
                <polygon id="Fill-217" points="260 167 261 167 261 160 260 160"></polygon>
                <polygon id="Fill-218" points="255 167 256 167 256 160 255 160"></polygon>
                <polygon id="Fill-219" points="250 167 251 167 251 160 250 160"></polygon>
                <polygon id="Fill-220" points="246 167 247 167 247 160 246 160"></polygon>
                <polygon id="Fill-221" points="265 159 266 159 266 152 265 152"></polygon>
                <polygon id="Fill-222" points="260 159 261 159 261 152 260 152"></polygon>
                <polygon id="Fill-223" points="255 159 256 159 256 152 255 152"></polygon>
                <polygon id="Fill-224" points="250 159 251 159 251 152 250 152"></polygon>
                <polygon id="Fill-225" points="246 159 247 159 247 152 246 152"></polygon>
                <polygon id="Fill-226" points="265 150 266 150 266 143 265 143"></polygon>
                <polygon id="Fill-227" points="260 150 261 150 261 143 260 143"></polygon>
                <polygon id="Fill-228" points="255 150 256 150 256 143 255 143"></polygon>
                <polygon id="Fill-229" points="250 150 251 150 251 143 250 143"></polygon>
                <polygon id="Fill-230" points="246 150 247 150 247 143 246 143"></polygon>
                <polygon id="Fill-231" points="265 142 266 142 266 135 265 135"></polygon>
                <polygon id="Fill-232" points="260 142 261 142 261 135 260 135"></polygon>
                <polygon id="Fill-233" points="255 142 256 142 256 135 255 135"></polygon>
                <polygon id="Fill-234" points="250 142 251 142 251 135 250 135"></polygon>
                <polygon id="Fill-235" points="246 142 247 142 247 135 246 135"></polygon>
                <polygon id="Fill-236" points="265 133 266 133 266 126 265 126"></polygon>
                <polygon id="Fill-237" points="260 133 261 133 261 126 260 126"></polygon>
                <polygon id="Fill-238" points="255 133 256 133 256 126 255 126"></polygon>
                <polygon id="Fill-239" points="250 133 251 133 251 126 250 126"></polygon>
                <polygon id="Fill-240" points="246 133 247 133 247 126 246 126"></polygon>
                <polygon id="Fill-241" points="265 125 266 125 266 118 265 118"></polygon>
                <polygon id="Fill-242" points="260 125 261 125 261 118 260 118"></polygon>
                <polygon id="Fill-243" points="255 125 256 125 256 118 255 118"></polygon>
                <polygon id="Fill-244" points="250 125 251 125 251 118 250 118"></polygon>
                <polygon id="Fill-245" points="246 125 247 125 247 118 246 118"></polygon>
                <polygon id="Fill-246" points="265 116 266 116 266 109 265 109"></polygon>
                <polygon id="Fill-247" points="260 116 261 116 261 109 260 109"></polygon>
                <polygon id="Fill-248" points="255 116 256 116 256 109 255 109"></polygon>
                <polygon id="Fill-249" points="250 116 251 116 251 109 250 109"></polygon>
                <polygon id="Fill-250" points="246 116 247 116 247 109 246 109"></polygon>
                <polyline id="Fill-251" points="294 228 294 59 260 59 260 102.701897 261.537776 102.701897 261.537776 60.5481729 269.738564 60.5481729 269.738564 228 271.276341 228 271.276341 60.5481729 292.462224 60.5481729 292.462224 228 294 228"></polyline>
                <polyline id="Fill-252" points="273 215 274.525519 215 274.525519 212.548404 288 212.548404 288 211 273 211 273 215"></polyline>
                <polyline id="Fill-253" points="288 205 273 205 273 209 274.525519 209 274.525519 206.548087 288 206.548087 288 205"></polyline>
                <polyline id="Fill-254" points="288 199 273 199 273 203 274.525519 203 274.525519 200.548404 288 200.548404 288 199"></polyline>
                <polyline id="Fill-255" points="288 193 273 193 273 197 274.525519 197 274.525519 194.548404 288 194.548404 288 193"></polyline>
                <polyline id="Fill-256" points="288 187 273 187 273 191 274.525519 191 274.525519 188.548404 288 188.548404 288 187"></polyline>
                <polyline id="Fill-257" points="288 181 273 181 273 185 274.525519 185 274.525519 182.548404 288 182.548404 288 181"></polyline>
                <polyline id="Fill-258" points="288 174 273 174 273 178 274.525519 178 274.525519 175.548604 288 175.548604 288 174"></polyline>
                <polyline id="Fill-259" points="288 167 273 167 273 171 274.525519 171 274.525519 168.548404 288 168.548404 288 167"></polyline>
                <polyline id="Fill-260" points="288 161 273 161 273 165 274.525519 165 274.525519 162.548404 288 162.548404 288 161"></polyline>
                <polyline id="Fill-261" points="288 155 273 155 273 159 274.525519 159 274.525519 156.548604 288 156.548604 288 155"></polyline>
                <polyline id="Fill-262" points="288 149 273 149 273 153 274.525519 153 274.525519 150.548404 288 150.548404 288 149"></polyline>
                <polyline id="Fill-263" points="288 143 273 143 273 147 274.525519 147 274.525519 144.548404 288 144.548404 288 143"></polyline>
                <polyline id="Fill-264" points="288 137 273 137 273 141 274.525519 141 274.525519 138.548087 288 138.548087 288 137"></polyline>
                <polyline id="Fill-265" points="288 131 273 131 273 135 274.525519 135 274.525519 132.548404 288 132.548404 288 131"></polyline>
                <polyline id="Fill-266" points="288 125 273 125 273 129 274.525519 129 274.525519 126.548404 288 126.548404 288 125"></polyline>
                <polyline id="Fill-267" points="288 119 273 119 273 123 274.525519 123 274.525519 120.548087 288 120.548087 288 119"></polyline>
                <polyline id="Fill-268" points="288 112 273 112 273 116 274.525519 116 274.525519 113.548404 288 113.548404 288 112"></polyline>
                <polyline id="Fill-269" points="288 106 273 106 273 110 274.525519 110 274.525519 107.548404 288 107.548404 288 106"></polyline>
                <polyline id="Fill-270" points="288 100 273 100 273 104 274.525519 104 274.525519 101.548404 288 101.548404 288 100"></polyline>
                <polyline id="Fill-271" points="288 94 273 94 273 98 274.525519 98 274.525519 95.5484038 288 95.5484038 288 94"></polyline>
                <polyline id="Fill-272" points="288 87 273 87 273 91 274.525519 91 274.525519 88.5486039 288 88.5486039 288 87"></polyline>
                <polyline id="Fill-273" points="288 81 273 81 273 85 274.525519 85 274.525519 82.5484038 288 82.5484038 288 81"></polyline>
                <polyline id="Fill-274" points="288 74 273 74 273 78 274.525519 78 274.525519 75.5484038 288 75.5484038 288 74"></polyline>
                <polyline id="Fill-275" points="288 68 273 68 273 72 274.525519 72 274.525519 69.5486039 288 69.5486039 288 68"></polyline>
                <polyline id="Fill-276" points="288 62 273 62 273 66 274.525519 66 274.525519 63.5484038 288 63.5484038 288 62"></polyline>
                <polyline id="Fill-277" points="301.553729 88.6100435 300 88.6100435 300 199.149079 301.553729 199.149079 301.553729 109.237617 335.732134 127.614825 335.732134 228 337.285863 228 337.285863 70.2224675 372.241391 59.8726521 372.241391 38.8422832 379.630812 28.5526019 385.446271 28.5526019 385.446271 176.162795 387 176.162795 387 27 378.833974 27 372.241391 36.1797912 372.241391 32.5551526 370.687662 32.5551526 370.687662 58.7129958 335.732134 69.0633297 335.732134 125.851235 301.553729 107.474546 301.553729 88.6100435"></polyline>
                <polyline id="Fill-278" points="424 228 424 180 355 180 355 228 356.568348 228 356.568348 181.539678 422.431652 181.539678 422.431652 228 424 228"></polyline>
                <polyline id="Fill-279" points="467.433346 191 469 191 469 157 416 157 416 175.427228 417.566654 175.427228 417.566654 158.552405 467.433346 158.552405 467.433346 191"></polyline>
                <polyline id="Fill-280" points="395.535806 78.5550527 435.464194 78.5550527 435.464194 153.712123 437 153.712123 437 77 394 77 394 176 395.535806 176 395.535806 78.5550527"></polyline>
                <polyline id="Fill-281" points="466.66 83.0237811 449 92.8484074 449 152.979643 450.535897 152.979643 450.535897 93.760801 468.195897 83.9361748 468.195897 63.5464737 490.464615 63.5464737 490.464615 187 492 187 492 62 466.66 62 466.66 83.0237811"></polyline>
                <polyline id="Fill-282" points="523 227 523 192 475 192 475 193.523199 521.448944 193.523199 521.448944 198.060754 495.239724 198.060754 495.239724 199.583952 521.448944 199.583952 521.448944 203.645476 495.239724 203.645476 495.239724 205.168674 521.448944 205.168674 521.448944 209.230198 495.239724 209.230198 495.239724 210.753397 521.448944 210.753397 521.448944 214.81492 495.239724 214.81492 495.239724 216.338119 521.448944 216.338119 521.448944 220.399643 495.239724 220.399643 495.239724 221.922841 521.448944 221.922841 521.448944 227 523 227"></polyline>
                <polygon id="Fill-283" points="490 223 491 223 491 219 490 219"></polygon>
                <polygon id="Fill-284" points="486 223 487 223 487 219 486 219"></polygon>
                <polygon id="Fill-285" points="482 223 483 223 483 219 482 219"></polygon>
                <polygon id="Fill-286" points="479 223 480 223 480 219 479 219"></polygon>
                <polygon id="Fill-287" points="486 218 487 218 487 214 486 214"></polygon>
                <polygon id="Fill-288" points="482 218 483 218 483 214 482 214"></polygon>
                <polygon id="Fill-289" points="490 213 491 213 491 209 490 209"></polygon>
                <polygon id="Fill-290" points="486 213 487 213 487 209 486 209"></polygon>
                <polygon id="Fill-291" points="482 213 483 213 483 209 482 209"></polygon>
                <polygon id="Fill-292" points="479 213 480 213 480 209 479 209"></polygon>
                <polygon id="Fill-293" points="486 207 487 207 487 203 486 203"></polygon>
                <polygon id="Fill-294" points="479 207 480 207 480 203 479 203"></polygon>
                <polygon id="Fill-295" points="490 202 491 202 491 198 490 198"></polygon>
                <polygon id="Fill-296" points="486 202 487 202 487 198 486 198"></polygon>
                <polygon id="Fill-297" points="482 202 483 202 483 198 482 198"></polygon>
                <polyline id="Fill-298" points="471 182 472.559084 182 472.559084 179.599893 488 179.599893 488 178 471 178 471 182"></polyline>
                <polyline id="Fill-299" points="471 176 472.559084 176 472.559084 173.600107 488 173.600107 488 172 471 172 471 176"></polyline>
                <polyline id="Fill-300" points="471 170 472.559084 170 472.559084 167.600107 488 167.600107 488 166 471 166 471 170"></polyline>
                <polyline id="Fill-301" points="471 163 472.559084 163 472.559084 160.600107 488 160.600107 488 159 471 159 471 163"></polyline>
                <polyline id="Fill-302" points="471 157 472.559084 157 472.559084 154.600107 488 154.600107 488 153 471 153 471 157"></polyline>
                <polyline id="Fill-303" points="471 151 472.559084 151 472.559084 148.599573 488 148.599573 488 147 471 147 471 151"></polyline>
                <polyline id="Fill-304" points="471 145 472.559084 145 472.559084 142.600107 488 142.600107 488 141 471 141 471 145"></polyline>
                <polyline id="Fill-305" points="471 138 472.559084 138 472.559084 135.600107 488 135.600107 488 134 471 134 471 138"></polyline>
                <polyline id="Fill-306" points="471 132 472.559084 132 472.559084 129.599573 488 129.599573 488 128 471 128 471 132"></polyline>
                <polyline id="Fill-307" points="471 126 472.559084 126 472.559084 123.600107 488 123.600107 488 122 471 122 471 126"></polyline>
                <polyline id="Fill-308" points="471 120 472.559084 120 472.559084 117.600107 488 117.600107 488 116 471 116 471 120"></polyline>
                <polyline id="Fill-309" points="471 114 472.559084 114 472.559084 111.599573 488 111.599573 488 110 471 110 471 114"></polyline>
                <polyline id="Fill-310" points="471 108 472.559084 108 472.559084 105.600107 488 105.600107 488 104 471 104 471 108"></polyline>
                <polyline id="Fill-311" points="471 102 472.559084 102 472.559084 99.6001069 488 99.6001069 488 98 471 98 471 102"></polyline>
                <polyline id="Fill-312" points="471 96 472.559084 96 472.559084 93.5998932 488 93.5998932 488 92 471 92 471 96"></polyline>
                <polyline id="Fill-313" points="471 89 472.559084 89 472.559084 86.6001069 488 86.6001069 488 85 471 85 471 89"></polyline>
                <polyline id="Fill-314" points="471 83 472.559084 83 472.559084 80.6001069 488 80.6001069 488 79 471 79 471 83"></polyline>
                <polyline id="Fill-315" points="471 77 472.559084 77 472.559084 74.6001069 488 74.6001069 488 73 471 73 471 77"></polyline>
                <polyline id="Fill-316" points="488 67.6001069 488 66 471 66 471 70 472.559084 70 472.559084 67.6001069 488 67.6001069"></polyline>
                <polygon id="Fill-317" points="465 152 466 152 466 148 465 148"></polygon>
                <polygon id="Fill-318" points="461 152 462 152 462 148 461 148"></polygon>
                <polygon id="Fill-319" points="453 152 454 152 454 148 453 148"></polygon>
                <polygon id="Fill-320" points="465 147 466 147 466 143 465 143"></polygon>
                <polygon id="Fill-321" points="453 147 454 147 454 143 453 143"></polygon>
                <polygon id="Fill-322" points="465 142 466 142 466 138 465 138"></polygon>
                <polygon id="Fill-323" points="461 142 462 142 462 138 461 138"></polygon>
                <polygon id="Fill-324" points="458 142 459 142 459 138 458 138"></polygon>
                <polygon id="Fill-325" points="453 142 454 142 454 138 453 138"></polygon>
                <polygon id="Fill-326" points="461 136 462 136 462 132 461 132"></polygon>
                <polygon id="Fill-327" points="458 136 459 136 459 132 458 132"></polygon>
                <polygon id="Fill-328" points="453 136 454 136 454 132 453 132"></polygon>
                <polygon id="Fill-329" points="465 131 466 131 466 127 465 127"></polygon>
                <polygon id="Fill-330" points="461 131 462 131 462 127 461 127"></polygon>
                <polygon id="Fill-331" points="458 131 459 131 459 127 458 127"></polygon>
                <polygon id="Fill-332" points="453 131 454 131 454 127 453 127"></polygon>
                <polygon id="Fill-333" points="465 126 466 126 466 122 465 122"></polygon>
                <polygon id="Fill-334" points="461 126 462 126 462 122 461 122"></polygon>
                <polygon id="Fill-335" points="458 126 459 126 459 122 458 122"></polygon>
                <polygon id="Fill-336" points="465 121 466 121 466 117 465 117"></polygon>
                <polygon id="Fill-337" points="461 121 462 121 462 117 461 117"></polygon>
                <polygon id="Fill-338" points="458 121 459 121 459 117 458 117"></polygon>
                <polygon id="Fill-339" points="453 121 454 121 454 117 453 117"></polygon>
                <polygon id="Fill-340" points="465 115 466 115 466 111 465 111"></polygon>
                <polygon id="Fill-341" points="461 115 462 115 462 111 461 111"></polygon>
                <polygon id="Fill-342" points="458 115 459 115 459 111 458 111"></polygon>
                <polygon id="Fill-343" points="453 115 454 115 454 111 453 111"></polygon>
                <polygon id="Fill-344" points="465 110 466 110 466 106 465 106"></polygon>
                <polygon id="Fill-345" points="461 110 462 110 462 106 461 106"></polygon>
                <polygon id="Fill-346" points="453 110 454 110 454 106 453 106"></polygon>
                <polygon id="Fill-347" points="461 105 462 105 462 101 461 101"></polygon>
                <polygon id="Fill-348" points="458 105 459 105 459 101 458 101"></polygon>
                <polygon id="Fill-349" points="453 105 454 105 454 101 453 101"></polygon>
                <polygon id="Fill-350" points="465 100 466 100 466 96 465 96"></polygon>
                <polygon id="Fill-351" points="461 100 462 100 462 96 461 96"></polygon>
                <polygon id="Fill-352" points="465 94 466 94 466 90 465 90"></polygon>
                <polygon id="Fill-353" points="461 94 462 94 462 90 461 90"></polygon>
                <polygon id="Fill-354" points="458 100 459 100 459 96 458 96"></polygon>
                <polygon id="Fill-355" points="453 100 454 100 454 96 453 96"></polygon>
                <polygon id="Fill-356" points="461 191 462 191 462 162 461 162"></polygon>
                <polygon id="Fill-357" points="458 196 459 196 459 162 458 162"></polygon>
                <polygon id="Fill-358" points="453 196 454 196 454 162 453 162"></polygon>
                <polygon id="Fill-359" points="449 196 450 196 450 162 449 162"></polygon>
                <polygon id="Fill-360" points="446 224 447 224 447 163 446 163"></polygon>
                <polygon id="Fill-361" points="441 224 442 224 442 163 441 163"></polygon>
                <polygon id="Fill-362" points="437 215 438 215 438 161 437 161"></polygon>
                <polygon id="Fill-363" points="433 198 434 198 434 161 433 161"></polygon>
                <polygon id="Fill-364" points="428 198 429 198 429 161 428 161"></polygon>
                <polygon id="Fill-365" points="425 175 426 175 426 162 425 162"></polygon>
                <polygon id="Fill-366" points="420 175 421 175 421 162 420 162"></polygon>
                <polygon id="Fill-367" points="411 168 412 168 412 163 411 163"></polygon>
                <polygon id="Fill-368" points="406 168 407 168 407 163 406 163"></polygon>
                <polygon id="Fill-369" points="399 168 400 168 400 163 399 163"></polygon>
                <polygon id="Fill-370" points="411 162 412 162 412 157 411 157"></polygon>
                <polygon id="Fill-371" points="403 162 404 162 404 157 403 157"></polygon>
                <polygon id="Fill-372" points="399 162 400 162 400 157 399 157"></polygon>
                <polygon id="Fill-373" points="432 154 433 154 433 149 432 149"></polygon>
                <polygon id="Fill-374" points="427 154 428 154 428 149 427 149"></polygon>
                <polygon id="Fill-375" points="424 154 425 154 425 149 424 149"></polygon>
                <polygon id="Fill-376" points="420 154 421 154 421 149 420 149"></polygon>
                <polygon id="Fill-377" points="415 154 416 154 416 149 415 149"></polygon>
                <polygon id="Fill-378" points="406 154 407 154 407 149 406 149"></polygon>
                <polygon id="Fill-379" points="403 154 404 154 404 149 403 149"></polygon>
                <polygon id="Fill-380" points="399 154 400 154 400 149 399 149"></polygon>
                <polygon id="Fill-381" points="432 148 433 148 433 143 432 143"></polygon>
                <polygon id="Fill-382" points="424 148 425 148 425 143 424 143"></polygon>
                <polygon id="Fill-383" points="420 148 421 148 421 143 420 143"></polygon>
                <polygon id="Fill-384" points="415 148 416 148 416 143 415 143"></polygon>
                <polygon id="Fill-385" points="411 148 412 148 412 143 411 143"></polygon>
                <polygon id="Fill-386" points="406 148 407 148 407 143 406 143"></polygon>
                <polygon id="Fill-387" points="403 148 404 148 404 143 403 143"></polygon>
                <polygon id="Fill-388" points="399 148 400 148 400 143 399 143"></polygon>
                <polygon id="Fill-389" points="432 141 433 141 433 136 432 136"></polygon>
                <polygon id="Fill-390" points="427 141 428 141 428 136 427 136"></polygon>
                <polygon id="Fill-391" points="424 141 425 141 425 136 424 136"></polygon>
                <polygon id="Fill-392" points="420 141 421 141 421 136 420 136"></polygon>
                <polygon id="Fill-393" points="411 141 412 141 412 136 411 136"></polygon>
                <polygon id="Fill-394" points="406 141 407 141 407 136 406 136"></polygon>
                <polygon id="Fill-395" points="403 141 404 141 404 136 403 136"></polygon>
                <polygon id="Fill-396" points="399 141 400 141 400 136 399 136"></polygon>
                <polygon id="Fill-397" points="432 135 433 135 433 130 432 130"></polygon>
                <polygon id="Fill-398" points="427 135 428 135 428 130 427 130"></polygon>
                <polygon id="Fill-399" points="424 135 425 135 425 130 424 130"></polygon>
                <polygon id="Fill-400" points="420 135 421 135 421 130 420 130"></polygon>
                <polygon id="Fill-401" points="415 135 416 135 416 130 415 130"></polygon>
                <polygon id="Fill-402" points="411 135 412 135 412 130 411 130"></polygon>
                <polygon id="Fill-403" points="406 135 407 135 407 130 406 130"></polygon>
                <polygon id="Fill-404" points="403 135 404 135 404 130 403 130"></polygon>
                <polygon id="Fill-405" points="399 135 400 135 400 130 399 130"></polygon>
                <polygon id="Fill-406" points="432 127 433 127 433 122 432 122"></polygon>
                <polygon id="Fill-407" points="427 127 428 127 428 122 427 122"></polygon>
                <polygon id="Fill-408" points="424 127 425 127 425 122 424 122"></polygon>
                <polygon id="Fill-409" points="415 127 416 127 416 122 415 122"></polygon>
                <polygon id="Fill-410" points="411 127 412 127 412 122 411 122"></polygon>
                <polygon id="Fill-411" points="406 127 407 127 407 122 406 122"></polygon>
                <polygon id="Fill-412" points="403 127 404 127 404 122 403 122"></polygon>
                <polygon id="Fill-413" points="399 127 400 127 400 122 399 122"></polygon>
                <polygon id="Fill-414" points="432 121 433 121 433 116 432 116"></polygon>
                <polygon id="Fill-415" points="427 121 428 121 428 116 427 116"></polygon>
                <polygon id="Fill-416" points="424 121 425 121 425 116 424 116"></polygon>
                <polygon id="Fill-417" points="420 121 421 121 421 116 420 116"></polygon>
                <polygon id="Fill-418" points="415 121 416 121 416 116 415 116"></polygon>
                <polygon id="Fill-419" points="411 121 412 121 412 116 411 116"></polygon>
                <polygon id="Fill-420" points="406 121 407 121 407 116 406 116"></polygon>
                <polygon id="Fill-421" points="403 121 404 121 404 116 403 116"></polygon>
                <polygon id="Fill-422" points="399 121 400 121 400 116 399 116"></polygon>
                <polygon id="Fill-423" points="432 114 433 114 433 109 432 109"></polygon>
                <polygon id="Fill-424" points="427 114 428 114 428 109 427 109"></polygon>
                <polygon id="Fill-425" points="424 114 425 114 425 109 424 109"></polygon>
                <polygon id="Fill-426" points="420 114 421 114 421 109 420 109"></polygon>
                <polygon id="Fill-427" points="415 114 416 114 416 109 415 109"></polygon>
                <polygon id="Fill-428" points="411 114 412 114 412 109 411 109"></polygon>
                <polygon id="Fill-429" points="406 114 407 114 407 109 406 109"></polygon>
                <polygon id="Fill-430" points="399 114 400 114 400 109 399 109"></polygon>
                <polygon id="Fill-431" points="432 108 433 108 433 103 432 103"></polygon>
                <polygon id="Fill-432" points="427 108 428 108 428 103 427 103"></polygon>
                <polygon id="Fill-433" points="424 108 425 108 425 103 424 103"></polygon>
                <polygon id="Fill-434" points="420 108 421 108 421 103 420 103"></polygon>
                <polygon id="Fill-435" points="415 108 416 108 416 103 415 103"></polygon>
                <polygon id="Fill-436" points="411 108 412 108 412 103 411 103"></polygon>
                <polygon id="Fill-437" points="406 108 407 108 407 103 406 103"></polygon>
                <polygon id="Fill-438" points="403 108 404 108 404 103 403 103"></polygon>
                <polygon id="Fill-439" points="399 108 400 108 400 103 399 103"></polygon>
                <polygon id="Fill-440" points="432 100 433 100 433 95 432 95"></polygon>
                <polygon id="Fill-441" points="424 100 425 100 425 95 424 95"></polygon>
                <polygon id="Fill-442" points="420 100 421 100 421 95 420 95"></polygon>
                <polygon id="Fill-443" points="415 100 416 100 416 95 415 95"></polygon>
                <polygon id="Fill-444" points="406 100 407 100 407 95 406 95"></polygon>
                <polygon id="Fill-445" points="403 100 404 100 404 95 403 95"></polygon>
                <polygon id="Fill-446" points="399 100 400 100 400 95 399 95"></polygon>
                <polygon id="Fill-447" points="432 94 433 94 433 89 432 89"></polygon>
                <polygon id="Fill-448" points="424 94 425 94 425 89 424 89"></polygon>
                <polygon id="Fill-449" points="420 94 421 94 421 89 420 89"></polygon>
                <polygon id="Fill-450" points="415 94 416 94 416 89 415 89"></polygon>
                <polygon id="Fill-451" points="411 94 412 94 412 89 411 89"></polygon>
                <polygon id="Fill-452" points="406 94 407 94 407 89 406 89"></polygon>
                <polygon id="Fill-453" points="403 94 404 94 404 89 403 89"></polygon>
                <polygon id="Fill-454" points="399 94 400 94 400 89 399 89"></polygon>
                <polygon id="Fill-455" points="432 87 433 87 433 82 432 82"></polygon>
                <polygon id="Fill-456" points="427 87 428 87 428 82 427 82"></polygon>
                <polygon id="Fill-457" points="424 87 425 87 425 82 424 82"></polygon>
                <polygon id="Fill-458" points="420 87 421 87 421 82 420 82"></polygon>
                <polygon id="Fill-459" points="415 87 416 87 416 82 415 82"></polygon>
                <polygon id="Fill-460" points="403 87 404 87 404 82 403 82"></polygon>
                <polygon id="Fill-461" points="399 87 400 87 400 82 399 82"></polygon>
                <path d="M361.567737,216.378276 L416.432263,216.378276 L416.432263,214.621724 L361.567737,214.621724 L361.567737,216.378276 Z M360,218 L418,218 L418,213 L360,213 L360,218 Z" id="Fill-462"></path>
                <path d="M361.567737,208.378276 L416.432263,208.378276 L416.432263,206.621724 L361.567737,206.621724 L361.567737,208.378276 Z M360,210 L418,210 L418,205 L360,205 L360,210 Z" id="Fill-463"></path>
                <path d="M361.567737,202.378276 L416.432263,202.378276 L416.432263,200.621724 L361.567737,200.621724 L361.567737,202.378276 Z M360,204 L418,204 L418,199 L360,199 L360,204 Z" id="Fill-464"></path>
                <path d="M361.567737,195.378817 L416.432263,195.378817 L416.432263,193.621724 L361.567737,193.621724 L361.567737,195.378817 Z M360,197 L418,197 L418,192 L360,192 L360,197 Z" id="Fill-465"></path>
                <path d="M361.567737,188.378817 L416.432263,188.378817 L416.432263,186.621724 L361.567737,186.621724 L361.567737,188.378817 Z M360,190 L418,190 L418,185 L360,185 L360,190 Z" id="Fill-466"></path>
                <path d="M343.465264,218.444387 L347.534736,218.444387 L347.534736,214.555613 L343.465264,214.555613 L343.465264,218.444387 Z M342,220 L349,220 L349,213 L342,213 L342,220 Z" id="Fill-467"></path>
                <path d="M343.465264,209.444387 L347.534736,209.444387 L347.534736,205.555613 L343.465264,205.555613 L343.465264,209.444387 Z M342,211 L349,211 L349,204 L342,204 L342,211 Z" id="Fill-468"></path>
                <path d="M343.465264,200.444387 L347.534736,200.444387 L347.534736,196.555613 L343.465264,196.555613 L343.465264,200.444387 Z M342,202 L349,202 L349,195 L342,195 L342,202 Z" id="Fill-469"></path>
                <path d="M343.465264,181.444387 L347.534736,181.444387 L347.534736,177.555613 L343.465264,177.555613 L343.465264,181.444387 Z M342,183 L349,183 L349,176 L342,176 L342,183 Z" id="Fill-470"></path>
                <path d="M373.464775,172.444387 L377.534736,172.444387 L377.534736,168.555613 L373.464775,168.555613 L373.464775,172.444387 Z M372,174 L379,174 L379,167 L372,167 L372,174 Z" id="Fill-471"></path>
                <path d="M362.465264,172.444387 L366.535225,172.444387 L366.535225,168.555613 L362.465264,168.555613 L362.465264,172.444387 Z M361,174 L368,174 L368,167 L361,167 L361,174 Z" id="Fill-472"></path>
                <path d="M352.465162,172.444387 L356.534838,172.444387 L356.534838,168.555613 L352.465162,168.555613 L352.465162,172.444387 Z M351,174 L358,174 L358,167 L351,167 L351,174 Z" id="Fill-473"></path>
                <path d="M343.465264,172.444387 L347.534736,172.444387 L347.534736,168.555613 L343.465264,168.555613 L343.465264,172.444387 Z M342,174 L349,174 L349,167 L342,167 L342,174 Z" id="Fill-474"></path>
                <path d="M373.464775,163.444387 L377.534736,163.444387 L377.534736,159.555613 L373.464775,159.555613 L373.464775,163.444387 Z M372,165 L379,165 L379,158 L372,158 L372,165 Z" id="Fill-475"></path>
                <path d="M362.465264,163.444387 L366.535225,163.444387 L366.535225,159.555613 L362.465264,159.555613 L362.465264,163.444387 Z M361,165 L368,165 L368,158 L361,158 L361,165 Z" id="Fill-476"></path>
                <path d="M373.464775,153.444387 L377.534736,153.444387 L377.534736,149.555613 L373.464775,149.555613 L373.464775,153.444387 Z M372,155 L379,155 L379,148 L372,148 L372,155 Z" id="Fill-477"></path>
                <path d="M362.465264,153.444387 L366.535225,153.444387 L366.535225,149.555613 L362.465264,149.555613 L362.465264,153.444387 Z M361,155 L368,155 L368,148 L361,148 L361,155 Z" id="Fill-478"></path>
                <path d="M352.465162,153.444387 L356.534838,153.444387 L356.534838,149.555613 L352.465162,149.555613 L352.465162,153.444387 Z M351,155 L358,155 L358,148 L351,148 L351,155 Z" id="Fill-479"></path>
                <path d="M343.465264,153.444387 L347.534736,153.444387 L347.534736,149.555613 L343.465264,149.555613 L343.465264,153.444387 Z M342,155 L349,155 L349,148 L342,148 L342,155 Z" id="Fill-480"></path>
                <path d="M362.465264,143.444387 L366.535225,143.444387 L366.535225,139.555613 L362.465264,139.555613 L362.465264,143.444387 Z M361,145 L368,145 L368,138 L361,138 L361,145 Z" id="Fill-481"></path>
                <path d="M352.465162,143.444387 L356.534838,143.444387 L356.534838,139.555613 L352.465162,139.555613 L352.465162,143.444387 Z M351,145 L358,145 L358,138 L351,138 L351,145 Z" id="Fill-482"></path>
                <path d="M343.465264,143.444387 L347.534736,143.444387 L347.534736,139.555613 L343.465264,139.555613 L343.465264,143.444387 Z M342,145 L349,145 L349,138 L342,138 L342,145 Z" id="Fill-483"></path>
                <path d="M373.464775,135.444387 L377.534736,135.444387 L377.534736,131.555613 L373.464775,131.555613 L373.464775,135.444387 Z M372,137 L379,137 L379,130 L372,130 L372,137 Z" id="Fill-484"></path>
                <path d="M362.465264,135.444387 L366.535225,135.444387 L366.535225,131.555613 L362.465264,131.555613 L362.465264,135.444387 Z M361,137 L368,137 L368,130 L361,130 L361,137 Z" id="Fill-485"></path>
                <path d="M352.465162,135.444387 L356.534838,135.444387 L356.534838,131.555613 L352.465162,131.555613 L352.465162,135.444387 Z M351,137 L358,137 L358,130 L351,130 L351,137 Z" id="Fill-486"></path>
                <path d="M373.464775,125.444387 L377.534736,125.444387 L377.534736,121.555613 L373.464775,121.555613 L373.464775,125.444387 Z M372,127 L379,127 L379,120 L372,120 L372,127 Z" id="Fill-487"></path>
                <path d="M352.465162,125.444387 L356.534838,125.444387 L356.534838,121.555613 L352.465162,121.555613 L352.465162,125.444387 Z M351,127 L358,127 L358,120 L351,120 L351,127 Z" id="Fill-488"></path>
                <path d="M343.465264,125.444387 L347.534736,125.444387 L347.534736,121.555613 L343.465264,121.555613 L343.465264,125.444387 Z M342,127 L349,127 L349,120 L342,120 L342,127 Z" id="Fill-489"></path>
                <path d="M373.464775,117.444387 L377.534736,117.444387 L377.534736,113.555613 L373.464775,113.555613 L373.464775,117.444387 Z M372,119 L379,119 L379,112 L372,112 L372,119 Z" id="Fill-490"></path>
                <path d="M362.465264,117.444387 L366.535225,117.444387 L366.535225,113.555613 L362.465264,113.555613 L362.465264,117.444387 Z M361,119 L368,119 L368,112 L361,112 L361,119 Z" id="Fill-491"></path>
                <path d="M352.465162,117.444387 L356.534838,117.444387 L356.534838,113.555613 L352.465162,113.555613 L352.465162,117.444387 Z M351,119 L358,119 L358,112 L351,112 L351,119 Z" id="Fill-492"></path>
                <path d="M343.465264,117.444387 L347.534736,117.444387 L347.534736,113.555613 L343.465264,113.555613 L343.465264,117.444387 Z M342,119 L349,119 L349,112 L342,112 L342,119 Z" id="Fill-493"></path>
                <path d="M373.464775,107.444387 L377.534736,107.444387 L377.534736,103.555613 L373.464775,103.555613 L373.464775,107.444387 Z M372,109 L379,109 L379,102 L372,102 L372,109 Z" id="Fill-494"></path>
                <path d="M362.465264,107.444387 L366.535225,107.444387 L366.535225,103.555613 L362.465264,103.555613 L362.465264,107.444387 Z M361,109 L368,109 L368,102 L361,102 L361,109 Z" id="Fill-495"></path>
                <path d="M343.465264,107.444387 L347.534736,107.444387 L347.534736,103.555613 L343.465264,103.555613 L343.465264,107.444387 Z M342,109 L349,109 L349,102 L342,102 L342,109 Z" id="Fill-496"></path>
                <path d="M373.464775,97.4443867 L377.534736,97.4443867 L377.534736,93.5556133 L373.464775,93.5556133 L373.464775,97.4443867 Z M372,99 L379,99 L379,92 L372,92 L372,99 Z" id="Fill-497"></path>
                <path d="M362.465264,97.4443867 L366.535225,97.4443867 L366.535225,93.5556133 L362.465264,93.5556133 L362.465264,97.4443867 Z M361,99 L368,99 L368,92 L361,92 L361,99 Z" id="Fill-498"></path>
                <path d="M352.465162,97.4443867 L356.534838,97.4443867 L356.534838,93.5556133 L352.465162,93.5556133 L352.465162,97.4443867 Z M351,99 L358,99 L358,92 L351,92 L351,99 Z" id="Fill-499"></path>
                <path d="M343.465264,97.4443867 L347.534736,97.4443867 L347.534736,93.5556133 L343.465264,93.5556133 L343.465264,97.4443867 Z M342,99 L349,99 L349,92 L342,92 L342,99 Z" id="Fill-500"></path>
                <path d="M373.464775,88.4443867 L377.534736,88.4443867 L377.534736,84.5556133 L373.464775,84.5556133 L373.464775,88.4443867 Z M372,90 L379,90 L379,83 L372,83 L372,90 Z" id="Fill-501"></path>
                <path d="M362.465264,88.4443867 L366.535225,88.4443867 L366.535225,84.5556133 L362.465264,84.5556133 L362.465264,88.4443867 Z M361,90 L368,90 L368,83 L361,83 L361,90 Z" id="Fill-502"></path>
                <path d="M352.465162,88.4443867 L356.534838,88.4443867 L356.534838,84.5556133 L352.465162,84.5556133 L352.465162,88.4443867 Z M351,90 L358,90 L358,83 L351,83 L351,90 Z" id="Fill-503"></path>
                <path d="M373.464775,79.4443867 L377.534736,79.4443867 L377.534736,75.5556133 L373.464775,75.5556133 L373.464775,79.4443867 Z M372,81 L379,81 L379,74 L372,74 L372,81 Z" id="Fill-504"></path>
                <path d="M373.464775,69.4443867 L377.534736,69.4443867 L377.534736,65.5556133 L373.464775,65.5556133 L373.464775,69.4443867 Z M372,71 L379,71 L379,64 L372,64 L372,71 Z" id="Fill-505"></path>
                <path d="M362.465264,69.4443867 L366.535225,69.4443867 L366.535225,65.5556133 L362.465264,65.5556133 L362.465264,69.4443867 Z M361,71 L368,71 L368,64 L361,64 L361,71 Z" id="Fill-506"></path>
                <path d="M352.465162,79.4443867 L356.534838,79.4443867 L356.534838,75.5556133 L352.465162,75.5556133 L352.465162,79.4443867 Z M351,81 L358,81 L358,74 L351,74 L351,81 Z" id="Fill-507"></path>
                <path d="M343.465264,79.4443867 L347.534736,79.4443867 L347.534736,75.5556133 L343.465264,75.5556133 L343.465264,79.4443867 Z M342,81 L349,81 L349,74 L342,74 L342,81 Z" id="Fill-508"></path>
                <polygon id="Fill-509" points="329 218 330 218 330 209 329 209"></polygon>
                <polygon id="Fill-510" points="329 207 330 207 330 198 329 198"></polygon>
                <polygon id="Fill-511" points="329 196 330 196 330 187 329 187"></polygon>
                <polygon id="Fill-512" points="329 185 330 185 330 176 329 176"></polygon>
                <polygon id="Fill-513" points="329 174 330 174 330 165 329 165"></polygon>
                <polygon id="Fill-514" points="329 163 330 163 330 154 329 154"></polygon>
                <polygon id="Fill-515" points="329 151 330 151 330 142 329 142"></polygon>
                <polygon id="Fill-516" points="329 140 330 140 330 131 329 131"></polygon>
                <polygon id="Fill-517" points="326 218 327 218 327 209 326 209"></polygon>
                <polygon id="Fill-518" points="326 207 327 207 327 198 326 198"></polygon>
                <polygon id="Fill-519" points="326 196 327 196 327 187 326 187"></polygon>
                <polygon id="Fill-520" points="326 185 327 185 327 176 326 176"></polygon>
                <polygon id="Fill-521" points="326 174 327 174 327 165 326 165"></polygon>
                <polygon id="Fill-522" points="326 163 327 163 327 154 326 154"></polygon>
                <polygon id="Fill-523" points="326 151 327 151 327 142 326 142"></polygon>
                <polygon id="Fill-524" points="326 140 327 140 327 131 326 131"></polygon>
                <polygon id="Fill-525" points="322 218 323 218 323 209 322 209"></polygon>
                <polygon id="Fill-526" points="322 207 323 207 323 198 322 198"></polygon>
                <polygon id="Fill-527" points="322 196 323 196 323 187 322 187"></polygon>
                <polygon id="Fill-528" points="322 185 323 185 323 176 322 176"></polygon>
                <polygon id="Fill-529" points="322 163 323 163 323 154 322 154"></polygon>
                <polygon id="Fill-530" points="322 140 323 140 323 131 322 131"></polygon>
                <polygon id="Fill-531" points="317 218 318 218 318 209 317 209"></polygon>
                <polygon id="Fill-532" points="317 207 318 207 318 198 317 198"></polygon>
                <polygon id="Fill-533" points="317 185 318 185 318 176 317 176"></polygon>
                <polygon id="Fill-534" points="317 174 318 174 318 165 317 165"></polygon>
                <polygon id="Fill-535" points="317 163 318 163 318 154 317 154"></polygon>
                <polygon id="Fill-536" points="317 151 318 151 318 142 317 142"></polygon>
                <polygon id="Fill-537" points="317 140 318 140 318 131 317 131"></polygon>
                <polygon id="Fill-538" points="313 218 314 218 314 209 313 209"></polygon>
                <polygon id="Fill-539" points="313 207 314 207 314 198 313 198"></polygon>
                <polygon id="Fill-540" points="313 196 314 196 314 187 313 187"></polygon>
                <polygon id="Fill-541" points="313 185 314 185 314 176 313 176"></polygon>
                <polygon id="Fill-542" points="313 174 314 174 314 165 313 165"></polygon>
                <polygon id="Fill-543" points="313 163 314 163 314 154 313 154"></polygon>
                <polygon id="Fill-544" points="313 151 314 151 314 142 313 142"></polygon>
                <polygon id="Fill-545" points="309 207 310 207 310 198 309 198"></polygon>
                <polygon id="Fill-546" points="309 185 310 185 310 176 309 176"></polygon>
                <polygon id="Fill-547" points="309 174 310 174 310 165 309 165"></polygon>
                <polygon id="Fill-548" points="309 151 310 151 310 142 309 142"></polygon>
                <polygon id="Fill-549" points="309 140 310 140 310 131 309 131"></polygon>
                <polygon id="Fill-550" points="305 196 306 196 306 187 305 187"></polygon>
                <polygon id="Fill-551" points="305 185 306 185 306 176 305 176"></polygon>
                <polygon id="Fill-552" points="305 174 306 174 306 165 305 165"></polygon>
                <polygon id="Fill-553" points="305 163 306 163 306 154 305 154"></polygon>
                <polygon id="Fill-554" points="305 151 306 151 306 142 305 142"></polygon>
                <polygon id="Fill-555" points="305 140 306 140 306 131 305 131"></polygon>
                <polygon id="Fill-556" points="305 129 306 129 306 120 305 120"></polygon>
                <path d="M463.124838,215.753375 C463.602324,214.786255 463.878033,213.704762 463.878033,212.558996 C463.878033,210.579715 463.07863,208.716327 461.66209,207.341813 C462.402449,206.294226 462.803434,205.049268 462.803434,203.766355 C462.803434,202.495587 462.415798,201.314395 461.754507,200.325008 C461.752966,200.271869 461.748859,200.219237 461.748859,200.165592 C461.748859,197.050161 464.320605,194.515711 467.48125,194.515711 C470.641895,194.515711 473.214155,197.050161 473.214155,200.165592 C473.214155,201.548204 472.695596,202.882232 471.755001,203.921215 L471.215905,204.516366 L471.846904,205.016373 C473.509375,206.333194 474.462292,208.287677 474.462292,210.380826 C474.462292,213.918328 471.738572,216.838918 468.250361,217.217972 L468.250361,214.285742 L471.69185,210.893485 L470.604415,209.821607 L468.250361,212.142491 L468.250361,207.681393 L466.712653,207.681393 L466.712653,209.235566 L464.061839,206.622672 L462.974405,207.694551 L466.712653,211.378816 L466.712653,217.217466 C465.394177,217.076269 464.158877,216.571201 463.124838,215.753375 Z M457.207614,218.320721 L457.207614,215.963905 L460.138758,213.074692 L459.051323,212.002813 L457.207614,213.820654 L457.207614,210.235074 L455.669906,210.235074 L455.669906,211.318593 L453.57051,209.249736 L452.483589,210.321108 L455.669906,213.461843 L455.669906,218.320721 C452.778809,217.947234 450.537708,215.508938 450.537708,212.558996 C450.537708,210.789232 451.343272,209.136374 452.748003,208.023503 L453.379516,207.523496 L452.84042,206.928345 C452.048205,206.053332 451.611794,204.93034 451.611794,203.766355 C451.611794,201.142328 453.776907,199.008187 456.438503,199.008187 C459.100612,199.008187 461.265726,201.142328 461.265726,203.766355 C461.265726,204.929833 460.829315,206.053332 460.037613,206.928345 L459.498517,207.523496 L460.129516,208.023503 C461.534247,209.136374 462.340325,210.789738 462.340325,212.558996 C462.340325,215.508938 460.099224,217.947234 457.207614,218.320721 Z M468.250361,227 L468.250361,218.73925 C472.587777,218.354122 476,214.754878 476,210.380826 C476,208.079678 475.056325,205.914666 473.386666,204.334683 C474.271298,203.121102 474.75135,201.666627 474.75135,200.165592 C474.75135,196.214117 471.490074,193 467.48125,193 C463.938617,193 460.983856,195.511677 460.343615,198.822455 C459.264395,197.992483 457.911006,197.492476 456.438503,197.492476 C452.928729,197.492476 450.074085,200.306789 450.074085,203.766355 C450.074085,205.049774 450.474557,206.294732 451.215429,207.341813 C449.799403,208.715821 449,210.579209 449,212.558996 C449,216.346501 451.928063,219.471548 455.669906,219.85212 L455.669906,226.863358 L457.207614,226.863358 L457.207614,219.85212 C459.279798,219.641591 461.096809,218.584389 462.31106,217.04388 C463.587948,218.010494 465.101012,218.599065 466.712653,218.740262 L466.712653,227 L468.250361,227 L468.250361,227 Z" id="Fill-557"></path>
                <path d="M470.372725,200 L472,200 C472,199.304826 471.806574,198.613473 471.441456,198 L470,198.664118 C470.247215,199.079312 470.372725,199.528428 470.372725,200" id="Fill-558"></path>
                <path d="M471,197.00111 C469.892534,196.356049 468.471711,196 467,196 L467,197.329634 C467.984265,197.329634 468.935052,197.567592 469.676264,198 L471,197.00111" id="Fill-559"></path>
                <path d="M459.490031,202 L458,202.75027 C458.211177,203.138919 458.317888,203.558919 458.317888,204 L460,204 C460,203.304865 459.823645,202.613514 459.490031,202" id="Fill-560"></path>
                <path d="M457,200 L457,201.41207 C457.460606,201.41207 457.904924,201.620462 458.251136,202 L459,200.938708 C458.44697,200.333805 457.736364,200 457,200" id="Fill-561"></path>
                <path d="M240.080888,215.428758 C240.608555,214.341437 240.91325,213.121554 240.91325,211.827911 C240.91325,209.609941 240.041035,207.522987 238.497886,205.994652 C239.312088,204.823771 239.753492,203.424387 239.753492,201.981159 C239.753492,200.565786 239.335293,199.248931 238.62148,198.149747 C238.619462,198.082692 238.614417,198.016669 238.614417,197.949098 C238.614417,194.417369 241.42427,191.544325 244.877816,191.544325 C248.331866,191.544325 251.141215,194.417369 251.141215,197.949098 C251.141215,199.515603 250.575208,201.027433 249.547619,202.20502 L249.017934,202.812124 L249.637918,203.321225 C251.45045,204.81036 252.489641,207.021107 252.489641,209.38866 C252.489641,213.418659 249.476995,216.742517 245.6335,217.131952 L245.6335,213.730722 L249.371058,209.908594 L248.302608,208.816631 L245.6335,211.54628 L245.6335,206.365517 L244.122636,206.365517 L244.122636,208.290508 L241.1337,205.233837 L240.06525,206.3258 L244.122636,210.474949 L244.122636,217.132983 C242.634474,216.983915 241.239132,216.394348 240.080888,215.428758 Z M233.712057,218.369372 L233.712057,215.609806 L236.898238,212.351454 L235.829788,211.259492 L233.712057,213.425364 L233.712057,209.225665 L232.201193,209.225665 L232.201193,210.622986 L229.807522,208.175999 L228.739576,209.267962 L232.201193,212.807428 L232.201193,218.369372 C229.001896,217.985612 226.510359,215.200255 226.510359,211.827911 C226.510359,209.82297 227.390645,207.950075 228.925218,206.689444 L229.545202,206.179827 L229.016021,205.573238 C228.148347,204.579278 227.670621,203.304204 227.670621,201.981159 C227.670621,199.001344 230.042096,196.576536 232.956373,196.576536 C235.871153,196.576536 238.242629,199.001344 238.242629,201.981159 C238.242629,203.303688 237.764903,204.579278 236.897229,205.573238 L236.367544,206.179827 L236.987528,206.689444 C238.522101,207.950075 239.402387,209.82297 239.402387,211.827911 C239.402387,215.200255 236.910849,217.985612 233.712057,218.369372 Z M245.6335,228 L245.6335,218.676277 C250.310366,218.281685 254,214.270771 254,209.38866 C254,206.809627 252.971907,204.385851 251.154835,202.626434 C252.124915,201.269346 252.652078,199.63527 252.652078,197.949098 C252.652078,193.565256 249.164733,190 244.877816,190 C241.047437,190 237.863273,192.848801 237.227147,196.58221 C236.058813,195.614557 234.573678,195.031695 232.956373,195.031695 C229.20923,195.031695 226.159758,198.149231 226.159758,201.981159 C226.159758,203.424903 226.601162,204.823771 227.414859,205.994652 C225.87171,207.522987 225,209.609941 225,211.827911 C225,216.0534 228.167012,219.534064 232.201193,219.924529 L232.201193,227.847321 L233.712057,227.847321 L233.712057,219.924529 C235.981126,219.704796 237.970219,218.503482 239.281316,216.744581 C240.678675,217.860786 242.346931,218.529788 244.122636,218.677824 L244.122636,228 L245.6335,228 L245.6335,228 Z" id="Fill-562"></path>
                <path d="M249.409031,198 L251,198 C251,197.304943 250.796016,196.613416 250.409296,196 L249,196.612533 C249.271448,197.043689 249.409031,197.510591 249.409031,198" id="Fill-563"></path>
                <path d="M250,193.04116 C248.89363,192.369802 247.473098,192 246,192 L246,193.277458 C247.022263,193.277458 248.008658,193.533803 248.776129,194 L250,193.04116" id="Fill-564"></path>
                <path d="M237.460248,200 L236,200.694521 C236.233287,201.100826 236.352132,201.540155 236.352132,202 L238,202 C238,201.305979 237.81293,200.61396 237.460248,200" id="Fill-565"></path>
                <path d="M234,197 L234,198.360745 C234.480715,198.360745 234.944951,198.587915 235.306802,199 L236,197.977737 C235.446704,197.347115 234.735975,197 234,197" id="Fill-566"></path>
                <path d="M92.1248384,215.753375 C92.6023237,214.786255 92.8785464,213.705268 92.8785464,212.558996 C92.8785464,210.579715 92.0791435,208.716327 90.6626036,207.341813 C91.4029627,206.294732 91.8039477,205.049268 91.8039477,203.766355 C91.8039477,202.495587 91.4163117,201.313889 90.7550202,200.325008 C90.7534799,200.271869 90.7493725,200.219237 90.7493725,200.165592 C90.7493725,197.050161 93.3206055,194.515711 96.4817639,194.515711 C99.6424089,194.515711 102.214155,197.050161 102.214155,200.165592 C102.214155,201.548204 101.696109,202.882232 100.755515,203.921215 L100.216418,204.516366 L100.847418,205.016373 C102.509375,206.332688 103.462292,208.287677 103.462292,210.380826 C103.462292,213.918328 100.739085,216.838918 97.2503613,217.217972 L97.2503613,214.286248 L100.692363,210.893485 L99.6049289,209.821607 L97.2503613,212.142997 L97.2503613,207.681393 L95.7126531,207.681393 L95.7126531,209.235566 L93.0618392,206.622672 L91.9749182,207.694551 L95.7126531,211.378816 L95.7126531,217.217466 C94.3941774,217.076269 93.1588765,216.571707 92.1248384,215.753375 Z M86.2081273,218.320721 L86.2081273,215.963905 L89.1392713,213.074692 L88.0518369,212.002813 L86.2081273,213.820654 L86.2081273,210.235074 L84.6704191,210.235074 L84.6704191,211.318593 L82.5710238,209.249736 L81.4841028,210.321108 L84.6704191,213.461843 L84.6704191,218.320721 C81.7788089,217.947234 79.5377082,215.508938 79.5377082,212.558996 C79.5377082,210.789232 80.3437857,209.136374 81.7485168,208.023503 L82.3795162,207.523496 L81.8409333,206.928345 C81.0482049,206.053332 80.612307,204.93034 80.612307,203.766355 C80.612307,201.142328 82.7774207,199.008187 85.4390165,199.008187 C88.1006123,199.008187 90.2662394,201.142328 90.2662394,203.766355 C90.2662394,204.93034 89.8303415,206.053332 89.0376131,206.928345 L88.4985168,207.523496 L89.1300297,208.023503 C90.5347608,209.136374 91.3408382,210.789232 91.3408382,212.558996 C91.3408382,215.508938 89.0992242,217.947234 86.2081273,218.320721 Z M97.2503613,227 L97.2503613,218.73925 C101.58829,218.354122 105,214.754878 105,210.380826 C105,208.079172 104.056838,205.914666 102.38718,204.334683 C103.271811,203.121102 103.751864,201.666627 103.751864,200.165592 C103.751864,196.214117 100.490587,193 96.4817639,193 C92.9391306,193 89.9843691,195.511677 89.3441279,198.822961 C88.2649083,197.992483 86.9115197,197.492476 85.4390165,197.492476 C81.9297558,197.492476 79.0745988,200.306789 79.0745988,203.766355 C79.0745988,205.049268 79.4755838,206.294732 80.2159428,207.341813 C78.7994029,208.716327 78,210.579715 78,212.558996 C78,216.346501 80.9285769,219.471548 84.6704191,219.85212 L84.6704191,226.863358 L86.2081273,226.863358 L86.2081273,219.85212 C88.2803111,219.641591 90.0973226,218.584389 91.311573,217.04388 C92.5884612,218.011 94.1015251,218.599065 95.7126531,218.740262 L95.7126531,227 L97.2503613,227 L97.2503613,227 Z" id="Fill-567"></path>
                <path d="M101.372826,200 L103,200 C103,199.304348 102.807065,198.612996 102.441848,198 L101,198.664118 C101.247283,199.078834 101.372826,199.52795 101.372826,200" id="Fill-568"></path>
                <path d="M101,197.001776 C99.8925343,196.356128 98.4723803,196 97,196 L97,197.329929 C97.9842651,197.329929 98.9350519,197.56794 99.6755942,198 L101,197.001776" id="Fill-569"></path>
                <path d="M89.4905925,202 L88,202.75027 C88.2111766,203.138919 88.3178882,203.558919 88.3178882,204 L90,204 C90,203.304865 89.823645,202.613514 89.4905925,202" id="Fill-570"></path>
                <path d="M87,200 L87,201.412403 C87.4606061,201.412403 87.9049242,201.620844 88.2507576,202 L89,200.939401 C88.4465909,200.333884 87.7367424,200 87,200" id="Fill-571"></path>
                <path d="M299.028888,212.028542 C298.478463,212.577889 297.521021,212.577889 296.971112,212.028542 C296.695641,211.753611 296.545009,211.388411 296.545009,210.999484 C296.545009,210.611073 296.696157,210.245873 296.971112,209.970942 C297.246067,209.696527 297.611297,209.544876 297.999742,209.544876 C298.388703,209.544876 298.753418,209.696527 299.028888,209.970942 C299.303327,210.245873 299.455507,210.611073 299.455507,210.999484 C299.455507,211.388411 299.303843,211.753611 299.028888,212.028542 Z M297.999742,208 C297.198607,208 296.445448,208.31207 295.878514,208.878439 C295.311581,209.445323 295,210.198934 295,210.999484 C295,211.801066 295.311581,212.554677 295.878514,213.121045 C296.445448,213.687414 297.198607,214 297.999742,214 C298.800877,214 299.554552,213.687414 300.12097,213.121045 C300.687903,212.554677 301,211.801066 301,210.999484 C301,210.198934 300.687903,209.445323 300.12097,208.878439 C299.554552,208.31207 298.800877,208 297.999742,208 L297.999742,208 Z" id="Fill-572"></path>
                <path d="M307,228 L307,219.907566 C307,218.91414 306.345474,218.074027 305.437326,217.753934 L305.437326,205.835412 C305.437326,203.720626 303.671009,202 301.500066,202 C299.329124,202 297.562807,203.720626 297.562807,205.835412 L297.562807,206.008925 C296.62382,206.163791 295.723116,206.589027 295,207.293956 L296.125615,208.390454 C297.35757,207.190884 299.360494,207.190884 300.591918,208.390454 L301.717533,207.293956 C300.994949,206.589027 300.094244,206.163791 299.155257,206.008925 L299.155257,205.835412 C299.155257,204.57576 300.206965,203.551257 301.500066,203.551257 C302.793168,203.551257 303.844876,204.57576 303.844876,205.835412 L303.844876,217.753934 C302.936727,218.073509 302.282201,218.91414 302.282201,219.907566 L302.282201,228 L303.874651,228 L303.874651,219.907566 C303.874651,219.495797 304.218131,219.160684 304.641366,219.160684 C305.063538,219.160684 305.40755,219.495797 305.40755,219.907566 L305.40755,228 L307,228" id="Fill-573"></path>
                <path d="M429.028542,212.028542 C428.47868,212.577889 427.52132,212.577889 426.970942,212.028542 C426.696011,211.753611 426.544876,211.388411 426.544876,210.999484 C426.544876,210.611073 426.696527,210.245873 426.970942,209.970942 C427.245873,209.696527 427.611073,209.544876 427.999484,209.544876 C428.388411,209.544876 428.753611,209.696527 429.028542,209.970942 C429.302957,210.245873 429.455124,210.611073 429.455124,210.999484 C429.455124,211.388411 429.303473,211.753611 429.028542,212.028542 Z M427.999484,208 C427.198934,208 426.445323,208.31207 425.878439,208.878439 C425.31207,209.445323 425,210.198934 425,210.999484 C425,211.801066 425.31207,212.554677 425.878439,213.121045 C426.445323,213.687414 427.198934,214 427.999484,214 C428.80055,214 429.554161,213.687414 430.121045,213.121045 C430.687414,212.554677 431,211.801066 431,210.999484 C431,210.198934 430.687414,209.445323 430.121045,208.878439 C429.554161,208.31207 428.80055,208 427.999484,208 L427.999484,208 Z" id="Fill-574"></path>
                <path d="M436,228 L436,219.907566 C436,218.91414 435.345474,218.074027 434.437326,217.753934 L434.437326,205.835412 C434.437326,203.720626 432.671009,202 430.500066,202 C428.329124,202 426.562807,203.720626 426.562807,205.835412 L426.562807,206.008925 C425.62382,206.163791 424.723116,206.589027 424,207.293956 L425.126146,208.390454 C426.35757,207.190884 428.360494,207.190884 429.591918,208.390454 L430.718065,207.293956 C429.994949,206.589027 429.094244,206.163791 428.155257,206.008925 L428.155257,205.835412 C428.155257,204.57576 429.206965,203.551257 430.500066,203.551257 C431.793699,203.551257 432.845407,204.57576 432.845407,205.835412 L432.845407,217.753934 C431.937259,218.073509 431.282201,218.91414 431.282201,219.907566 L431.282201,228 L432.874651,228 L432.874651,219.907566 C432.874651,219.495797 433.218663,219.160684 433.641366,219.160684 C434.06407,219.160684 434.40755,219.495797 434.40755,219.907566 L434.40755,228 L436,228" id="Fill-575"></path>
                <path d="M408.76099,68.5776077 L412.668626,68.5776077 C413.089026,68.5776077 413.430125,68.2198291 413.430125,67.7776789 C413.430125,65.4232823 415.253553,63.507298 417.495856,63.507298 C418.45815,63.507298 419.392485,63.8666785 420.125008,64.5202919 C420.445773,64.8054468 420.927174,64.7632609 421.198121,64.4273763 C421.470085,64.0904236 421.430434,63.5863297 421.110686,63.3001068 C420.614035,62.8579566 420.049773,62.5145959 419.447895,62.2791029 C420.492541,58.3729085 423.923859,55.5993236 427.83912,55.5993236 C431.352282,55.5993236 434.506553,57.7951228 435.874505,61.1945532 C436.0387,61.6009256 436.484009,61.7920968 436.872384,61.6190815 C437.259741,61.4471342 437.440712,60.9782841 437.277025,60.5713777 C437.100122,60.1318975 436.893734,59.7127091 436.66803,59.3090068 C436.978119,59.258811 437.292275,59.2331791 437.608465,59.2331791 C440.972174,59.2331791 443.708587,62.1076896 443.708587,65.6411534 C443.708587,66.0827697 444.049685,66.4405482 444.470085,66.4405482 C444.889977,66.4405482 445.231075,66.0827697 445.231075,65.6411534 C445.231075,65.2748309 445.199558,64.9170523 445.153807,64.5640797 L445.164991,64.5635457 C447.074329,64.5635457 448.627318,66.1949092 448.627318,68.2006052 C448.627318,68.6422214 448.968416,69 449.388308,69 L453.238501,69 C453.658902,69 454,68.6422214 454,68.2006052 C454,67.758455 453.658902,67.4006764 453.238501,67.4006764 L450.091855,67.4006764 C449.723815,64.8914204 447.654857,62.9642221 445.164991,62.9642221 C445.039938,62.9642221 444.914886,62.9738341 444.790341,62.9839801 C443.744171,59.8729085 440.923881,57.6338555 437.608465,57.6338555 C436.968969,57.6338555 436.337606,57.7214311 435.723527,57.8859025 C433.810123,55.4615522 430.944591,54 427.83912,54 C423.213195,54 419.164239,57.2979708 417.963024,61.9293343 C417.807979,61.9159843 417.651917,61.9079744 417.495856,61.9079744 C414.672516,61.9079744 412.332103,64.1187255 411.958979,66.9782841 L408.76099,66.9782841 C408.341098,66.9782841 408,67.3360627 408,67.7776789 C408,68.2198291 408.341098,68.5776077 408.76099,68.5776077" id="Fill-576"></path>
                <path d="M172.302658,47.8810116 C169.53897,47.8810116 167.246231,50.0825342 166.872136,52.9351804 L163.76715,52.9351804 C163.343347,52.9351804 163,53.3030159 163,53.7570456 C163,54.2110753 163.343347,54.5789108 163.76715,54.5789108 L167.585991,54.5789108 C168.009794,54.5789108 168.353141,54.2110753 168.353141,53.7570456 C168.353141,51.4237611 170.12471,49.525291 172.302658,49.525291 C173.238407,49.525291 174.145458,49.8815972 174.857263,50.5288778 C175.179087,50.8220482 175.663873,50.7808726 175.938551,50.4344484 C176.212716,50.0885733 176.173257,49.5692116 175.850408,49.2754923 C175.368697,48.8373838 174.821904,48.4969988 174.238213,48.2614743 C175.26313,44.390418 178.602309,41.6442793 182.411413,41.6442793 C185.834635,41.6442793 188.908874,43.8271356 190.24229,47.2051826 C190.407302,47.6235268 190.85724,47.8195227 191.247734,47.6416441 C191.638227,47.4648635 191.820662,46.9828343 191.655651,46.5644902 C191.487052,46.1373618 191.290268,45.7294488 191.07606,45.336359 C191.366624,45.2896933 191.661288,45.2655369 191.958001,45.2655369 C195.232098,45.2655369 197.895857,48.1198302 197.895857,51.6268941 C197.895857,52.0814728 198.239204,52.4493082 198.663007,52.4493082 C199.08681,52.4493082 199.43067,52.0814728 199.43067,51.6268941 C199.43067,51.2711368 199.400947,50.9230657 199.358926,50.5788376 C201.203776,50.5887197 202.702717,52.1989605 202.702717,54.1781348 C202.702717,54.6321646 203.046064,55 203.469867,55 L207.232337,55 C207.656653,55 208,54.6321646 208,54.1781348 C208,53.7241051 207.656653,53.3557207 207.232337,53.3557207 L204.177573,53.3557207 C203.80809,50.8533416 201.780804,48.9340092 199.342527,48.9340092 C199.225687,48.9340092 199.108846,48.9438914 198.992518,48.9526755 C197.961964,45.8518776 195.201863,43.6218066 191.958001,43.6218066 C191.335877,43.6218066 190.721439,43.7074519 190.124425,43.8688603 C188.250364,41.4548715 185.447217,40 182.411413,40 C177.886405,40 173.924589,43.2852646 172.741322,47.9018739 C172.595784,47.8892468 172.449734,47.8810116 172.302658,47.8810116" id="Fill-577"></path>
                <path d="M443.784376,29.6393919 L447.336336,29.6393919 C447.769131,29.6393919 448.120712,29.2927528 448.120712,28.864369 C448.120712,26.9024953 449.737144,25.3064035 451.724544,25.3064035 C452.577559,25.3064035 453.4049,25.6059617 454.054093,26.1502368 C454.384715,26.4280654 454.879338,26.3866757 455.160184,26.0607315 C455.440505,25.7347873 455.40016,25.245871 455.069538,24.9690771 C454.631503,24.6017431 454.135832,24.3156366 453.607675,24.1117921 C454.572295,20.8544195 457.636967,18.5495284 461.126575,18.5495284 C464.282417,18.5495284 467.116545,20.4043061 468.345767,23.2746846 C468.514484,23.6684045 468.975049,23.854141 469.374311,23.6859951 C469.773572,23.5194014 469.960104,23.065149 469.791387,22.6709118 C469.647821,22.3351375 469.480152,22.014367 469.300956,21.7023918 C469.53412,21.6729017 469.76938,21.6547936 470.007261,21.6547936 C473.013773,21.6547936 475.459642,24.069885 475.459642,27.0385641 C475.459642,27.4664305 475.810699,27.8130696 476.244018,27.8130696 C476.677337,27.8130696 477.028394,27.4664305 477.028394,27.0385641 C477.028394,26.7591833 477.006911,26.4849763 476.974426,26.2143909 C478.612865,26.2656107 479.931161,27.5947387 479.931161,29.2254945 C479.931161,29.6533609 480.282218,30 480.715537,30 L484.215624,30 C484.648943,30 485,29.6533609 485,29.2254945 C485,28.797628 484.648943,28.450989 484.215624,28.450989 L481.433893,28.450989 C481.059782,26.300792 479.158836,24.6596888 476.876444,24.6596888 C476.783702,24.6596888 476.691484,24.6684841 476.598742,24.6736578 C475.616832,22.0133323 473.036827,20.1052653 470.007261,20.1052653 C469.437711,20.1052653 468.874448,20.1751104 468.32638,20.308075 C466.569525,18.2432443 463.956511,17 461.126575,17 C456.904988,17 453.204746,19.8124328 452.077697,23.7723962 C451.959804,23.7646357 451.842436,23.7568751 451.724544,23.7568751 C449.138776,23.7568751 446.989995,25.6401083 446.610644,28.0898635 L443.784376,28.0898635 C443.351057,28.0898635 443,28.4365026 443,28.864369 C443,29.2927528 443.351057,29.6393919 443.784376,29.6393919" id="Fill-578"></path>
                <path d="M118.770055,25.5108346 L123.642439,25.5108346 C124.067846,25.5108346 124.413008,25.1750346 124.413008,24.7605472 C124.413008,21.9408296 126.767411,19.6468646 129.661417,19.6468646 C130.904205,19.6468646 132.109441,20.0773903 133.05542,20.8597541 C133.38052,21.1283941 133.866112,21.089301 134.141315,20.7730476 C134.416519,20.4572953 134.376395,19.983667 134.052324,19.7155282 C133.408297,19.1827589 132.669621,18.7797989 131.882076,18.5141661 C133.150583,13.8385271 137.539433,10.5010761 142.558935,10.5010761 C147.011055,10.5010761 151.008447,13.0827265 152.742999,17.0782452 C152.908636,17.4601551 153.360278,17.6395825 153.752764,17.4771957 C154.144221,17.3158112 154.327861,16.8752617 154.161711,16.4933518 C153.911199,15.9154751 153.617477,15.3641617 153.287747,14.8409151 C153.764595,14.7532062 154.249673,14.703588 154.739895,14.703588 C159.032552,14.703588 162.525318,18.1066954 162.525318,22.2891595 C162.525318,22.7036469 162.869965,23.0394469 163.295373,23.0394469 C163.720781,23.0394469 164.065428,22.7036469 164.065428,22.2891595 C164.065428,21.8085144 164.016046,21.339898 163.941458,20.8793007 C164.015531,20.8757923 164.088576,20.8687756 164.162135,20.8687756 C166.641536,20.8687756 168.658493,22.8339574 168.658493,25.2492114 C168.658493,25.6642 169.003141,26 169.428548,26 L174.229431,26 C174.654839,26 175,25.6642 175,25.2492114 C175,24.8347239 174.654839,24.4989239 174.229431,24.4989239 L170.15025,24.4989239 C169.770623,21.608538 167.230008,19.3676995 164.162135,19.3676995 C163.96512,19.3676995 163.76862,19.3777234 163.572634,19.3962676 C162.328818,15.8017041 158.843253,13.2030131 154.739895,13.2030131 C153.917886,13.2030131 153.107193,13.3132757 152.320678,13.5182641 C149.968847,10.7030573 146.415381,9 142.558935,9 C136.820303,9 131.804917,12.8301247 130.379004,18.1868864 C130.141351,18.1623279 129.902156,18.1457885 129.661417,18.1457885 C126.178424,18.1457885 123.299335,20.714909 122.915593,24.0102597 L118.770055,24.0102597 C118.344647,24.0102597 118,24.3460597 118,24.7605472 C118,25.1750346 118.344647,25.5108346 118.770055,25.5108346" id="Fill-579"></path>
                <path d="M39.767272,83.6361224 L43.4980489,83.6361224 C43.9224318,83.6361224 44.2658334,83.3106245 44.2658334,82.9083673 C44.2658334,80.9009679 45.988992,79.2676483 48.1068063,79.2676483 C49.0165644,79.2676483 49.8986453,79.5741993 50.5905739,80.1314324 C50.9144991,80.3918308 51.3983366,80.353937 51.6725453,80.0473859 C51.9467541,79.7413207 51.9072885,79.2822228 51.583876,79.0223103 C51.1159272,78.6453156 50.584936,78.3528532 50.0185796,78.1483239 C51.0226449,74.8170709 54.2747097,72.4550245 57.9824222,72.4550245 C61.3200811,72.4550245 64.3163885,74.3375687 65.6172143,77.2515042 C65.7822521,77.6216974 66.232262,77.7956202 66.6228173,77.6382152 C67.0128601,77.4817818 67.1958368,77.0547479 67.0302864,76.6845547 C66.8688364,76.3226204 66.6807343,75.9776897 66.4767435,75.6434471 C66.7514648,75.6060391 67.0292614,75.5856347 67.3096206,75.5856347 C70.4986429,75.5856347 73.0931192,78.0448447 73.0931192,81.0676034 C73.0931192,81.4693748 73.4365208,81.7948728 73.8603912,81.7948728 C74.2842615,81.7948728 74.6281757,81.4693748 74.6281757,81.0676034 C74.6281757,80.7659105 74.6004986,80.4710191 74.561033,80.1795284 C76.3441588,80.1984753 77.7895209,81.5777122 77.7895209,83.2727307 C77.7895209,83.674502 78.1329225,84 78.5567929,84 L82.232728,84 C82.6565984,84 83,83.674502 83,83.2727307 C83,82.8704735 82.6565984,82.5449755 82.232728,82.5449755 L79.2630727,82.5449755 C78.8945566,80.380657 76.9100027,78.7225606 74.5241301,78.7225606 C74.4139341,78.7225606 74.3042506,78.7313054 74.1945671,78.7385926 C73.1817885,76.0573639 70.4822417,74.1306103 67.3096206,74.1306103 C66.7043112,74.1306103 66.1066898,74.2039688 65.5249572,74.3424268 C63.6905774,72.256325 60.9500274,71 57.9824222,71 C53.5586916,71 49.6838911,73.8391195 48.521451,77.8301132 C48.3840903,77.8199111 48.2457046,77.8126238 48.1068063,77.8126238 C45.4031591,77.8126238 43.1587475,79.7146007 42.7856186,82.1810979 L39.767272,82.1810979 C39.3434016,82.1810979 39,82.5065959 39,82.9083673 C39,83.3106245 39.3434016,83.6361224 39.767272,83.6361224" id="Fill-580"></path>
                <path d="M273.776479,17.4795773 L278.999685,17.4795773 C279.428642,17.4795773 279.776164,17.1433351 279.776164,16.7283018 C279.776164,13.7006162 282.321894,11.2375164 285.450631,11.2375164 C286.794556,11.2375164 288.098024,11.7002258 289.12088,12.5398277 C289.448692,12.8083196 289.937817,12.769175 290.215834,12.4535088 C290.493334,12.1368389 290.453394,11.6625868 290.126101,11.3940949 C289.428982,10.8214794 288.627606,10.3918923 287.772805,10.1113558 C289.122436,5.09080771 293.857556,1.50305295 299.27579,1.50305295 C304.067965,1.50305295 308.370498,4.26224663 310.236744,8.53302479 C310.403762,8.91493573 310.858653,9.09459949 311.254932,8.93199877 C311.650173,8.77090362 311.834827,8.32977389 311.667809,7.94736108 C311.39031,7.31251568 311.062498,6.70928709 310.694747,6.13616974 C311.231591,6.03379151 311.778809,5.97607829 312.332251,5.97607829 C316.96052,5.97607829 320.726208,9.61953885 320.726208,14.0975827 C320.726208,14.5126161 321.074249,14.8488583 321.503206,14.8488583 C321.931643,14.8488583 322.279684,14.5126161 322.279684,14.0975827 C322.279684,13.570636 322.224185,13.0567374 322.139119,12.552374 C322.236633,12.5468537 322.334147,12.5383221 322.432179,12.5383221 C325.116399,12.5383221 327.300602,14.6511278 327.300602,17.2487245 C327.300602,17.6637578 327.648124,18 328.077081,18 L333.223521,18 C333.651959,18 334,17.6637578 334,17.2487245 C334,16.8336911 333.651959,16.4969471 333.223521,16.4969471 L328.807396,16.4969471 C328.422528,13.4240946 325.710299,11.0352692 322.432179,11.0352692 C322.209661,11.0352692 321.987662,11.0468118 321.767219,11.0688934 C320.451303,7.24275797 316.72296,4.4735272 312.332251,4.4735272 C311.444772,4.4735272 310.569224,4.59296847 309.720647,4.81579167 C307.209151,1.81570803 303.40508,0 299.27579,0 C293.132427,0 287.765544,4.08107731 286.257194,9.78364513 C285.990068,9.7545376 285.721906,9.73496529 285.450631,9.73496529 C281.727475,9.73496529 278.652682,12.4720774 278.264183,15.9770262 L273.776479,15.9770262 C273.348041,15.9770262 273,16.3132685 273,16.7283018 C273,17.1433351 273.348041,17.4795773 273.776479,17.4795773" id="Fill-581"></path>
                <polyline id="Fill-582" points="219 105 235.356087 96.5194561 253 96.5194561 253 95 234.988643 95 219 103.290295 219 105"></polyline>
                <polyline id="Fill-583" points="253 100 234.335428 100 225 104.392082 225 106 234.716199 101.428571 253 101.428571 253 100"></polyline>
                <polyline id="Fill-584" points="253 78.5193791 253 77 234.988643 77 219 85.2898742 219 87 235.356087 78.5193791 253 78.5193791"></polyline>
                <polyline id="Fill-585" points="219 93 235.356087 84.5193791 253 84.5193791 253 83 234.988643 83 219 91.2898742 219 93"></polyline>
                <polyline id="Fill-586" points="219 99 235.356087 90.5193791 253 90.5193791 253 89 234.988643 89 219 97.2898742 219 99"></polyline>
            </g>
        </g>
    </g>
</svg>