<?xml version="1.0" encoding="UTF-8"?>
<svg width="233px" height="187px" viewBox="0 0 233 187" version="1.1" xmlns="http://www.w3.org/2000/svg" xmlns:xlink="http://www.w3.org/1999/xlink">
    <title>4370584</title>
    <g id="Page-1" stroke="none" stroke-width="1" fill="none" fill-rule="evenodd">
        <g id="Welcome" transform="translate(-71.000000, -110.000000)">
            <g id="4370584" transform="translate(71.000000, 110.000000)">
                <path d="M111.5,181 C173.080101,181 223,182.342691 223,184 C223,185.65678 173.080101,187 111.5,187 C49.9204977,187 0,185.65678 0,184 C0,182.342691 49.9204977,181 111.5,181" id="Fill-4" fill="#DCE5FD"></path>
                <polyline id="Fill-5" fill="#DCE5FD" points="18 182 211 182 211 98.858651 187.471879 98.858651 187.471879 117.337941 173.13548 117.337941 173.13548 71 142.990057 71 142.990057 85.364524 119.463125 85.364524 119.463125 92.7486302 86.7450664 92.7486302 86.7450664 102.776032 57.7032205 102.776032 57.7032205 75.3525798 28.6613746 75.3525798 28.6613746 116.270159 18 116.270159 18 182"></polyline>
                <path d="M197.192182,109 L200.807818,109 L200.807818,103 L197.192182,103 L197.192182,109 Z M203.383741,109 L207,109 L207,103 L203.383741,103 L203.383741,109 Z M191,109 L194.616882,109 L194.616882,103 L191,103 L191,109 Z" id="Fill-6" fill="#FDFBFB"></path>
                <path d="M197.192182,117 L200.807818,117 L200.807818,111 L197.192182,111 L197.192182,117 Z M203.383741,117 L207,117 L207,111 L203.383741,111 L203.383741,117 Z M191,117 L194.616882,117 L194.616882,111 L191,111 L191,117 Z" id="Fill-7" fill="#FDFBFB"></path>
                <path d="M39.352836,89 L43.6477497,89 L43.6477497,83 L39.352836,83 L39.352836,89 Z M46.7050863,89 L51,89 L51,83 L46.7050863,83 L46.7050863,89 Z M32,89 L36.2949137,89 L36.2949137,83 L32,83 L32,89 Z" id="Fill-8" fill="#FDFBFB"></path>
                <path d="M39.352836,99 L43.6477497,99 L43.6477497,93 L39.352836,93 L39.352836,99 Z M46.7050863,99 L51,99 L51,93 L46.7050863,93 L46.7050863,99 Z M32,99 L36.2949137,99 L36.2949137,93 L32,93 L32,99 Z" id="Fill-9" fill="#FDFBFB"></path>
                <polygon id="Fill-10" fill="#DCE5FD" points="186 99 213 99 213 96 186 96"></polygon>
                <polygon id="Fill-11" fill="#DCE5FD" points="26 75 59 75 59 72 26 72"></polygon>
                <path d="M179.030715,130 L181.968687,130 L181.968687,124 L179.030715,124 L179.030715,130 Z M184.061431,130 L187,130 L187,124 L184.061431,124 L184.061431,130 Z M174,130 L176.937971,130 L176.937971,124 L174,124 L174,130 Z" id="Fill-12" fill="#FDFBFB"></path>
                <path d="M179.030715,137 L181.968687,137 L181.968687,131 L179.030715,131 L179.030715,137 Z M184.061431,137 L187,137 L187,131 L184.061431,131 L184.061431,137 Z M174,137 L176.937971,137 L176.937971,131 L174,131 L174,137 Z" id="Fill-13" fill="#AED2F1"></path>
                <path d="M179.030715,137 L181.968687,137 L181.968687,131 L179.030715,131 L179.030715,137 Z M184.061431,137 L187,137 L187,131 L184.061431,131 L184.061431,137 Z M174,137 L176.937971,137 L176.937971,131 L174,131 L174,137 Z" id="Fill-14" fill="#FDFBFB"></path>
                <path d="M179.030715,144 L181.968687,144 L181.968687,138 L179.030715,138 L179.030715,144 Z M184.061431,144 L187,144 L187,138 L184.061431,138 L184.061431,144 Z M174,144 L176.937971,144 L176.937971,138 L174,138 L174,144 Z" id="Fill-15" fill="#FDFBFB"></path>
                <path d="M46.6863329,48.6255014 C45.5917933,48.6255014 44.5749619,48.9600366 43.7292087,49.5340476 C42.0931221,45.1326867 37.893271,42 32.9699515,42 C28.3140923,42 24.3045959,44.800589 22.4992382,48.8278068 C21.7239644,48.3805413 20.8270083,48.1252222 19.871018,48.1252222 C18.8788845,48.1252222 17.9500018,48.40065 17.1554516,48.8802112 C15.9476631,47.2818768 14.0435137,46.2502412 11.9008185,46.2502412 C8.85092661,46.2502412 6.2841501,48.3391053 5.52092413,51.1793023 C5.17635803,51.0635251 4.80829878,51.0001523 4.42457744,51.0001523 C2.68186811,51.0001523 1.23975054,52.304169 1,54 L52,54 C52,51.0318387 49.6211686,48.6255014 46.6863329,48.6255014" id="Fill-16" fill="#DCE5FD"></path>
                <path d="M149,13.0002956 C149,20.179925 143.179925,26 136.000296,26 C128.820666,26 123,20.179925 123,13.0002956 C123,5.82007503 128.820666,0 136.000296,0 C143.179925,0 149,5.82007503 149,13.0002956" id="Fill-17" fill="#FFD43B"></path>
                <path d="M163.685793,21.6248921 C162.591869,21.6248921 161.574447,21.9600366 160.729306,22.5340476 C159.092637,18.1320774 154.893438,15 149.970176,15 C145.31377,15 141.304923,17.800589 139.498984,21.8278068 C138.724322,21.3805413 137.826774,21.1252222 136.871398,21.1252222 C135.878673,21.1252222 134.950404,21.40065 134.155863,21.8802112 C132.947487,20.2812675 131.04336,19.2502412 128.90069,19.2502412 C125.851436,19.2502412 123.28469,21.3391053 122.520871,24.1793023 C122.176911,24.0635251 121.808254,24.0001523 121.425139,24.0001523 C119.681848,24.0001523 118.24035,25.304169 118,27 L169,27 C169,24.0318387 166.620594,21.6248921 163.685793,21.6248921" id="Fill-18" fill="#DCE5FD"></path>
                <path d="M227.68627,81.625165 C226.591718,81.625165 225.574874,81.9602925 224.729111,82.5342744 C223.093608,78.1325277 218.893707,75 213.969727,75 C209.313813,75 205.304269,77.8010562 203.49889,81.8274601 C202.723607,81.3808266 201.82664,81.1255205 200.871241,81.1255205 C199.879096,81.1255205 198.950202,81.4009343 198.15504,81.8798619 C196.947237,80.2816086 195.043065,79.2500254 192.900947,79.2500254 C189.850417,79.2500254 187.28361,81.3393927 186.520375,84.1794455 C186.175805,84.0630649 185.807139,83.9996953 185.424015,83.9996953 C183.681286,83.9996953 182.239753,85.3036458 182,87 L233,87 C233,84.0319894 230.621141,81.625165 227.68627,81.625165" id="Fill-19" fill="#DCE5FD"></path>
                <path d="M74.1723292,182 L160.827671,182 C163.672,182 166,179.696603 166,176.881736 L166,51.1176674 C166,48.3033974 163.672,46 160.827671,46 L86.285882,46 L69,61.8573176 L69,176.881736 C69,179.696006 71.3273975,182 74.1723292,182" id="Fill-20" fill="#DCE5FD"></path>
                <path d="M166,168.864904 L166,50.134498 C166,47.3109726 163.672,45 160.827068,45 L86.2852795,45 L69,60.9094677 L69,168.864904 C69,171.689027 71.3273975,174 74.1723292,174 L160.827068,174 C163.672,174 166,171.689625 166,168.864904" id="Fill-21" fill="#FDFBFB"></path>
                <polygon id="Fill-22" fill="#4658AE" points="82 77 153 77 153 76 82 76"></polygon>
                <path d="M159.629096,184 L73.3709041,184 C71.617901,184 70.0244253,183.284699 68.8705498,182.133035 C67.7160745,180.981371 67,179.390949 67,177.641305 L67,61.6129353 L84.9534393,45 L159.629096,45 C161.382699,45 162.975575,45.7147022 164.13005,46.866965 C165.283326,48.0186291 166,49.6084524 166,51.3580961 L166,177.641305 C166,179.390949 165.283326,180.981371 164.13005,182.133035 C162.975575,183.284699 161.382699,184 159.629096,184 M73.3709041,181.560794 L159.629096,181.560794 C160.707406,181.560794 161.689159,181.119044 162.401636,180.408532 C163.113512,179.697421 163.556711,178.717549 163.556711,177.641305 L163.556711,51.3580961 C163.556711,50.2824513 163.113512,49.3025791 162.401636,48.5914683 C161.689159,47.8803576 160.707406,47.4392056 159.629096,47.4392056 L85.9040073,47.4392056 L69.4438891,62.6706227 L69.4438891,177.641305 C69.4438891,178.717549 69.8858882,179.696822 70.5983644,180.408532 C71.3108405,181.119044 72.2925943,181.560794 73.3709041,181.560794" id="Fill-23" fill="#0500AF"></path>
                <path d="M67.4180156,61.7011975 L86.1864464,44 L88,44 L88,55.284379 C88,57.6823245 87.036568,59.8616777 85.4842741,61.4407979 C83.9325673,63.0199182 81.7896503,64 79.4324415,64 L67,64 L67,62.0953803 L67.4180156,61.7011975 Z M85.3885767,48.3676651 L71.6310492,61.3428495 L79.4324415,61.3428495 C81.0686908,61.3428495 82.5581649,60.6607937 83.6378428,59.5624571 C84.7175208,58.4635232 85.3885767,56.9489055 85.3885767,55.284379 L85.3885767,48.3676651 L85.3885767,48.3676651 Z" id="Fill-24" fill="#DCE5FD"></path>
                <path d="M158,47.4257936 L86.6463304,47.4257936 L70.410577,62.5734611 L70.410577,176 L68,176 L68,61.5215894 L85.7081279,45 L157.991127,45 C157.997042,45.0994129 158,45.2000164 158,45.3012151 L158,47.4257936" id="Fill-25" fill="#0500AF"></path>
                <path d="M86,46 L69,62 L79.2863864,62 C82.9782518,62 86,58.9330476 86,55.1846171 L86,46" id="Fill-26" fill="#FDFBFB"></path>
                <path d="M67.3786547,59.9309535 L84.3589697,44 L86,44 L86,54.1562836 C86,56.3139364 85.1284563,58.2761858 83.7240127,59.6968215 C82.3195691,61.118044 80.3810657,62 78.2483062,62 L67,62 L67,60.2859658 L67.3786547,59.9309535 Z M83.6370323,47.9309535 L71.1901361,59.608802 L78.2483062,59.608802 C79.7287127,59.608802 81.0757493,58.9950122 82.0528292,58.0062592 C83.0299091,57.0175061 83.6370323,55.6537897 83.6370323,54.1562836 L83.6370323,47.9309535 L83.6370323,47.9309535 Z" id="Fill-27" fill="#4658AE"></path>
                <path d="M93.9311143,86 L153.069486,86 C153.581299,86 154,86.4496774 154,87 C154,87.5503226 153.581299,88 153.069486,88 L93.9311143,88 C93.4187011,88 93,87.5503226 93,87 C93,86.4496774 93.4187011,86 93.9311143,86" id="Fill-28" fill="#AFBDEB"></path>
                <path d="M80.9347394,94 L153.065864,94 C153.579669,94 154,94.4496774 154,95 C154,95.5496774 153.579669,96 153.065864,96 L80.9347394,96 C80.4209343,96 80,95.5496774 80,95 C80,94.4496774 80.4209343,94 80.9347394,94" id="Fill-29" fill="#AFBDEB"></path>
                <path d="M80.9347394,101 L153.065864,101 C153.579669,101 154,101.449677 154,102 C154,102.549677 153.579669,103 153.065864,103 L80.9347394,103 C80.4209343,103 80,102.549677 80,102 C80,101.449677 80.4209343,101 80.9347394,101" id="Fill-30" fill="#AFBDEB"></path>
                <path d="M80.9347394,110 L153.065864,110 C153.579669,110 154,110.449823 154,110.999677 C154,111.550177 153.579669,112 153.065864,112 L80.9347394,112 C80.4209343,112 80,111.550177 80,110.999677 C80,110.449823 80.4209343,110 80.9347394,110" id="Fill-31" fill="#AFBDEB"></path>
                <path d="M80.9347394,118 L153.065864,118 C153.579669,118 154,118.449677 154,119.000645 C154,119.550323 153.579669,120 153.065864,120 L80.9347394,120 C80.4209343,120 80,119.550323 80,119.000645 C80,118.449677 80.4209343,118 80.9347394,118" id="Fill-32" fill="#AFBDEB"></path>
                <path d="M81.9339045,126 L153.066698,126 C153.580044,126 154,126.449823 154,127.000323 C154,127.550823 153.580044,128 153.066698,128 L81.9339045,128 C81.4199558,128 81,127.550823 81,127.000323 C81,126.449823 81.4199558,126 81.9339045,126" id="Fill-33" fill="#AFBDEB"></path>
                <path d="M80.9347394,133 L153.065864,133 C153.579669,133 154,133.449823 154,134.000323 C154,134.550177 153.579669,135 153.065864,135 L80.9347394,135 C80.4209343,135 80,134.550177 80,134.000323 C80,133.449823 80.4209343,133 80.9347394,133" id="Fill-34" fill="#AFBDEB"></path>
                <path d="M80.9347394,142 L153.065864,142 C153.579669,142 154,142.450323 154,143 L154,143.000645 C154,143.549677 153.579669,144 153.065864,144 L80.9347394,144 C80.4209343,144 80,143.549677 80,143.000645 L80,143 C80,142.450323 80.4209343,142 80.9347394,142" id="Fill-35" fill="#AFBDEB"></path>
                <path d="M80.9347394,150 L153.065864,150 C153.579669,150 154,150.449677 154,151 C154,151.550323 153.579669,152 153.065864,152 L80.9347394,152 C80.4209343,152 80,151.550323 80,151 C80,150.449677 80.4209343,150 80.9347394,150" id="Fill-36" fill="#AFBDEB"></path>
                <path d="M80.9347394,158 L153.065864,158 C153.579669,158 154,158.449677 154,159 C154,159.549677 153.579669,160 153.065864,160 L80.9347394,160 C80.4209343,160 80,159.549677 80,159 C80,158.449677 80.4209343,158 80.9347394,158" id="Fill-37" fill="#AFBDEB"></path>
                <path d="M81.9218645,166 L120.078135,166 C120.585458,166 121,166.450323 121,167 L121,167.000645 C121,167.549677 120.585458,168 120.078135,168 L81.9218645,168 C81.4151364,168 81,167.549677 81,167.000645 L81,167 C81,166.450323 81.4151364,166 81.9218645,166" id="Fill-38" fill="#AFBDEB"></path>
                <path d="M126.93779,166 L153.06221,166 C153.578297,166 154,166.450323 154,167 L154,167.000645 C154,167.549677 153.578297,168 153.06221,168 L126.93779,168 C126.421703,168 126,167.549677 126,167.000645 L126,167 C126,166.450323 126.421703,166 126.93779,166" id="Fill-39" fill="#AFBDEB"></path>
                <polyline id="Fill-40" fill="#FFFFFF" points="156.822777 139 169 151.17678 165.176641 155 153 142.82322 156.822777 139"></polyline>
                <polyline id="Fill-41" fill="#DCE5FD" points="155.035303 141 168 153.964697 165.964697 156 153 143.035303 155.035303 141"></polyline>
                <path d="M166.796106,151.123554 L155.876446,140.203894 L153.203894,142.876446 L164.123554,153.796106 L166.796106,151.123554 Z M156.427706,138.550687 L169,151.123554 L164.123554,156 L151,142.876446 L155.876446,138 L156.427706,138.550687 L156.427706,138.550687 Z" id="Fill-42" fill="#4658AE"></path>
                <path d="M172.402203,150.768089 L194.231913,172.597851 C195.256029,173.622559 195.256029,175.29855 194.231913,176.322668 L190.322458,180.232133 C189.298342,181.255661 187.622355,181.256251 186.59765,180.232133 L164.768529,158.40237 C163.743824,157.378252 163.743824,155.702261 164.768529,154.677553 L168.677395,150.768089 C169.7021,149.74397 171.378087,149.74397 172.402203,150.768089" id="Fill-43" fill="#C29531"></path>
                <path d="M172.37771,151.769139 L194.231081,173.622452 C195.256306,174.647675 195.256306,176.325473 194.231081,177.350696 L193.351135,178.23064 C192.325318,179.256453 190.648106,179.256453 189.62229,178.23064 L167.768919,156.377327 C166.743694,155.352104 166.743694,153.674305 167.768919,152.649673 L168.649456,151.769139 C169.674682,150.743916 171.352485,150.743325 172.37771,151.769139" id="Fill-44" fill="#FFD43B"></path>
                <path d="M193.837818,173.257523 L171.74188,151.162182 C171.381218,150.80152 170.905908,150.620592 170.431195,150.619995 L170.431195,150.621786 C169.955288,150.621786 169.479381,150.802117 169.119316,151.161585 L165.161585,155.119316 C164.802117,155.479381 164.621786,155.955288 164.621786,156.430598 L164.619995,156.430598 C164.620592,156.905908 164.80152,157.381218 165.162182,157.74188 L187.25812,179.837818 C187.619379,180.19848 188.094689,180.379408 188.569402,180.380005 L188.569402,180.377617 C189.045309,180.377617 189.520619,180.197883 189.880684,179.837818 L193.838415,175.880684 C194.197883,175.520619 194.377617,175.045309 194.377617,174.569999 L194.380005,174.569999 C194.379408,174.094689 194.19848,173.618782 193.837818,173.257523 M172.88955,150.015706 L194.984891,172.111047 C195.660237,172.785796 195.997612,173.676703 195.997612,174.567611 L196,174.569999 C196,175.459712 195.662028,176.351217 194.985488,177.027757 L191.027757,180.985488 C190.351217,181.662028 189.459712,182 188.569402,182 L188.567013,181.997612 C187.6773,181.997612 186.785796,181.660237 186.11045,180.984891 L164.015706,158.888953 C163.34036,158.214204 163.002388,157.323297 163.002388,156.432987 L163,156.430598 C163,155.540288 163.338569,154.648783 164.015109,153.972243 L167.97284,150.015109 C168.648783,149.338569 169.540288,149 170.431195,149 L170.432987,149.002388 C171.323297,149.002388 172.214204,149.34036 172.88955,150.015706" id="Fill-45" fill="#0500AF"></path>
                <path d="M154.652738,99.3477245 C165.782421,110.477436 165.782421,128.523152 154.652738,139.652276 C143.523056,150.782575 125.477974,150.782575 114.347703,139.652276 C103.217432,128.523152 103.217432,110.477436 114.347703,99.3477245 C125.477974,88.2174252 143.523056,88.2174252 154.652738,99.3477245" id="Fill-46" fill="#C29531"></path>
                <path d="M148.472975,105.515264 C140.445585,97.4274618 127.431683,97.4274618 119.40489,105.515264 C111.378097,113.602464 111.378097,126.714305 119.40489,134.802107 C127.431683,142.889307 140.445585,142.889307 148.472975,134.802107 C156.499768,126.714305 156.499768,113.602464 148.472975,105.515264 M154.402446,99.540567 C157.7031,102.865459 160.037504,106.793235 161.410438,110.972514 C163.293369,120.24623 160.666343,130.265429 153.525178,137.460336 C142.223411,148.846555 123.898723,148.846555 112.596956,137.460336 C109.2969,134.134842 106.962496,130.207066 105.589562,126.02899 C103.706631,116.754071 106.333657,106.734872 113.474822,99.540567 C124.776589,88.1531443 143.101277,88.1531443 154.402446,99.540567" id="Fill-47" fill="#FFD43B"></path>
                <path d="M148.995762,106.00462 C157.001413,114.010183 157.001413,126.989668 148.995762,134.995827 C140.989515,143.001391 128.009889,143.001391 120.004238,134.995827 C111.998587,126.989668 111.998587,114.010183 120.004238,106.00462 C128.009889,97.9984601 140.989515,97.9984601 148.995762,106.00462" id="Fill-48" fill="#DCE5FD"></path>
                <path d="M153.597317,120.499705 C153.597317,115.612953 151.731906,110.725611 148.003443,106.995968 C144.274389,103.267504 139.387047,101.402683 134.500295,101.402683 C129.612953,101.402683 124.725611,103.267504 120.996557,106.995968 C117.267504,110.725611 115.403272,115.612953 115.403272,120.499705 C115.402683,125.387047 117.267504,130.274389 120.996557,134.002853 C124.725611,137.732496 129.612953,139.597317 134.500295,139.597317 C139.387047,139.597317 144.274389,137.732496 148.003443,134.002853 C151.731906,130.274389 153.597317,125.387047 153.597317,120.499705 M149.702541,105.296869 C153.901044,109.494781 156,114.997833 156,120.499705 C156,126.001577 153.901044,131.504629 149.703131,135.702541 C145.504629,139.900454 140.002167,142 134.500295,142 C128.998423,142 123.495371,139.900454 119.296869,135.702541 C115.098956,131.504629 113,126.001577 113,120.499705 C113,114.997833 115.098956,109.494781 119.296869,105.296869 C123.495371,101.098956 128.998423,99 134.500295,99 C140.002167,99 145.504629,101.098956 149.702541,105.296869" id="Fill-49" fill="#0500AF"></path>
                <path d="M117.071799,116.149794 C119.553003,108.382848 126.150499,103.151014 133.508691,103.000305 C135.228045,102.965033 135.754414,106.000369 133.494839,106.057446 C127.301353,106.21585 121.756016,110.63001 119.664394,117.172048 C119.207862,118.796494 116.531002,117.8031 117.071799,116.149794" id="Fill-50" fill="#FDFBFB"></path>
                <path d="M161.579184,119.999703 C161.579184,112.941613 158.886286,105.884118 153.501084,100.498322 C148.115882,95.113714 141.058387,92.420816 134.000297,92.420816 C126.942207,92.420816 119.884118,95.113714 114.498916,100.498322 C109.113714,105.884118 106.420816,112.941613 106.420816,119.999703 C106.420816,127.057793 109.113714,134.115288 114.498916,139.501084 C119.884118,144.885692 126.942207,147.579184 134.000297,147.579184 C141.058387,147.579184 148.115882,144.885692 153.501678,139.501084 C158.886286,134.115288 161.579184,127.057793 161.579184,119.999703 M155.21318,98.7868197 C161.070664,104.644303 164,112.322003 164,119.999703 C164,127.677403 161.070664,135.354508 155.21318,141.21318 C149.355103,147.070664 141.677997,150 134.000297,150 C126.322597,150 118.644303,147.070664 112.78682,141.21318 C106.928742,135.354508 104,127.677403 104,119.999703 C104,112.322003 106.929336,104.644303 112.78682,98.7868197 C118.644897,92.9287419 126.323191,90 134.000297,90 C141.677997,90 149.355103,92.9287419 155.21318,98.7868197" id="Fill-51" fill="#0500AF"></path>
                <path d="M146.563435,120.358566 L142.623302,116.268048 L142.623302,111.54263 C142.623302,110.687809 141.955868,109.995539 141.131246,109.995539 C140.30908,109.995539 139.64226,110.687809 139.64226,111.54263 L139.64226,113.173865 L136.708496,110.127491 C135.258193,108.622471 132.73582,108.625021 131.288587,110.130041 L121.436104,120.358566 C120.854632,120.962869 120.854632,121.941992 121.436104,122.546295 C122.01819,123.151235 122.963159,123.151235 123.544017,122.546295 L133.395886,112.31777 C133.717016,111.986295 134.283138,111.986295 134.601811,112.317132 L144.454908,122.546295 C144.747179,122.848446 145.127869,122.999522 145.508558,122.999522 C145.890475,122.999522 146.271778,122.848446 146.563435,122.546295 C147.145522,121.941992 147.145522,120.962869 146.563435,120.358566" id="Fill-52" fill="#0500AF"></path>
                <path d="M134.496308,114.209927 C134.22228,113.930024 133.77772,113.930024 133.504868,114.209927 L125.205227,122.685109 C125.074093,122.819054 125,123.001652 125,123.192659 L125,130.602286 C125,131.371119 125.615681,132 126.368376,132 L131.119177,132 C131.427899,132 131.68017,131.742321 131.68017,131.426979 L131.68017,126.073379 C131.68017,125.758038 131.933028,125.499758 132.241751,125.499758 L135.758249,125.499758 C136.066384,125.499758 136.319242,125.758038 136.319242,126.073379 L136.319242,131.426979 C136.319242,131.742321 136.572101,132 136.880823,132 L141.631036,132 C142.384319,132 143,131.371119 143,130.602286 L143,123.192659 C143,123.001652 142.925907,122.819054 142.794773,122.685109 L134.496308,114.209927" id="Fill-53" fill="#0500AF"></path>
                <path d="M56.5,124 C61.5514785,124 66.5814027,124.590249 71.5005621,125.722697 L75.0971285,126.551419 L75.0324658,130.209777 C75.0145039,131.207565 75.2839321,132.148998 75.947324,132.913652 C76.2227395,133.229836 76.8532014,133.766695 77.2842864,133.847373 L81,134.544994 L81,138.292334 C81,148.118351 79.4744379,158.703684 74.9019428,167.524201 C71.2616691,174.545497 65.5845186,180.464005 57.7393695,182.654156 L56.5,183 L55.2612292,182.654156 C47.4154814,180.464005 41.7389296,174.545497 38.0986559,167.524201 C33.5255621,158.703684 32,148.118351 32,138.292334 L32,134.544994 L35.7163123,133.847373 C36.1467986,133.766695 36.7778592,133.229836 37.052676,132.913652 C37.7166667,132.148998 37.9854961,131.207565 37.9675342,130.209777 L37.9028715,126.551419 L41.4994379,125.722697 C46.419196,124.590249 51.4485215,124 56.5,124" id="Fill-54" fill="#0500AF"></path>
                <path d="M56.9997028,126 C61.8428234,126 66.6496859,126.576505 71.3656062,127.68563 L73.10718,128.095015 L73.0756771,129.902078 C73.0477406,131.495732 73.5119622,133.001618 74.5462074,134.215945 C75.1869639,134.969188 76.2140763,135.748882 77.20077,135.937644 L79,136.282705 L79,138.134855 C79,147.686559 77.5633502,158.098512 73.202283,166.684767 C69.8903208,173.204862 64.7511922,178.789564 57.6000405,180.829273 L56.9997028,181 L56.3999595,180.829273 C49.2482134,178.789564 44.1090848,173.204862 40.7971226,166.684767 C36.4360554,158.098512 35,147.686559 35,138.134855 L35,136.282705 L36.79923,135.937644 C37.7859237,135.748882 38.8124417,134.969188 39.4531982,134.215945 C40.4874434,133.001618 40.951665,131.495732 40.9237285,129.902078 L40.8922256,128.095015 L42.633205,127.68563 C47.3497197,126.576505 52.1565822,126 56.9997028,126" id="Fill-55" fill="#FFFFFF"></path>
                <path d="M57,129 C52.257862,129.008938 47.5872105,129.551801 42.9868441,130.6125 C43.0739495,135.510184 39.4912144,138.343678 37,138.812054 C37,161.267272 45.2996426,175.726733 57,179 C68.7003574,175.726733 77,161.267272 77,138.812054 C74.5087856,138.343678 70.9260505,135.510184 71.0131559,130.6125 C66.4127895,129.551801 61.742138,129.008938 57,129" id="Fill-56" fill="#C29531"></path>
                <path d="M56.9647106,129 C52.2142053,129.008938 47.5353125,129.551801 42.9268289,130.6125 C42.3003688,135.213427 41.3802367,136.492819 38,138.489077 C38,160.944295 47.3698212,176.124793 56.9647106,179 C68.685713,175.726733 77,161.267272 77,138.812054 C74.50439,138.343678 70.9153332,135.510184 71.0025923,130.6125 C66.3941087,129.551801 61.7152159,129.008938 56.9647106,129" id="Fill-57" fill="#FFD43B"></path>
                <path d="M41.498,131.5105 C41.5,131.5035 41.501,131.4965 41.502,131.4895 C41.501,131.4965 41.5,131.5035 41.498,131.5105" id="Fill-58" fill="#FFFFFF"></path>
                <path d="M70.4034138,168 L40,137.330477 C41.3123303,136.18281 42.261485,135.049602 42.811027,132.012651 C42.8122217,132.008434 42.812819,132.004217 42.8134164,132 L73,162.512886 C72.2342251,164.499163 71.3651124,166.330009 70.4034138,168" id="Fill-59" fill="#E8CA7B"></path>
                <path d="M73.0628757,160 L43,130.635035 C44.1228714,130.392727 45.249338,130.180853 46.380598,130 L74,156.978754 C73.7129907,158.019392 73.3996173,159.02667 73.0628757,160" id="Fill-60" fill="#E8CA7B"></path>
                <polyline id="Fill-61" fill="#FFFFFF" points="44 150.272204 55.6056723 162 71 143 54.9172553 158.080599 44 150.272204"></polyline>
                <path d="M17.5,131 L17.5,131 C23.8250891,131 29,136.228425 29,142.618922 L29,159.381078 C29,165.771575 23.8250891,171 17.5,171 C11.1749109,171 6,165.771575 6,159.381078 L6,142.618922 C6,136.228425 11.1749109,131 17.5,131" id="Fill-62" fill="#0500AF"></path>
                <path d="M17.5,133 L17.5005733,133 C22.7247133,133 27,137.42938 27,142.843727 L27,159.156867 C27,164.57062 22.7247133,169 17.5005733,169 L17.5,169 C12.2752867,169 8,164.57062 8,159.156867 L8,142.843727 C8,137.42938 12.2752867,133 17.5,133" id="Fill-63" fill="#95A2CA"></path>
                <path d="M16.9234762,134 L16.9234762,134 C20.2113388,134 23.1386745,135.594882 24.9466995,138.037303 C24.9820335,138.370306 25,138.708615 25,139.050459 L25,155.233854 C25,160.605529 20.5347352,165 15.0771227,165 C11.7886612,165 8.86192441,163.405118 7.05389939,160.962697 C7.01856534,160.629694 7,160.291975 7,159.95072 L7,143.766146 C7,138.394471 11.4658637,134 16.9234762,134" id="Fill-64" fill="#AFBDEB"></path>
                <path d="M16.9997046,157 L16.9997046,157 C17.5497784,157 18,157.458162 18,158.017938 L18,181 L16,181 L16,158.017938 C16,157.458162 16.4496307,157 16.9997046,157" id="Fill-65" fill="#4658AE"></path>
                <path d="M18.8261884,176.764805 C19.4636508,175.077502 20.5973847,173.646013 22.0399364,172.631718 C23.5065206,171.600687 25.2927372,171 27.2009189,171 C29.1169111,171 30.9091359,171.605469 32.3787242,172.643672 C33.8218767,173.663944 34.9538081,175.102605 35.5870649,176.796484 C36.0052306,176.583105 36.4480297,176.415749 36.9064499,176.299198 C37.4207457,176.167704 37.9530659,176.100164 38.4925959,176.100164 C40.0883548,176.100164 41.5639512,176.688898 42.6928786,177.671515 C43.8212052,178.653534 44.6028627,180.029437 44.8131472,181.60258 L45,183 L11,183 L11,181.765154 C11,180.246999 11.6188373,178.872292 12.6185899,177.877123 C13.6189433,176.882552 15.0002121,176.266922 16.5262767,176.266922 C16.9558579,176.266922 17.3806326,176.316531 17.7921894,176.412163 C18.1484715,176.495841 18.4951405,176.613588 18.8261884,176.764805" id="Fill-66" fill="#0500AF"></path>
                <path d="M37.9648622,176.816106 C40.5409654,176.816106 42.6695932,178.638234 43,181 L12,181 C12,178.77653 13.8974619,176.973595 16.2382395,176.973595 C17.4208105,176.973595 18.4898785,177.434207 19.2582525,178.175364 C19.7996204,174.681824 22.9681977,172 26.7964,172 C30.6537208,172 33.8413143,174.722466 34.3458383,178.255519 C35.2675306,177.367035 36.548154,176.816106 37.9648622,176.816106" id="Fill-67" fill="#95A2CA"></path>
                <path d="M205.5,132 L205.5,132 C211.824822,132 217,137.227903 217,143.619096 L217,160.381504 C217,166.771497 211.824822,172 205.5,172 C199.174584,172 194,166.771497 194,160.381504 L194,143.619096 C194,137.227903 199.174584,132 205.5,132" id="Fill-68" fill="#0500AF"></path>
                <path d="M205.5,134 L205.5,134 C210.725287,134 215,138.429974 215,143.844321 L215,160.156867 C215,165.57062 210.725287,170 205.5,170 C200.274713,170 196,165.57062 196,160.156867 L196,143.844321 C196,138.429974 200.274713,134 205.5,134" id="Fill-69" fill="#95A2CA"></path>
                <path d="M205.923476,134 L205.923476,134 C209.21074,134 212.138076,135.594852 213.946699,138.037226 C213.982034,138.370223 214,138.708525 214,139.050363 L214,155.234039 C214,160.605023 209.534735,165 204.076524,165 C200.78926,165 197.861924,163.404559 196.053899,160.962185 C196.017966,160.629187 196,160.291475 196,159.950226 L196,143.76655 C196,138.394388 200.465265,134 205.923476,134" id="Fill-70" fill="#AFBDEB"></path>
                <path d="M205.000295,157 L205.000295,157 C205.550369,157 206,157.458162 206,158.017938 L206,181 L204,181 L204,158.017938 C204,157.458162 204.449631,157 205.000295,157" id="Fill-71" fill="#4658AE"></path>
                <path d="M185.826327,176.764805 C186.4632,175.077502 187.597554,173.645415 189.040131,172.632316 C190.506742,171.600687 192.293591,171 194.201205,171 C196.117231,171 197.909488,171.605469 199.379102,172.643672 C200.822881,173.663346 201.954832,175.102605 202.586899,176.795886 C203.005672,176.582507 203.448479,176.415749 203.906307,176.299198 C204.420612,176.168302 204.953542,176.100164 205.492481,176.100164 C207.088869,176.100164 208.564491,176.689495 209.693439,177.672112 C210.821184,178.653534 211.603457,180.029437 211.813745,181.60258 L212,183 L178,183 L178,181.765154 C178,180.246999 178.618848,178.872292 179.618618,177.877123 C180.61899,176.882552 182.000283,176.266922 183.526374,176.266922 C183.956564,176.266922 184.380745,176.316531 184.791709,176.412163 C185.148598,176.495841 185.495273,176.614185 185.826327,176.764805" id="Fill-72" fill="#0500AF"></path>
                <path d="M204.964268,176.816106 C207.540965,176.816106 209.668999,178.638234 210,181 L179,181 C179,178.77653 180.897462,176.973595 183.238239,176.973595 C184.420216,176.973595 185.489878,177.434207 186.258253,178.175364 C186.79962,174.681824 189.968198,172 193.7964,172 C197.653721,172 200.841314,174.722466 201.345244,178.255519 C202.266936,177.367035 203.548154,176.816106 204.964268,176.816106" id="Fill-73" fill="#95A2CA"></path>
            </g>
        </g>
    </g>
</svg>