<?xml version="1.0" encoding="UTF-8"?>
<svg width="35px" height="35px" viewBox="0 0 35 35" version="1.1" xmlns="http://www.w3.org/2000/svg" xmlns:xlink="http://www.w3.org/1999/xlink">
<title>Group 6</title>
<defs>
    <circle id="path-1" cx="17.5" cy="17.5" r="17.5"></circle>
    <mask id="mask-2" maskContentUnits="userSpaceOnUse" maskUnits="objectBoundingBox" x="0" y="0" width="35" height="35" fill="white">
        <use xlink:href="#path-1"></use>
    </mask>
</defs>
<g id="Symbols" stroke="none" stroke-width="1" fill="none" fill-rule="evenodd">
    <g id="Components/read--hover-option-2" transform="translate(-290.000000, -23.000000)">
        <g id="Group-6" transform="translate(290.000000, 23.000000)">
            <g id="Group" fill="#E8F8EA" stroke="#1BB934" stroke-dasharray="2,1" stroke-linejoin="bevel" stroke-width="2">
                <use id="Oval" mask="url(#mask-2)" xlink:href="#path-1"></use>
            </g>
            <g id="noun_seen_3388044-copy" transform="translate(8.000000, 13.000000)" fill="#1BB934" fill-rule="nonzero">
                <path d="M13.7136226,0.296833146 C13.3265035,-0.0946118245 12.6957975,-0.0995287388 12.3026226,0.285833146 L4.92762259,7.57483315 L1.72162259,4.25583315 C1.47366707,3.99738695 1.10642733,3.89128228 0.758842987,3.97766226 C0.411258641,4.06404224 0.136411289,4.32971527 0.0382852813,4.67416797 C-0.0598407264,5.01862067 0.0337399953,5.3892497 0.283622592,5.64583315 L4.19262259,9.69683315 C4.37969403,9.88768879 4.6353767,9.99572372 4.90262259,9.99683315 L4.91362259,9.99683315 C5.17582048,9.99599485 5.42720028,9.8922109 5.61362259,9.70783315 L13.7046226,1.70783315 C14.0955091,1.32016125 14.099532,0.689459797 13.7136226,0.296833146 Z" id="Path"></path>
                <path d="M10.1926226,9.69683315 C10.379207,9.88719739 10.6340713,9.99519077 10.9006226,9.99683315 L10.9116226,9.99683315 C11.1738205,9.99599485 11.4252003,9.8922109 11.6116226,9.70783315 L19.7026226,1.70783315 C20.0521152,1.31431825 20.0367721,0.717258326 19.6675294,0.342213211 C19.2982867,-0.0328319036 18.7015385,-0.0574817176 18.3026226,0.285833146 L10.9306226,7.57483315 L10.6676226,7.30183315 C10.4196671,7.04338695 10.0524273,6.93728228 9.70484299,7.02366226 C9.35725864,7.11004224 9.08241129,7.37571527 8.98428528,7.72016797 C8.88615927,8.06462067 8.97974,8.4352497 9.22962259,8.69183315 L10.1926226,9.69683315 Z" id="Path"></path>
            </g>
        </g>
    </g>
</g>
</svg>