<?xml version="1.0" encoding="UTF-8"?>
<svg width="45px" height="43px" viewBox="0 0 45 43" version="1.1" xmlns="http://www.w3.org/2000/svg" xmlns:xlink="http://www.w3.org/1999/xlink">
    <title>noun_pending folder_1152411</title>
    <g id="Symbols" stroke="none" stroke-width="1" fill="none" fill-rule="evenodd">
        <g id="Components/-Pending--option-2" transform="translate(-9.000000, -19.000000)" fill="#FEEBDC" fill-rule="nonzero" stroke="#FD6F03">
            <g id="Shape" transform="translate(10.000000, 20.000000)">
                <path d="M38.1016331,5.07808209 C38.1016331,4.62236524 37.7246776,4.25280708 37.2596508,4.25280708 L20.0514687,4.25280708 L20.0514687,0.825274992 C20.0514687,0.369475613 19.6745132,0 19.2094864,0 L5.11234476,0 C4.64731789,0 4.27036242,0.369475613 4.27036242,0.825274992 L4.27036242,8.07094186 L38.1016331,8.12763826 L38.1016331,5.07808209 Z M34.7151971,23.1086406 C36.3615251,23.1086406 37.9156561,23.5022142 39.2854771,24.197756 L40.8201583,10.6555711 C40.8465123,10.4221008 40.7703129,10.1888781 40.6106731,10.0140023 C40.450949,9.83912654 40.2226876,9.73910321 39.9832278,9.73910321 L0.841911441,9.73910321 C0.602535866,9.73910321 0.374358656,9.83912654 0.214550411,10.0140023 C0.0549105625,10.1888781 -0.0212888375,10.4221008 0.00514940744,10.6555711 L2.64526918,33.9540745 C2.69267278,34.3719937 3.05312541,34.6882391 3.48219961,34.6882391 L24.9183959,34.6882391 C24.8059071,34.1018812 24.7464632,33.4974498 24.7464632,32.8795664 C24.7464632,27.4919237 29.2183996,23.1086406 34.7151971,23.1086406 M37.5732555,34.3369773 L34.2574449,34.3369773 C33.7924181,34.3369773 33.4154626,33.9674191 33.4154626,33.5117023 L33.4154626,29.4364119 C33.4154626,28.980695 33.7924181,28.6111369 34.2574449,28.6111369 C34.7223876,28.6111369 35.0994273,28.980695 35.0994273,29.4364119 L35.0994273,32.6864273 L37.5732555,32.6864273 C38.0382823,32.6864273 38.4152379,33.0559854 38.4152379,33.5117023 C38.4152379,33.9674191 38.0382823,34.3369773 37.5732555,34.3369773 M34.7152307,24.7591659 C30.1469715,24.7591659 26.4303773,28.4020122 26.4303773,32.8796242 C26.4303773,37.3572362 30.1469715,41 34.7152307,41 C39.28349,41 43,37.3572362 43,32.8796242 C43,28.4020122 39.28349,24.7591659 34.7152307,24.7591659"></path>
            </g>
        </g>
    </g>
</svg>