<?xml version="1.0" encoding="UTF-8"?>
<svg width="45px" height="37px" viewBox="0 0 45 37" version="1.1" xmlns="http://www.w3.org/2000/svg" xmlns:xlink="http://www.w3.org/1999/xlink">
    <title>Shape</title>
    <g id="Symbols" stroke="none" stroke-width="1" fill="none" fill-rule="evenodd">
        <g id="Components/read--hover-option-2" transform="translate(-9.000000, -22.000000)" fill="#EFF3FF" fill-rule="nonzero" stroke="#A0B6EB">
            <g id="noun_Folder_1631829" transform="translate(10.000000, 23.000000)">
                <path d="M42.9859348,33.3557047 L42.9859348,5.0738255 C42.9859348,4.18120805 42.2928381,3.47651007 41.4149156,3.47651007 L21.8233825,3.47651007 C21.2226987,3.47651007 20.7606342,2.34899329 20.7606342,1.87919463 L20.7606342,1.69127517 C20.7606342,0.751677852 20.0213311,0 19.0972022,0 L8.65454538,0 C7.73041646,0 6.99111332,0.751677852 6.99111332,1.69127517 L6.99111332,1.87919463 C6.99111332,2.30201342 6.52904886,3.47651007 5.88215862,3.47651007 L5.88215862,3.47651007 C5.05044259,3.47651007 4.3573459,4.18120805 4.3573459,5.02684564 L4.3573459,13.2013423 L1.07668823,13.2013423 C1.07668823,13.2013423 -0.401918043,13.1073826 0.106352863,14.8926174 L3.61804276,33.3087248 C3.61804276,34.2483221 4.26493301,35 5.14285548,35 L42.2004252,35 C43.1707606,35 42.9859348,33.3557047 42.9859348,33.3557047 Z M41.0914705,15.5973154 L41.0914705,34.0604027 L37.5797806,14.2348993 C37.3025419,13.1543624 36.0549679,13.2013423 36.0549679,13.2013423 L6.29801663,13.2013423 L6.29801663,7 L41.0914705,7 L41.0914705,15.5973154 L41.0914705,15.5973154 Z" id="Shape"></path>
            </g>
        </g>
    </g>
</svg>