<?xml version="1.0" encoding="UTF-8"?>
<svg width="290px" height="176px" viewBox="0 0 290 176" version="1.1" xmlns="http://www.w3.org/2000/svg" xmlns:xlink="http://www.w3.org/1999/xlink">
    <title>Group 8</title>
    <defs>
        <path d="M29.3310744,171.028645 C14.7672755,167.642975 0,158.514746 0,134.504891 C0,94.9923296 50.7915875,89.8254461 32.4585215,62.300436 C13.5385688,33.8918258 29.2245716,0 60.5922796,0 C71.9096098,0 85.2747845,4.41725282 99.7834635,15.0959396 C115.767674,26.8602081 129.177879,30.6651629 141.002126,30.6642286 C162.672655,30.6623602 179.008699,17.8784669 196.028603,17.8784669 C215.058982,17.8784669 229.076254,37.6457714 229.076254,69.324393 C229.076254,80.5286807 233.231734,88.1152344 238.872648,94.3520045 C235.627114,98.1492986 232.79638,102.088036 230.322524,106.088807 C223.818376,103.769473 217.615051,102.657172 211.67705,102.611582 C211.579889,102.611021 211.484597,102.610647 211.387437,102.610647 C210.776446,102.610647 210.159851,102.6241 209.539518,102.650819 C209.548861,96.1242495 208.835105,89.2066085 206.42104,84.311027 L196.82644,84.311027 L186.471373,81.5225206 C186.471373,81.5225206 179.849511,102.432582 180.372683,124.90973 C180.798694,143.216824 175.350232,163.372958 173.313598,170.223334 C161.067638,170.156069 148.106053,170.120568 134.688188,170.120568 C92.2206394,170.120568 54.2951579,170.475577 29.3310744,171.028645 M206.241667,170.490525 C196.482642,170.380285 185.895884,170.292467 174.701873,170.230808 C178.268784,166.010305 185.490425,156.686447 190.0196,145.52065 C194.666488,156.541827 200.6157,166.307018 206.241667,170.490525 M243.947416,170.1542 C255.54128,165.511423 263.321594,156.53099 266.970718,151.516761 C262.985269,161.757104 254.408986,167.289834 243.947416,170.1542 M268.149724,147.825782 C266.116827,147.700034 264.149327,147.640243 262.25096,147.640243 C261.469939,147.640243 260.698261,147.650333 259.939661,147.670139 C263.26554,143.593321 266.404572,138.812838 269.162435,133.207985 C269.302571,134.51498 269.375441,135.875601 269.375441,137.299937 C269.375441,141.21046 268.94943,144.705436 268.149724,147.825782 M255.440383,125.510257 C257.415357,121.760422 259.113797,118.050386 260.580547,114.428728 C262.262171,116.342229 263.788712,118.381292 265.077957,120.61262 C262.219196,121.837964 258.92695,123.44298 255.440383,125.510257" id="path-1"></path>
        <linearGradient x1="50.0001734%" y1="101.123069%" x2="50.0001734%" y2="0.000207573142%" id="linearGradient-3">
            <stop stop-color="#FBFCFF" offset="0%"></stop>
            <stop stop-color="#ECF0FF" offset="100%"></stop>
        </linearGradient>
    </defs>
    <g id="Page-1" stroke="none" stroke-width="1" fill="none" fill-rule="evenodd">
        <g id="Login--Option-2" transform="translate(-43.000000, -144.000000)">
            <g id="Group-8" transform="translate(43.000000, 144.000000)">
                <g id="Group-5" transform="translate(14.778113, 0.000000)">
                    <mask id="mask-2" fill="white">
                        <use xlink:href="#path-1"></use>
                    </mask>
                    <g id="Clip-4"></g>
                    <path d="M29.3310744,171.028645 C14.7672755,167.642975 0,158.514746 0,134.504891 C0,94.9923296 50.7915875,89.8254461 32.4585215,62.300436 C13.5385688,33.8918258 29.2245716,0 60.5922796,0 C71.9096098,0 85.2747845,4.41725282 99.7834635,15.0959396 C115.767674,26.8602081 129.177879,30.6651629 141.002126,30.6642286 C162.672655,30.6623602 179.008699,17.8784669 196.028603,17.8784669 C215.058982,17.8784669 229.076254,37.6457714 229.076254,69.324393 C229.076254,80.5286807 233.231734,88.1152344 238.872648,94.3520045 C235.627114,98.1492986 232.79638,102.088036 230.322524,106.088807 C223.818376,103.769473 217.615051,102.657172 211.67705,102.611582 C211.579889,102.611021 211.484597,102.610647 211.387437,102.610647 C210.776446,102.610647 210.159851,102.6241 209.539518,102.650819 C209.548861,96.1242495 208.835105,89.2066085 206.42104,84.311027 L196.82644,84.311027 L186.471373,81.5225206 C186.471373,81.5225206 179.849511,102.432582 180.372683,124.90973 C180.798694,143.216824 175.350232,163.372958 173.313598,170.223334 C161.067638,170.156069 148.106053,170.120568 134.688188,170.120568 C92.2206394,170.120568 54.2951579,170.475577 29.3310744,171.028645 M206.241667,170.490525 C196.482642,170.380285 185.895884,170.292467 174.701873,170.230808 C178.268784,166.010305 185.490425,156.686447 190.0196,145.52065 C194.666488,156.541827 200.6157,166.307018 206.241667,170.490525 M243.947416,170.1542 C255.54128,165.511423 263.321594,156.53099 266.970718,151.516761 C262.985269,161.757104 254.408986,167.289834 243.947416,170.1542 M268.149724,147.825782 C266.116827,147.700034 264.149327,147.640243 262.25096,147.640243 C261.469939,147.640243 260.698261,147.650333 259.939661,147.670139 C263.26554,143.593321 266.404572,138.812838 269.162435,133.207985 C269.302571,134.51498 269.375441,135.875601 269.375441,137.299937 C269.375441,141.21046 268.94943,144.705436 268.149724,147.825782 M255.440383,125.510257 C257.415357,121.760422 259.113797,118.050386 260.580547,114.428728 C262.262171,116.342229 263.788712,118.381292 265.077957,120.61262 C262.219196,121.837964 258.92695,123.44298 255.440383,125.510257" id="Fill-3" fill="url(#linearGradient-3)" mask="url(#mask-2)"></path>
                </g>
                <path d="M228.271316,170.473709 C228.271316,170.473709 224.078467,99.7787923 284.501089,70.8247754 C284.501089,70.8247754 286.074342,134.368118 228.271316,170.473709" id="Fill-6" fill="#E7EDFF"></path>
                <path d="M230.134182,167.020027 C230.192105,167.027874 230.250027,166.994429 230.27058,166.937254 C236.99334,148.6722 251.107771,124.10554 261.763663,106.71325 C273.310815,87.8667277 283.396823,73.1521432 283.49772,73.0058419 C283.538827,72.9473587 283.523879,72.8677618 283.465956,72.8275897 C283.406165,72.7876044 283.327689,72.8023654 283.286583,72.8608485 C283.185685,73.0071498 273.095941,87.7271529 261.545052,106.579467 C250.881686,123.981847 236.759781,148.564202 230.031416,166.849062 C230.007126,166.915019 230.040758,166.98901 230.106155,167.013113 L230.134182,167.020027" id="Fill-7" fill="#FFFFFF"></path>
                <path d="M269.239416,94.4820501 L280.289555,89.319651 C280.353083,89.2891949 280.38111,89.2131481 280.351215,89.1494332 C280.321319,89.0851578 280.24658,89.0575045 280.181184,89.0874 L269.523424,94.0659416 L270.246522,82.9391954 C270.252128,82.8683804 270.19981,82.8087761 270.12694,82.802797 C270.055938,82.797939 269.996147,82.851751 269.99241,82.9221923 L269.239416,94.4820501" id="Fill-8" fill="#FFFFFF"></path>
                <path d="M252.667945,121.687552 L252.84545,121.607768 L272.69422,112.645459 C272.759616,112.616311 272.787643,112.540638 272.759616,112.476175 C272.72972,112.411713 272.653113,112.383312 272.589585,112.412087 L252.916452,121.294425 L252.449334,100.647818 C252.447465,100.577003 252.389543,100.52151 252.318541,100.52225 C252.247539,100.523939 252.191485,100.582796 252.193308,100.653611 L252.667945,121.687552" id="Fill-9" fill="#FFFFFF"></path>
                <path d="M235.657383,170.978196 C235.657383,170.978196 276.246183,166.635869 290,117.131845 C290,117.131845 247.51657,126.408431 235.657383,170.978196" id="Fill-10" fill="#DBE4FF"></path>
                <path d="M234.40177,171.635898 C234.441008,171.641504 234.482115,171.628424 234.51201,171.598529 C248.353645,156.996052 287.608357,119.70118 288.002604,119.326178 C288.053053,119.277971 288.054921,119.19688 288.00821,119.14531 C287.957761,119.093927 287.877417,119.092058 287.825099,119.140639 C287.430852,119.515641 248.172403,156.814998 234.327031,171.421024 C234.276583,171.473341 234.28032,171.553685 234.330768,171.602266 C234.351322,171.622819 234.375612,171.63403 234.40177,171.635898" id="Fill-11" fill="#E7EDFF"></path>
                <path d="M275.851936,130.75599 L281.53022,130.157892 C281.601222,130.150232 281.651671,130.087451 281.644197,130.016823 C281.636723,129.946568 281.575063,129.896306 281.504061,129.90322 L276.149023,130.467498 L276.991703,124.071347 C277.001046,124.001093 276.950597,123.936817 276.881464,123.927288 C276.810462,123.918319 276.746934,123.96746 276.737591,124.037715 L275.851936,130.75599" id="Fill-12" fill="#E7EDFF"></path>
                <path d="M259.424337,146.597449 L259.596236,146.579325 L273.931147,145.053158 C274.000281,145.046058 274.05073,144.982903 274.043256,144.912649 C274.035782,144.842581 273.974122,144.791198 273.90312,144.798859 L259.740109,146.305594 L262.199017,133.440236 C262.212096,133.370542 262.167253,133.303277 262.098119,133.290197 C262.025249,133.278426 261.961721,133.322709 261.948642,133.392029 L259.424337,146.597449" id="Fill-13" fill="#E7EDFF"></path>
                <path d="M228.271316,170.473709 C228.271316,170.473709 241.389853,144.756818 284.140474,147.907808 C284.140474,147.907808 264.474815,182.809356 228.271316,170.473709" id="Fill-14" fill="#E7EDFF"></path>
                <path d="M228.2545,170.600765 C228.275053,170.602634 228.297475,170.600765 228.319896,170.593291 L281.715199,149.477885 C281.780595,149.4521 281.814228,149.377548 281.788069,149.311591 C281.76191,149.245821 281.687172,149.213496 281.621775,149.239841 L228.224604,170.354127 C228.159208,170.380285 228.127444,170.455024 228.151734,170.520421 C228.170419,170.565264 228.209657,170.59516 228.2545,170.600765" id="Fill-15" fill="#FFFFFF"></path>
                <path d="M266.817878,155.252769 L274.370238,156.042758 C274.44124,156.050045 274.504768,155.999036 274.512242,155.928968 C274.519716,155.85834 274.467399,155.794812 274.398265,155.788086 L267.247626,155.040324 L271.038754,148.843165 C271.076123,148.783187 271.057439,148.703964 270.995779,148.667529 C270.935988,148.629972 270.857512,148.648844 270.820143,148.709009 L266.817878,155.252769" id="Fill-16" fill="#FFFFFF"></path>
                <path d="M263.278993,164.354839 C263.34439,164.363621 263.407918,164.319899 263.420997,164.253568 C263.435945,164.184248 263.391101,164.116796 263.321968,164.102222 L250.849922,161.529711 L255.831267,151.824871 C255.863031,151.761717 255.838741,151.684923 255.775213,151.652225 C255.713553,151.619713 255.635077,151.644938 255.603313,151.707718 L250.466886,161.712821 L263.269651,164.353345 L263.278993,164.354839" id="Fill-17" fill="#FFFFFF"></path>
                <path d="M39.8189902,170.71661 C39.8189902,170.71661 48.0340977,120.894759 7.33262847,95.882843 C7.33262847,95.882843 1.50580096,140.826863 39.8189902,170.71661" id="Fill-18" fill="#E7EDFF"></path>
                <path d="M38.7543353,168.128866 C38.7124816,168.130646 38.6739911,168.102619 38.6631539,168.059644 C35.2503913,154.609454 27.0633109,136.142045 20.7958979,123.018277 C14.0041918,108.797156 7.94231063,97.6151027 7.88195901,97.5037418 C7.85804258,97.4592722 7.87448512,97.4037786 7.91876789,97.3796753 C7.96305066,97.3557589 8.01854425,97.3722014 8.04264753,97.4162973 C8.10299915,97.5274714 14.1669357,108.714569 20.960697,122.939801 C27.231847,136.070669 35.4239722,154.550224 38.8400982,168.014801 C38.8526169,168.063381 38.8232819,168.11383 38.774328,168.126909 L38.7543353,168.128866" id="Fill-19" fill="#FFFFFF"></path>
                <path d="M16.4010667,113.790458 L8.9473613,109.310238 C8.90457331,109.283892 8.89055977,109.227838 8.91653152,109.184676 C8.94269012,109.141702 8.99855741,109.128062 9.04227964,109.15366 L16.230849,113.4745 L16.5423231,105.529947 C16.5445653,105.479872 16.5862322,105.441194 16.6374283,105.442292 C16.6880639,105.444184 16.7271149,105.486411 16.7251372,105.537421 L16.4010667,113.790458" id="Fill-20" fill="#FFFFFF"></path>
                <path d="M26.1358018,134.311691 L26.0164065,134.242184 L12.6041463,126.414597 C12.560611,126.388999 12.5460369,126.333319 12.5716349,126.289596 C12.5968593,126.246435 12.6525397,126.231674 12.6964488,126.256711 L25.9889399,134.01423 L27.8506847,119.407643 C27.8570375,119.357381 27.9030019,119.322441 27.95289,119.328046 C28.0031519,119.334586 28.038466,119.380737 28.0321132,119.430252 L26.1358018,134.311691" id="Fill-21" fill="#FFFFFF"></path>
                <path d="M34.5439223,170.526026 C34.5439223,170.526026 6.08262122,164.437613 0,128.313151 C0,128.313151 29.4390721,138.041346 34.5439223,170.526026" id="Fill-22" fill="#DBE4FF"></path>
                <path d="M35.3854817,171.086568 C35.3572678,171.086568 35.3290539,171.075357 35.310556,171.051067 C26.5773215,159.669648 1.50580096,130.312602 1.25393104,130.01757 C1.22104594,129.97908 1.22553028,129.921717 1.26383394,129.889019 C1.30232444,129.85576 1.35968651,129.860245 1.39275845,129.898735 C1.64481522,130.193393 26.7193253,159.55455 35.4553625,170.938958 C35.4860055,170.980065 35.4783447,171.036119 35.4387332,171.067883 C35.4228511,171.080962 35.4041664,171.086568 35.3854817,171.086568" id="Fill-23" fill="#E7EDFF"></path>
                <path d="M9.02210015,139.023228 L5.04001428,138.178118 C4.99049979,138.167842 4.95892263,138.119074 4.96957291,138.069934 C4.98003635,138.020419 5.0286166,137.989403 5.07757055,137.999679 L8.83338456,138.797143 L8.7102523,134.198461 C8.70894437,134.148386 8.7491165,134.106159 8.79900468,134.104267 C8.84926656,134.103169 8.8918677,134.143341 8.89298879,134.19379 L9.02210015,139.023228" id="Fill-24" fill="#E7EDFF"></path>
                <path d="M19.4982446,151.47472 L19.3777282,151.449682 L9.32572672,149.304677 C9.27621224,149.294214 9.24482192,149.245447 9.2554722,149.19668 C9.2657488,149.146792 9.3141422,149.115401 9.36384354,149.126052 L19.2955155,151.244524 L18.5051521,141.93879 C18.5008547,141.888528 18.5380372,141.844619 18.588486,141.840322 C18.6402426,141.837145 18.6826569,141.873394 18.6871412,141.923469 L19.4982446,151.47472" id="Fill-25" fill="#E7EDFF"></path>
                <path d="M39.8189902,170.71661 C39.8189902,170.71661 32.4235811,151.507044 1.87388979,150.571688 C1.87388979,150.571688 13.2313921,176.779799 39.8189902,170.71661" id="Fill-26" fill="#E7EDFF"></path>
                <path d="M39.8216061,170.808165 L39.7769496,170.796955 L3.47666441,151.865417 C3.4318211,151.841875 3.41444431,151.786941 3.4378002,151.741724 C3.46096925,151.697255 3.516276,151.679691 3.56093246,151.703047 L39.8614045,170.634398 C39.906061,170.658688 39.9232509,170.714742 39.899895,170.757717 C39.8841999,170.789481 39.853557,170.806297 39.8216061,170.808165" id="Fill-27" fill="#FFFFFF"></path>
                <path d="M13.6134945,157.064438 L8.19866488,157.064812 C8.14821616,157.064812 8.10710979,157.023893 8.10692231,156.973818 C8.1067361,156.923369 8.14802931,156.882076 8.19847803,156.882076 L13.3240683,156.882076 L11.0949821,152.2066 C11.0733079,152.161009 11.0925531,152.106263 11.1381438,152.085149 C11.1837345,152.062915 11.2377333,152.082347 11.2599681,152.128124 L13.6134945,157.064438" id="Fill-28" fill="#FFFFFF"></path>
                <path d="M15.4477727,163.781984 C15.4005004,163.7829 15.3595808,163.747399 15.3543491,163.699567 C15.3494911,163.648744 15.3863,163.604648 15.436375,163.599603 L24.4713676,162.699934 L21.6587579,155.448771 C21.64026,155.401499 21.6634291,155.348808 21.7107014,155.330123 C21.7574132,155.311439 21.8106646,155.335355 21.8284151,155.382067 L24.7286561,162.857633 L15.4544992,163.781219 L15.4477727,163.781984" id="Fill-29" fill="#FFFFFF"></path>
                <path d="M285.592276,172.596292 C285.592276,173.964013 224.646482,175.072017 149.4663,175.072017 C74.286492,175.072017 13.3408845,173.964013 13.3408845,172.596292 C13.3408845,171.23044 74.286492,170.120568 149.4663,170.120568 C224.646482,170.120568 285.592276,171.23044 285.592276,172.596292" id="Fill-30" fill="#DBE4FF"></path>
                <path d="M188.216899,170.567133 L187.340586,172.652346 C187.340586,172.652346 184.638776,172.678505 183.977337,172.652346 C183.809175,172.646741 183.740042,172.437472 183.868966,172.327232 C184.898494,171.449051 188.216899,170.567133 188.216899,170.567133" id="Fill-31" fill="#212529"></path>
                <path d="M193.175821,56.8964435 C193.175821,56.8964435 182.604011,55.8514076 170.059095,42.0277101 L167.736586,42.0277101 C167.736586,42.0277101 171.59311,67.5633589 189.110028,70.5200278 L193.175821,56.8964435" id="Fill-32" fill="#FFA8A8"></path>
                <path d="M189.110028,70.5200278 C175.757932,68.2659041 170.343103,52.8951124 168.523212,45.7128959 C175.087151,63.3923706 187.600303,64.1285482 187.600303,64.1285482 L190.029316,67.4355555 L189.110028,70.5200278" id="Fill-33" fill="#FF8787"></path>
                <path d="M211.761504,52.7149918 C211.761504,52.7149918 201.658681,56.3785033 190.94113,55.2381753 C190.79352,55.2221065 190.649648,55.2880635 190.565567,55.4117563 C189.842469,56.4758507 186.630567,61.7938934 187.482589,71.2429393 C187.482589,71.2429393 197.938554,75.5992799 207.260357,73.3335717 C216.58216,71.0684241 211.761504,52.7149918 211.761504,52.7149918" id="Fill-34" fill="#0500AF"></path>
                <path d="M207.645262,60.6522575 L208.185251,73.0364848 C207.893769,73.1538248 207.585471,73.2543485 207.260357,73.3335717 C197.938554,75.5992799 187.482589,71.2429393 187.482589,71.2429393 C187.23782,68.5289848 187.329375,66.1575211 187.600303,64.1285482 C199.367935,65.693206 207.645262,60.6522575 207.645262,60.6522575" id="Fill-35" fill="#060045"></path>
                <path d="M201.249485,81.5225206 C201.249485,81.5225206 194.627623,102.432582 195.150795,124.90973 C195.672099,147.387626 187.340586,172.652346 187.340586,172.652346 C187.340586,172.652346 211.356046,147.387626 208.566419,122.993053 L214.840745,85.1821083 L201.249485,81.5225206" id="Fill-36" fill="#393F44"></path>
                <path d="M208.566419,122.993053 C199.298801,108.356757 205.223724,91.9812882 205.223724,91.9812882 L211.778321,103.639614 L208.566419,122.993053" id="Fill-37" fill="#212529"></path>
                <path d="M204.560416,84.311027 C204.560416,84.311027 206.296226,112.538769 213.007775,131.182936 C219.719323,149.826541 225.294842,164.637726 226.514953,172.652346 C226.514953,172.652346 235.401402,134.841776 222.68085,121.251264 C222.68085,121.251264 227.211893,96.5084072 221.199153,84.311027 L204.560416,84.311027" id="Fill-38" fill="#393F44"></path>
                <path d="M215.565712,84.311027 L221.199153,84.311027 C225.77317,93.588734 224.246629,110.123396 223.252602,117.507782 C218.701007,109.134041 217.647189,89.6967085 217.647189,89.6967085 C213.134831,90.1161803 206.825003,88.6208427 206.825003,88.6208427 L215.565712,84.311027" id="Fill-39" fill="#212529"></path>
                <path d="M196.667994,116.399404 C197.108953,120.445766 198.013293,124.923744 199.265169,129.534197 C204.769685,149.81122 217.017514,172.652346 226.455162,172.652346 C235.59946,172.652346 248.650732,148.013377 254.058088,127.19786 C255.039035,123.419811 255.769607,119.76994 256.178802,116.413792 C256.556234,113.324648 254.911979,110.336215 252.09993,109.001566 C243.007949,104.687453 234.48772,102.673241 226.455162,102.611582 C218.702875,102.55777 210.163962,104.667647 200.799184,109.055939 C197.994608,110.368914 196.331669,113.320911 196.667994,116.399404" id="Fill-40" fill="#FFD43B"></path>
                <path d="M226.451425,167.252465 C235.58825,167.252465 249.338329,137.434093 251.591706,118.495829 C251.909346,115.817002 250.519203,113.226553 248.142508,112.069783 C240.450012,108.330038 233.245187,106.583765 226.451425,106.529579 C219.893091,106.482493 212.67145,108.313221 204.751,112.116495 C202.37991,113.255702 200.972952,115.814386 201.256959,118.483497 C203.274908,137.42064 216.655031,167.252465 226.451425,167.252465" id="Fill-41" fill="#FAB005"></path>
                <path d="M224.371817,137.091602 C224.371817,137.884394 224.822118,138.571992 225.477952,138.91523 L224.616586,141.692899 L228.239552,141.692899 L227.378187,138.91523 C228.035889,138.571992 228.484322,137.884394 228.484322,137.091602 C228.484322,135.956132 227.565034,135.03591 226.429004,135.03591 C225.292973,135.03591 224.371817,135.956132 224.371817,137.091602 M234.848335,128.900785 C236.356191,128.900785 237.589382,130.134536 237.589382,131.642019 L237.589382,145.086604 C237.589382,146.594273 236.356191,147.827277 234.848335,147.827277 L218.009672,147.827277 C216.501816,147.827277 215.268625,146.594273 215.268625,145.086604 L215.268625,131.642019 C215.268625,130.134536 216.501816,128.900785 218.009672,128.900785 L234.848335,128.900785" id="Fill-42" fill="#FFD43B"></path>
                <path d="M221.042201,128.900785 L221.042201,125.926926 C221.042201,124.447657 221.649454,123.101424 222.624796,122.1244 C223.602007,121.14775 224.949174,120.541058 226.429004,120.541058 C227.908833,120.541058 229.254132,121.14775 230.231343,122.1244 C231.208553,123.10105 231.813938,124.447657 231.813938,125.926926 L231.813938,128.900785 L234.848335,128.900785 L234.848335,125.926926 C234.848335,123.610022 233.90102,121.504441 232.376347,119.979582 C230.851675,118.454536 228.745908,117.507782 226.429004,117.507782 C224.112099,117.507782 222.006332,118.454536 220.48166,119.979582 C218.956987,121.504441 218.009672,123.610022 218.009672,125.926926 L218.009672,128.900785 L221.042201,128.900785" id="Fill-43" fill="#FFD43B"></path>
                <path d="M211.761504,52.7149918 C211.761504,52.7149918 202.449044,68.3137369 199.042821,86.2174282 C199.014794,86.3637295 199.085796,86.5115256 199.218457,86.5799116 C200.627284,87.3009547 208.715896,90.89253 222.54632,86.3964277 C222.70514,86.3456053 222.807906,86.194446 222.798564,86.0298337 C222.649086,83.6103503 221.262681,65.9945905 211.761504,52.7149918" id="Fill-44" fill="#0500AF"></path>
                <path d="M215.078041,62.8772331 L220.705876,80.1292016 L221.120677,74.8687077 C222.394974,80.5486734 222.729431,84.9119274 222.798564,86.0298337 C222.807906,86.194446 222.70514,86.3456053 222.54632,86.3964277 C220.728298,86.9877989 219.009304,87.4384741 217.391208,87.7746121 L215.078041,62.8772331" id="Fill-45" fill="#040242"></path>
                <path d="M237.781835,74.2048399 C237.781835,74.2048399 234.239213,79.2577466 220.705876,80.1292016 C220.705876,80.1292016 225.788118,72.0269498 237.781835,74.2048399" id="Fill-46" fill="#1B4DBC"></path>
                <path d="M234.528826,71.3296363 C234.528826,71.3296363 242.632386,87.0989729 230.782542,103.739764 C230.782542,103.739764 232.413717,106.299196 229.24479,106.091422 C227.0811,105.949979 227.901359,102.610274 228.772066,102.610274 C228.772066,102.610274 228.170419,83.0042182 221.199153,76.5576188 L234.528826,71.3296363" id="Fill-47" fill="#FFA8A8"></path>
                <path d="M232.432402,72.1517637 L234.80536,71.9269866 C236.120764,74.9455018 241.279613,88.999395 230.782542,103.739764 C236.894311,90.4734319 233.701094,77.7334478 233.701094,77.7334478 C228.953308,76.5137097 222.755589,78.3438773 222.755589,78.3438773 L222.751852,78.3399535 C222.436081,77.8995549 222.103493,77.4896123 221.754089,77.1127416 L221.27576,76.5271627 L232.432402,72.1517637" id="Fill-48" fill="#FF8787"></path>
                <path d="M211.761504,52.7149918 C211.761504,52.7149918 228.256368,52.7149918 237.781835,74.2048399 C237.781835,74.2048399 226.630798,73.8567437 220.705876,80.1292016 L211.761504,52.7149918" id="Fill-49" fill="#0500AF"></path>
                <path d="M210.72824,50.1419201 C210.72824,50.1419201 209.044747,53.98331 209.795873,56.046476 C211.116882,55.4672499 212.507024,53.5888758 212.544394,53.1912651 C212.615396,52.4294894 212.548131,51.4332205 212.548131,51.4332205 L210.72824,50.1419201" id="Fill-50" fill="#FFA8A8"></path>
                <path d="M211.309334,51.6196939 C210.849691,51.7185361 210.419942,51.8495159 210.074275,51.9870354 C209.803347,52.9156656 209.566051,54.0464644 209.614631,55.0298408 C210.705818,53.9646253 211.273833,52.986107 211.309334,51.6196939" id="Fill-51" fill="#FF8787"></path>
                <path d="M208.930771,50.7587024 C207.521943,49.2519672 207.163197,43.04584 208.40573,42.3141467 C209.448337,41.7011013 211.298124,42.7739775 212.533183,44.9434594 C215.791797,44.8935712 214.405391,51.134452 211.726004,52.00217 C211.270097,51.8566161 208.930771,50.7587024 208.930771,50.7587024" id="Fill-52" fill="#212529"></path>
                <path d="M211.888561,50.0968899 C211.854928,50.12118 211.81569,50.0897897 211.826901,50.0505518 C212.217411,48.7747597 211.838112,47.1973963 210.67966,46.9657058 C208.72337,46.5744479 208.071274,53.3472824 209.097065,53.7093922 C210.27607,54.1253139 213.501051,50.6652788 212.925562,49.9722629 C212.632212,49.6202429 212.10904,49.9369488 211.888561,50.0968899" id="Fill-53" fill="#FFA8A8"></path>
                <path d="M211.267027,50.083598 C211.205845,49.1350569 210.634818,48.7319121 210.30036,49.5818805 C210.651134,49.3835546 211.120191,49.7129173 211.267027,50.083598" id="Fill-54" fill="#212529"></path>
                <path d="M208.887796,51.6486552 C208.820531,51.9199573 208.930771,52.4528453 208.970008,52.6189524 C209.298859,52.7385345 210.754398,52.5330027 211.040275,51.310462 C210.677791,51.5587818 209.156856,51.9599426 208.887796,51.6486552" id="Fill-55" fill="#FFFFFF"></path>
                <path d="M195.150795,124.90973 C195.091004,122.343572 195.124637,119.79778 195.23114,117.301129 C196.81934,124.455131 198.614941,135.03591 197.762918,143.554084 C196.333538,157.837238 187.340586,172.652346 187.340586,172.652346 C187.340586,172.652346 195.672099,147.387626 195.150795,124.90973" id="Fill-56" fill="#212529"></path>
                <line x1="226.904863" y1="173.042256" x2="226.904863" y2="173.042256" id="Fill-57" fill="#181D22"></line>
                <path d="M226.455162,172.652346 C219.487633,172.652346 210.986089,160.200294 204.797712,145.52065 C202.605995,140.320134 200.703892,134.8386 199.265169,129.534197 C200.913161,131.034953 202.678866,132.436306 204.515573,133.598869 C209.551103,150.133531 219.029858,167.252465 226.451425,167.252465 C234.726884,167.252465 246.787866,142.788945 250.661207,124.105353 C251.914951,125.066121 253.049113,126.124423 254.058088,127.19786 C248.661943,147.968907 235.655514,172.547712 226.514953,172.652346 C226.4944,172.652346 226.473847,172.652346 226.455162,172.652346" id="Fill-58" fill="#FFBA1C"></path>
                <path d="M226.451425,167.252465 C219.029858,167.252465 209.551103,150.133531 204.515573,133.598869 C207.53876,135.51181 210.756267,136.777886 213.981248,136.777886 C214.409128,136.777886 214.838877,136.755464 215.268625,136.709126 L215.268625,145.086604 C215.268625,146.594273 216.501816,147.827277 218.009672,147.827277 L234.848335,147.827277 C236.356191,147.827277 237.589382,146.594273 237.589382,145.086604 L237.589382,131.642019 C237.589382,130.134536 236.356191,128.900785 234.848335,128.900785 L234.848335,125.926926 C234.848335,124.404869 234.43914,122.973994 233.727252,121.739121 C235.263136,120.673345 237.11479,120.009291 239.569962,120.009291 C239.90255,120.009291 240.248217,120.021623 240.605095,120.046847 C244.512068,120.323007 247.880922,121.974362 250.661207,124.105353 C246.787866,142.788945 234.726884,167.252465 226.451425,167.252465 M228.239552,141.692899 L224.616586,141.692899 L225.477952,138.91523 C224.822118,138.571992 224.371817,137.884394 224.371817,137.091602 C224.371817,135.956132 225.292973,135.03591 226.429004,135.03591 C227.565034,135.03591 228.484322,135.956132 228.484322,137.091602 C228.484322,137.884394 228.035889,138.571992 227.378187,138.91523 L228.239552,141.692899 M231.813938,128.900785 L227.579982,128.900785 C228.902859,127.141619 230.06318,125.359284 231.397269,123.857034 C231.666328,124.495303 231.813938,125.194859 231.813938,125.926926 L231.813938,128.900785" id="Fill-59" fill="#F68901"></path>
                <path d="M234.848335,147.827277 L218.009672,147.827277 C216.501816,147.827277 215.268625,146.594273 215.268625,145.086604 L215.268625,136.709126 C215.593739,136.673999 215.918853,136.625045 216.243967,136.561704 C222.049307,135.429223 225.096784,132.205924 227.579982,128.900785 L234.848335,128.900785 C236.356191,128.900785 237.589382,130.134536 237.589382,131.642019 L237.589382,145.086604 C237.589382,146.594273 236.356191,147.827277 234.848335,147.827277 M226.429004,135.03591 C225.292973,135.03591 224.371817,135.956132 224.371817,137.091602 C224.371817,137.884394 224.822118,138.571992 225.477952,138.91523 L224.616586,141.692899 L228.239552,141.692899 L227.378187,138.91523 C228.035889,138.571992 228.484322,137.884394 228.484322,137.091602 C228.484322,135.956132 227.565034,135.03591 226.429004,135.03591" id="Fill-60" fill="#FFBA1C"></path>
                <path d="M234.848335,128.900785 L231.813938,128.900785 L231.813938,125.926926 C231.813938,125.194859 231.666328,124.495303 231.397269,123.857034 C232.109156,123.056207 232.867755,122.334977 233.727252,121.739121 C234.43914,122.973994 234.848335,124.404869 234.848335,125.926926 L234.848335,128.900785" id="Fill-61" fill="#FFBA1C"></path>
                <path d="M256.164039,114.829833 C255.631508,114.368355 255.067237,113.946476 254.467699,113.569907 L254.425379,111.523336 L260.255003,113.46596 L256.164039,114.829833 M253.977489,113.275581 C253.801154,113.17468 253.62482,113.077968 253.441431,112.985063 C252.489224,112.496171 251.537017,112.021747 250.588336,111.561793 L250.750564,111.507725 L252.566811,105.163166 L253.906955,109.857904 L253.977489,113.275581" id="Fill-62" fill="#EFD393"></path>
                <path d="M253.313235,109.288563 C253.03965,109.238675 252.753905,109.190656 252.468161,109.144131 L252.346568,107.466991 L253.161243,108.276599 L253.240279,108.28426 L253.313235,109.288563" id="Fill-63" fill="#FDDD93"></path>
                <path d="M251.636549,113.312129 L250.674286,110.198509 L247.561413,109.237554 L250.588336,108.303132 C251.090955,108.528843 251.595442,108.761655 252.09993,109.001566 C252.19709,109.047157 252.290514,109.094616 252.383937,109.144131 C252.471755,109.190656 252.559574,109.238675 252.643655,109.288563 C252.961295,109.473355 253.26025,109.680382 253.542389,109.906841 L252.596943,110.198509 L251.636549,113.312129" id="Fill-64" fill="#FDC424"></path>
                <path d="M148.794024,145.748977 L106.616836,145.748977 C101.739192,145.748977 98.8447436,141.794731 100.151926,136.917461 L123.935323,48.1557351 C125.242318,43.2788384 130.256174,39.3244059 135.133444,39.3244059 L177.310632,39.3244059 C182.187342,39.3244059 185.083472,43.2788384 183.775542,48.1557351 L159.991772,136.917461 C158.683842,141.794731 153.672603,145.748977 148.794024,145.748977" id="Fill-65" fill="#7B93F6"></path>
                <path d="M145.789896,145.748977 L103.612522,145.748977 C98.7352512,145.748977 95.8408024,141.794731 97.147798,136.917461 L120.931381,48.1557351 C122.238003,43.2788384 127.251859,39.3244059 132.129316,39.3244059 L174.30613,39.3244059 C179.184709,39.3244059 182.078971,43.2788384 180.771041,48.1557351 L156.987271,136.917461 C155.681209,141.794731 150.66754,145.748977 145.789896,145.748977" id="Fill-66" fill="#BAC8FF"></path>
                <path d="M173.803512,41.2016589 C177.637615,41.2016589 179.920886,44.3212585 178.895096,48.1557351 L155.109457,136.917461 C154.081798,140.751937 150.127178,143.871537 146.293262,143.871537 L104.115888,143.871537 C100.281598,143.871537 97.9977656,140.751937 99.0252379,136.917461 L122.808821,48.1557351 C123.836107,44.3212585 127.791847,41.2016589 131.626137,41.2016589 L173.803512,41.2016589" id="Fill-67" fill="#DBE4FF"></path>
                <path d="M131.324192,42.3283471 L139.20204,42.3283471 C139.851147,42.3283471 140.236613,42.855256 140.062658,43.5047366 L139.919533,44.0378114 C139.497819,45.612559 140.432242,46.888538 142.006429,46.888538 L160.374809,46.888538 C161.94993,46.888538 163.568026,45.612559 163.990301,44.0378114 L164.132305,43.5047366 C164.306072,42.855256 164.974985,42.3283471 165.623345,42.3283471 L173.500819,42.3283471 C176.720195,42.3283471 178.629773,44.9372935 177.768408,48.1557351 L153.982769,136.917461 C153.121404,140.135715 149.813649,142.745222 146.594834,142.745222 L104.417833,142.745222 C101.199204,142.745222 99.2892529,140.135715 100.151926,136.917461 L123.935323,48.1557351 C124.797809,44.9372935 128.105937,42.3283471 131.324192,42.3283471" id="Fill-68" fill="#FFFFFF"></path>
                <path d="M144.628268,43.2506245 L159.704028,43.2506245 C160.16554,43.2506245 160.440205,43.6254398 160.316886,44.088447 C160.193567,44.5505199 159.717107,44.9253352 159.253726,44.9253352 L144.179461,44.9253352 C143.717014,44.9253352 143.442349,44.5505199 143.566415,44.088447 C143.690295,43.6254398 144.166008,43.2506245 144.628268,43.2506245" id="Fill-69" fill="#7B93F6"></path>
                <path d="M144.628268,43.2506245 L159.704028,43.2506245 C160.16554,43.2506245 160.440205,43.6254398 160.316886,44.088447 C160.193567,44.5505199 159.717107,44.9253352 159.253726,44.9253352 L144.179461,44.9253352 C143.717014,44.9253352 143.442349,44.5505199 143.566415,44.088447 C143.690295,43.6254398 144.166008,43.2506245 144.628268,43.2506245" id="Fill-70" fill="#7B93F6"></path>
                <path d="M123.935323,48.1557351 C124.797809,44.9372935 128.105937,42.3283471 131.324192,42.3283471 L139.20204,42.3283471 C139.851147,42.3283471 140.236613,42.855256 140.062658,43.5047366 L139.919533,44.0378114 C139.497819,45.612559 140.432242,46.888538 142.006429,46.888538 L160.374809,46.888538 C161.94993,46.888538 163.568026,45.612559 163.990301,44.0378114 L164.132305,43.5047366 C164.306072,42.855256 164.974985,42.3283471 165.623345,42.3283471 L173.500819,42.3283471 C176.720195,42.3283471 178.629773,44.9372935 177.768408,48.1557351 L177.405924,49.5066398 L123.573587,49.5066398 L123.935323,48.1557351" id="Fill-71" fill="#BAC8FF"></path>
                <path d="M173.066094,53.5447376 L170.901014,53.5447376 L171.595162,47.3589668 L173.760242,47.3589668 C173.809824,47.3589668 173.842879,47.4630512 173.826352,47.5855808 L173.187295,53.3207587 C173.170768,53.4472409 173.115676,53.5447376 173.066094,53.5447376 Z M175.010811,47.9004688 L174.5205,47.9004688 L174.718828,46.1191776 C174.751882,45.8451328 174.685773,45.6211539 174.564573,45.6211539 L166.747144,45.6211539 C166.631453,45.6211539 166.515761,45.8451328 166.482707,46.1191776 L165.513103,54.7858443 C165.480049,55.0598891 165.546158,55.2878206 165.667358,55.2878206 L173.484787,55.2878206 C173.594969,55.2878206 173.71617,55.0598891 173.749224,54.7858443 L173.947552,53.0032356 L174.437863,53.0032356 C174.553554,53.0032356 174.674755,52.7818917 174.7023,52.5065294 L175.165066,48.3998101 C175.192611,48.1231302 175.126502,47.9004688 175.010811,47.9004688 L175.010811,47.9004688 Z" id="Fill-72" fill="#DBE4FF"></path>
                <path d="M171.556979,46.0865901 L171.052086,46.0865901 C171.000899,46.0865901 170.949711,46.1214986 170.935751,46.1647852 L170.658874,47.0532568 L171.34525,47.0532568 L171.622126,46.1647852 C171.636087,46.1214986 171.60584,46.0865901 171.556979,46.0865901" id="Fill-73" fill="#DBE4FF"></path>
                <path d="M172.303487,45.721304 L171.85629,45.721304 C171.810952,45.721304 171.765614,45.7541891 171.753249,45.7945481 L171.398789,46.9920513 L172.00879,46.9920513 L172.36325,45.7945481 C172.373554,45.7541891 172.346764,45.721304 172.303487,45.721304" id="Fill-74" fill="#DBE4FF"></path>
                <path d="M173.057992,45.3560179 L172.652533,45.3560179 C172.611427,45.3560179 172.570321,45.3892767 172.55911,45.4296356 L172.140572,46.9920513 L172.691771,46.9920513 L173.112177,45.4296356 C173.123388,45.3892767 173.099098,45.3560179 173.057992,45.3560179" id="Fill-75" fill="#DBE4FF"></path>
                <path d="M173.896935,44.9911054 L173.491477,44.9911054 C173.452239,44.9911054 173.409264,45.0239905 173.399922,45.06491 L172.882355,46.9920513 L173.433554,46.9920513 L173.951121,45.06491 C173.962332,45.0239905 173.938041,44.9911054 173.896935,44.9911054" id="Fill-76" fill="#DBE4FF"></path>
                <path d="M135.242002,44.7006713 C134.893159,44.3326756 134.455189,44.1374009 133.974618,44.1374009 C133.494048,44.1374009 132.987505,44.3326756 132.509363,44.7006713 C132.431635,44.7614805 132.385484,44.893662 132.406784,44.9967236 C132.421358,45.0655265 132.46153,45.1040676 132.510484,45.1040676 C132.534961,45.1040676 132.561307,45.0949319 132.587092,45.0746622 C133.014598,44.7446366 133.468263,44.5702027 133.898945,44.5702027 C134.329628,44.5702027 134.721446,44.7446366 135.033855,45.0746622 C135.090843,45.1343295 135.183332,45.1000707 135.240881,44.9967236 C135.29843,44.893662 135.298617,44.7614805 135.242002,44.7006713" id="Fill-77" fill="#DBE4FF"></path>
                <path d="M134.660534,45.4089618 C134.413149,45.0942434 134.102796,44.9279511 133.762921,44.9279511 C133.422485,44.9279511 133.063739,45.0942434 132.724798,45.4089618 C132.646696,45.4821442 132.600545,45.6412213 132.621658,45.7652534 C132.643333,45.8899726 132.724051,45.9312021 132.802153,45.859394 C133.091018,45.5907152 133.3967,45.448817 133.686874,45.448817 C133.977047,45.448817 134.241436,45.5907152 134.4522,45.859394 C134.471258,45.8827574 134.494053,45.8937519 134.518344,45.8937519 C134.566924,45.8937519 134.620923,45.8477123 134.659226,45.7652534 C134.716775,45.6412213 134.717709,45.4821442 134.660534,45.4089618" id="Fill-78" fill="#DBE4FF"></path>
                <path d="M134.079253,46.0757368 C133.933699,45.8414506 133.750962,45.7186881 133.550662,45.7186881 C133.350549,45.7186881 133.139412,45.8414506 132.939299,46.0757368 C132.861383,46.1660796 132.815419,46.3670816 132.837093,46.5235606 C132.858207,46.6796073 132.938738,46.7314788 133.01684,46.6407037 C133.166691,46.4660697 133.324951,46.3735656 133.474989,46.3735656 C133.625214,46.3735656 133.761613,46.4660697 133.871292,46.6407037 C133.890164,46.670962 133.912585,46.6852267 133.937062,46.6852267 C133.985642,46.6852267 134.040015,46.6273036 134.078505,46.5235606 C134.136054,46.3670816 134.136428,46.1660796 134.079253,46.0757368" id="Fill-79" fill="#DBE4FF"></path>
                <path d="M133.933716,46.6470345 L133.933716,46.6458116 L133.933421,46.6448945 C133.890028,46.4938719 133.758371,46.4012407 133.591881,46.4012407 C133.42421,46.4012407 133.245322,46.4938719 133.123112,46.6448945 L133.121636,46.6458116 L133.12134,46.6470345 L133.10599,46.6687401 C133.056102,46.7353857 133.018908,46.8093684 132.999425,46.8842683 C132.931825,47.1444306 133.075585,47.3559845 133.320892,47.366073 L133.341261,47.3679073 L133.361924,47.366073 C133.61284,47.3559845 133.866117,47.1444306 133.933126,46.8842683 C133.952904,46.8093684 133.95438,46.7353857 133.93903,46.6687401 L133.933716,46.6470345" id="Fill-80" fill="#DBE4FF"></path>
                <path d="M172.820696,84.2004135 C173.016885,84.2004135 173.216812,84.0427145 173.269129,83.8474593 L176.593139,71.4393156 C176.645456,71.2442472 176.529611,71.0865482 176.33529,71.0865482 L175.922358,71.0865482 C175.728037,71.0865482 175.528111,71.2442472 175.475793,71.4393156 L172.151783,83.8474593 C172.097597,84.0427145 172.213443,84.2004135 172.409632,84.2004135 L172.820696,84.2004135" id="Fill-81" fill="#BAC8FF"></path>
                <path d="M123.859463,128.9716 L123.859463,128.9716 C123.547241,128.9716 123.226425,131.136614 123.142717,133.804933 C123.059196,136.474851 123.244736,138.638267 123.55677,138.638267 C123.869179,138.638267 124.189621,136.474851 124.274076,133.804933 C124.357037,131.136614 124.171684,128.9716 123.859463,128.9716 Z M129.159568,128.9716 L129.159568,128.9716 C128.84772,128.9716 128.526343,131.136614 128.443009,133.804933 C128.359115,136.474851 128.545028,138.638267 128.856876,138.638267 C129.168724,138.638267 129.489727,136.474851 129.573808,133.804933 C129.656955,131.136614 129.471603,128.9716 129.159568,128.9716 Z M134.45986,128.9716 L134.45986,128.9716 C134.147078,128.9716 133.825888,131.136614 133.743302,133.804933 C133.658847,136.474851 133.844947,138.638267 134.157168,138.638267 C134.469016,138.638267 134.789832,136.474851 134.873727,133.804933 C134.957247,131.136614 134.771708,128.9716 134.45986,128.9716 Z M139.759966,128.9716 L139.759966,128.9716 C139.447184,128.9716 139.126367,131.136614 139.043033,133.804933 C138.959139,136.474851 139.144865,138.638267 139.45746,138.638267 C139.769308,138.638267 140.089938,136.474851 140.174206,133.804933 C140.257166,131.136614 140.071627,128.9716 139.759966,128.9716 Z M118.559357,128.9716 C118.247883,128.9716 117.926132,131.136614 117.842612,133.804933 C117.758904,136.474851 117.94463,138.638267 118.257038,138.638267 C118.569073,138.638267 118.890077,136.474851 118.973784,133.804933 C119.057118,131.136614 118.871766,128.9716 118.559357,128.9716 L118.559357,128.9716 Z" id="Fill-82" fill="#DBE4FF"></path>
                <path d="M129.968242,81.1452762 C129.741784,81.9911331 128.872571,82.6761147 128.026901,82.6761147 C127.181044,82.6761147 126.678986,81.9911331 126.905444,81.1452762 C127.132464,80.299793 128.001303,79.6146246 128.847347,79.6146246 C129.69283,79.6146246 130.194888,80.299793 129.968242,81.1452762" id="Fill-83" fill="#DBE4FF"></path>
                <path d="M143.543246,81.1452762 C143.316788,81.9911331 142.447575,82.6761147 141.602092,82.6761147 C140.756235,82.6761147 140.254177,81.9911331 140.480262,81.1452762 C140.707281,80.299793 141.576867,79.6146246 142.422724,79.6146246 C143.268207,79.6146246 143.769892,80.299793 143.543246,81.1452762" id="Fill-84" fill="#DBE4FF"></path>
                <path d="M157.118064,81.1452762 C156.891979,81.9911331 156.023139,82.6761147 155.176722,82.6761147 C154.332173,82.6761147 153.829554,81.9911331 154.055639,81.1452762 C154.283593,80.299793 155.152432,79.6146246 155.996981,79.6146246 C156.843398,79.6146246 157.346017,80.299793 157.118064,81.1452762" id="Fill-85" fill="#DBE4FF"></path>
                <path d="M127.989158,88.5305956 C127.763073,89.3764525 126.893486,90.0618077 126.048003,90.0618077 C125.201959,90.0618077 124.700275,89.3764525 124.926733,88.5305956 C125.153192,87.6852992 126.022405,86.9999439 126.868262,86.9999439 C127.714119,86.9999439 128.21599,87.6852992 127.989158,88.5305956" id="Fill-86" fill="#DBE4FF"></path>
                <path d="M141.564349,88.5305956 C141.337703,89.3764525 140.468864,90.0618077 139.623381,90.0618077 C138.777337,90.0618077 138.275279,89.3764525 138.501737,88.5305956 C138.728196,87.6852992 139.597969,86.9999439 140.444013,86.9999439 C141.28931,86.9999439 141.790994,87.6852992 141.564349,88.5305956" id="Fill-87" fill="#DBE4FF"></path>
                <path d="M155.139353,88.5305956 C154.913267,89.3764525 154.044428,90.0618077 153.198011,90.0618077 C152.353462,90.0618077 151.850656,89.3764525 152.076928,88.5305956 C152.303013,87.6852992 153.173721,86.9999439 154.01827,86.9999439 C154.864687,86.9999439 155.365438,87.6852992 155.139353,88.5305956" id="Fill-88" fill="#DBE4FF"></path>
                <path d="M126.010447,95.9157281 C125.783988,96.7619587 124.914775,97.4467534 124.069292,97.4467534 C123.223435,97.4467534 122.721377,96.7619587 122.948022,95.9157281 C123.174481,95.0704317 124.043507,94.3847028 124.889738,94.3847028 C125.735034,94.3847028 126.237092,95.0704317 126.010447,95.9157281" id="Fill-89" fill="#DBE4FF"></path>
                <path d="M139.585264,95.9157281 C139.358805,96.7619587 138.489779,97.4467534 137.64467,97.4467534 C136.798626,97.4467534 136.296381,96.7619587 136.522839,95.9157281 C136.749485,95.0704317 137.619072,94.3847028 138.464928,94.3847028 C139.310599,94.3847028 139.812096,95.0704317 139.585264,95.9157281" id="Fill-90" fill="#DBE4FF"></path>
                <path d="M153.160641,95.9157281 C152.934556,96.7619587 152.065717,97.4467534 151.219674,97.4467534 C150.374377,97.4467534 149.871572,96.7619587 150.098217,95.9157281 C150.324676,95.0704317 151.194636,94.3847028 152.039559,94.3847028 C152.885976,94.3847028 153.386727,95.0704317 153.160641,95.9157281" id="Fill-91" fill="#DBE4FF"></path>
                <path d="M124.031736,103.301234 C123.804903,104.147465 122.93569,104.832073 122.090394,104.832073 C121.244163,104.832073 120.742479,104.147465 120.968938,103.301234 C121.19577,102.455938 122.064609,101.770396 122.910653,101.770396 C123.756323,101.770396 124.258381,102.455938 124.031736,103.301234" id="Fill-92" fill="#DBE4FF"></path>
                <path d="M137.606553,103.301234 C137.379907,104.147465 136.510881,104.832073 135.665585,104.832073 C134.819541,104.832073 134.317109,104.147465 134.544128,103.301234 C134.7704,102.455938 135.6398,101.770396 136.485844,101.770396 C137.33114,101.770396 137.832638,102.455938 137.606553,103.301234" id="Fill-93" fill="#DBE4FF"></path>
                <path d="M151.181557,103.301234 C150.954538,104.147465 150.086259,104.832073 149.240402,104.832073 C148.395292,104.832073 147.893047,104.147465 148.119319,103.301234 C148.345778,102.455938 149.215178,101.770396 150.060661,101.770396 C150.906518,101.770396 151.408202,102.455938 151.181557,103.301234" id="Fill-94" fill="#DBE4FF"></path>
                <path d="M146.458248,111.306432 L121.531721,111.306432 C121.369912,111.306432 121.273872,111.089494 121.317034,110.822945 C121.360196,110.557011 121.52705,110.339765 121.68886,110.339765 L146.615013,110.339765 C146.77757,110.339765 146.873236,110.557011 146.830074,110.822945 C146.786352,111.089494 146.620432,111.306432 146.458248,111.306432" id="Fill-95" fill="#DBE4FF"></path>
                <path d="M135.624479,119.069076 C135.713605,118.737236 135.485464,118.468176 135.11476,118.468176 L128.832959,118.468176 C128.462815,118.468176 128.090429,118.737236 128.001863,119.069076 L126.492325,124.702143 C126.403386,125.033984 126.631153,125.30323 127.001671,125.30323 L133.283845,125.30323 C133.653989,125.30323 134.026375,125.033984 134.115314,124.702143 L135.624479,119.069076" id="Fill-96" fill="#CAD7FF"></path>
                <path d="M133.952757,118.497884 L134.247042,117.400905 C134.392969,116.855311 134.302348,116.358672 134.038894,115.998244 C133.774879,115.638002 133.338217,115.414533 132.792624,115.414533 C132.246469,115.414533 131.689852,115.638002 131.233197,115.998244 C130.776169,116.358672 130.419665,116.855311 130.273364,117.400905 L129.979453,118.497884 L128.860426,118.497884 L129.154336,117.400905 C129.383598,116.546266 129.940589,115.769543 130.654158,115.207507 C131.367354,114.64491 132.237501,114.295506 133.091953,114.295506 C133.946965,114.295506 134.629891,114.64491 135.041515,115.207507 C135.4537,115.769543 135.59477,116.546266 135.365882,117.400905 L135.071972,118.497884 L133.952757,118.497884" id="Fill-97" fill="#CAD7FF"></path>
                <path d="M128.554744,122.173541 C128.437778,122.014908 128.507285,121.756685 128.70908,121.598052 C128.910501,121.438484 129.168537,121.438484 129.284756,121.598052 L130.118094,122.735203 L133.368113,120.172222 C133.570094,120.012654 133.827943,120.012654 133.944349,120.172222 C134.060755,120.331042 133.991622,120.588704 133.789827,120.748084 L130.174335,123.599558 C129.972914,123.758752 129.714691,123.758752 129.598472,123.599558 L128.554744,122.173541" id="Fill-98" fill="#FFFFFF"></path>
                <path d="M131.205918,138.414293 L122.127763,138.414293 C121.083288,138.414293 120.463516,137.567128 120.743413,136.523587 C121.02331,135.47799 122.096747,134.632133 123.141222,134.632133 L132.219377,134.632133 C133.263478,134.632133 133.883811,135.47799 133.60354,136.523587 C133.324017,137.567128 132.250019,138.414293 131.205918,138.414293" id="Fill-99" fill="#DBE4FF"></path>
                <path d="M148.946865,55.1253197 C154.096746,55.1253197 157.153564,59.3006054 155.774633,64.4514201 C154.393832,69.6022347 149.099519,73.7775205 143.948892,73.7775205 C138.79789,73.7775205 135.741258,69.6022347 137.121498,64.4514201 C138.501737,59.3006054 143.795864,55.1253197 148.946865,55.1253197 Z M144.89957,60.9007642 C145.125281,58.1862492 151.128305,58.1862492 149.898851,60.9007642 C149.267495,62.2953911 148.273842,63.7481275 146.887436,64.6410699 C146.534669,64.868276 146.137806,64.868276 145.906302,64.6410699 C144.998599,63.7481275 144.784285,62.2953911 144.89957,60.9007642 Z M148.558036,56.5767481 C146.38351,56.5767481 144.177779,57.4575454 142.371341,58.8826284 C140.564903,60.3077114 139.155702,62.2768933 138.5733,64.4514201 C138.112722,66.1692925 138.236975,67.7589878 138.823675,69.0540252 C140.914307,67.4820804 143.420114,66.5186966 145.89341,66.5186966 C148.367079,66.5186966 150.357561,67.4820804 151.605513,69.0540252 C152.885976,67.7589878 153.863187,66.1692925 154.322831,64.4514201 C154.905794,62.2768933 154.550784,60.3077114 153.508177,58.8826284 C152.46557,57.4575454 150.732376,56.5767481 148.558036,56.5767481 L148.558036,56.5767481 Z" id="Fill-100" fill="#DBE4FF"></path>
                <path d="M170.985857,39.3178663 C170.985857,39.3178663 169.610662,41.4387679 168.128964,40.3769157 C166.649135,39.3158109 167.902879,38.9030656 167.902879,38.9030656 C167.902879,38.9030656 171.66598,37.8387844 170.985857,39.3178663" id="Fill-101" fill="#FFA8A8"></path>
                <path d="M76.4944645,98.0829679 C76.4944645,96.4293708 77.8313557,95.0962166 79.4832711,95.0962166 C81.1316364,95.0962166 82.4690881,96.4293708 82.4690881,98.0829679 C82.4690881,99.7279699 81.1316364,101.070093 79.4832711,101.070093 C77.8313557,101.070093 76.4944645,99.7279699 76.4944645,98.0829679" id="Fill-102" fill="#C9D5FD"></path>
                <path d="M61.8598505,98.0829679 L70.3372913,104.285732 L76.1700979,100.019265 C75.8354547,99.4503151 75.6435627,98.7883157 75.6435627,98.0829679 L61.8598505,98.0829679 Z M61.1937405,109.22597 L61.1937405,98.5706388 L67.4462057,103.145217 L61.1937405,109.22597 Z M78.9193664,109.774179 L72.5863701,103.615511 L70.5749608,105.086559 C70.4400572,105.189324 70.248352,105.195864 70.1046666,105.090669 L68.0897072,103.616072 L61.757832,109.774179 L78.9193664,109.774179 Z M79.4832711,101.920434 L79.4832711,109.22597 L73.2304321,103.144656 L76.6355341,100.653797 C76.6790694,100.702565 76.7246601,100.749837 76.7709982,100.796175 C77.4658827,101.490125 78.4244084,101.920434 79.4832711,101.920434 L79.4832711,101.920434 Z" id="Fill-103" fill="#CAD7FF"></path>
                <polyline id="Fill-104" fill="#FFFFFF" points="79.8111074 96.7866225 79.8111074 99.3796869 79.5164671 99.3796869 79.5164671 97.0263474 78.8444408 97.0263474 78.8444408 96.7866225 79.8111074 96.7866225"></polyline>
                <path d="M79.724117,99.6431413 L79.4559914,99.6431413 C79.3106243,99.6431413 79.1930975,99.5252408 79.1930975,99.3796869 L79.1930975,97.2890544 L78.8444408,97.2890544 C78.6996342,97.2890544 78.5819205,97.1717144 78.5819205,97.0263474 L78.5819205,96.7866225 C78.5819205,96.6410686 78.6996342,96.5233549 78.8444408,96.5233549 L79.724117,96.5233549 C79.8694841,96.5233549 79.9870109,96.6410686 79.9870109,96.7866225 L79.9870109,99.3796869 C79.9870109,99.5252408 79.8694841,99.6431413 79.724117,99.6431413" id="Fill-105" fill="#FFFFFF"></path>
                <path d="M79.9332902,32.082902 C79.5432956,32.5407493 79.1281679,33.3919392 79.1281679,34.5259569 C79.1281679,35.6599747 79.5432956,36.5107135 79.9332902,36.9690118 C80.3224181,36.5107135 80.7375457,35.6599747 80.7375457,34.5259569 C80.7375457,33.3919392 80.3224181,32.5407493 79.9332902,32.082902 Z M79.9332902,39.3592903 C76.5940696,39.3592903 75.0990902,36.9315721 75.0990902,34.5259569 C75.0990902,32.1203417 76.5940696,29.6926236 79.9332902,29.6926236 C83.2707775,29.6926236 84.7657569,32.1203417 84.7657569,34.5259569 C84.7657569,36.9315721 83.2707775,39.3592903 79.9332902,39.3592903 L79.9332902,39.3592903 Z" id="Fill-106" fill="#CAD7FF"></path>
                <path d="M72.2601654,34.4385405 C72.0730526,34.4385405 71.8988109,34.3228821 71.836568,34.1405193 C71.5735726,33.3671591 71.4402498,32.5440975 71.4402498,31.6946905 C71.4402498,28.3064048 73.6083772,25.5502229 76.2736792,25.5502229 C77.5329451,25.5502229 78.7234364,26.1582234 79.6265347,27.2624899 C79.7798366,27.4502713 79.7477546,27.7234418 79.5546864,27.8725458 C79.3618103,28.0218366 79.0807567,27.99082 78.9274548,27.8028518 C78.1974456,26.9102831 77.2551574,26.4185015 76.2736792,26.4185015 C74.1007492,26.4185015 72.3331664,28.7849203 72.3331664,31.6946905 C72.3331664,32.4517951 72.4511205,33.1825541 72.6841471,33.8677225 C72.7617586,34.0953023 72.6347754,34.3411932 72.4007883,34.4163057 C72.3541061,34.4312535 72.3066555,34.4385405 72.2601654,34.4385405 Z M76.2736792,37.839345 C75.1525388,37.839345 74.0609829,37.3438264 73.2007247,36.4439707 C73.0330147,36.2679607 73.0433885,35.9934823 73.2237776,35.8298042 C73.4041667,35.6666866 73.6869492,35.6769632 73.8548513,35.8522258 C74.5543154,36.584106 75.3907523,36.9705059 76.2736792,36.9705059 C78.446225,36.9705059 80.214,34.6039002 80.214,31.6946905 C80.214,31.0758528 80.1338911,30.4693471 79.9759786,29.8914289 C79.9127751,29.6593648 80.0541664,29.4216953 80.2927641,29.3598489 C80.5311698,29.2983762 80.7755307,29.4364562 80.8389263,29.6683335 C81.0166259,30.3185615 81.1069165,31.0009271 81.1069165,31.6946905 C81.1069165,35.0829762 78.938597,37.839345 76.2736792,37.839345 L76.2736792,37.839345 Z" id="Fill-107" fill="#CAD7FF"></path>
                <path d="M68.2249846,32.6296735 C67.9932941,32.6296735 67.8008416,32.4465633 67.7916861,32.2128176 C67.7845859,32.0396103 67.7810358,31.8654688 67.7810358,31.6946905 C67.7810358,26.0220119 71.5314312,21.4070748 76.1413234,21.4070748 C77.5845306,21.4070748 79.0075583,21.866345 80.2558839,22.7357447 C80.4526339,22.8728905 80.5012142,23.143632 80.3640684,23.3401951 C80.2271095,23.5369452 79.956368,23.5855254 79.759618,23.4485665 C78.6574068,22.6809985 77.4062784,22.2755402 76.1413234,22.2755402 C72.0103204,22.2755402 68.6496881,26.5010879 68.6496881,31.6946905 C68.6496881,31.8536974 68.6528645,32.0162544 68.6594041,32.1776903 C68.6689333,32.417602 68.4826467,32.6197706 68.2429219,32.6289261 L68.2249846,32.6296735 Z M69.5661732,37.6325052 C69.4120243,37.6325052 69.2627335,37.5497319 69.1840708,37.4049254 C68.7556304,36.6151226 68.4185582,35.7574943 68.1825703,34.8557701 C68.1218449,34.623706 68.2608592,34.386597 68.4927365,34.325498 C68.7248006,34.264399 68.9620965,34.4039738 69.0228218,34.6356642 C69.2412461,35.4701235 69.5521597,36.2625421 69.9473413,36.9908722 C70.0618786,37.2014489 69.9835897,37.4650902 69.7728261,37.5796275 C69.7070559,37.6153153 69.6362409,37.6325052 69.5661732,37.6325052 Z M82.7161,37.6325052 C82.6460323,37.6325052 82.5752172,37.6153153 82.5094471,37.5796275 C82.2986835,37.4650902 82.2203946,37.2014489 82.3349318,36.9908722 C83.184152,35.4258407 83.632772,33.5945521 83.632772,31.6946905 C83.632772,29.1911259 82.8577301,26.8333021 81.4509581,25.0552649 C81.302041,24.8672967 81.333805,24.5939393 81.5217732,24.445209 C81.7099282,24.2962919 81.9829119,24.3280559 82.131829,24.5160241 C83.6596779,26.4474628 84.5014242,28.9964312 84.5014242,31.6946905 C84.5014242,33.7389849 84.0161822,35.7133984 83.0982023,37.4049254 C83.0197265,37.5497319 82.8702488,37.6325052 82.7161,37.6325052 L82.7161,37.6325052 Z" id="Fill-108" fill="#CAD7FF"></path>
                <path d="M77.4677512,35.1823789 C77.3543349,35.1823789 77.2411056,35.1380961 77.1560902,35.050278 C76.9886751,34.8780049 76.9927858,34.6033397 77.1650588,34.4362983 C77.7781042,33.8417508 78.1443246,32.8163338 78.1443246,31.6946905 C78.1443246,29.9575728 77.2269052,28.4897018 76.1413234,28.4897018 C75.055368,28.4897018 74.1381354,29.9575728 74.1381354,31.6946905 C74.1381354,32.8163338 74.5039821,33.8417508 75.1174012,34.4362983 C75.2893006,34.6033397 75.2934112,34.8780049 75.1263699,35.050278 C74.9595154,35.222551 74.6844764,35.2266617 74.5123902,35.0598072 C73.7343588,34.3043843 73.2694832,33.0465294 73.2694832,31.6946905 C73.2694832,29.4106713 74.5308881,27.6212364 76.1413234,27.6212364 C77.7513851,27.6212364 79.01279,29.4106713 79.01279,31.6946905 C79.01279,33.0465294 78.5481012,34.3043843 77.7698829,35.0598072 C77.6858017,35.1418331 77.5764962,35.1823789 77.4677512,35.1823789" id="Fill-109" fill="#CAD7FF"></path>
                <path d="M72.8901835,38.7128553 C72.7945178,38.7128553 72.6981047,38.6812781 72.6177604,38.6170027 C70.7349019,37.098683 69.6106428,34.5108503 69.6106428,31.6946905 C69.6106428,30.1739418 69.942857,28.6885072 70.5712239,27.3987015 C70.6764188,27.1832667 70.93651,27.093767 71.1521316,27.1989619 C71.3675663,27.30397 71.4572529,27.564248 71.352058,27.7796828 C70.7808663,28.9512142 70.4791082,30.3047348 70.4791082,31.6946905 C70.4791082,34.2505723 71.4824773,36.5857876 73.1629803,37.9404293 C73.3498274,38.0912149 73.3789756,38.3643854 73.2283768,38.5512325 C73.1428008,38.6577354 73.0170527,38.7128553 72.8901835,38.7128553 Z M79.3920897,38.7128553 C79.2654073,38.7128553 79.1396592,38.6577354 79.0535227,38.5512325 C78.9031107,38.3643854 78.9324457,38.0912149 79.1192929,37.9404293 C80.7997959,36.5857876 81.8031649,34.250946 81.8031649,31.6946905 C81.8031649,27.6432844 79.2631652,24.3469274 76.1413234,24.3469274 C74.8752473,24.3469274 73.6771836,24.8800023 72.6766172,25.8876688 C72.5073337,26.0582602 72.2322948,26.0590076 72.0624508,25.889911 C71.8920462,25.721188 71.8911119,25.446149 72.0602086,25.2759313 C73.211,24.1169186 74.6599994,23.478462 76.1413234,23.478462 C79.7422412,23.478462 82.6718172,27.1642083 82.6718172,31.6946905 C82.6718172,34.5108503 81.5473712,37.098683 79.6645128,38.6170027 C79.5843554,38.6812781 79.4879422,38.7128553 79.3920897,38.7128553 L79.3920897,38.7128553 Z" id="Fill-110" fill="#CAD7FF"></path>
                <path d="M76.1413234,17.0755848 C68.5867206,17.0755848 62.4407582,23.2211735 62.4407582,30.7755895 C62.4407582,38.3300055 68.5867206,44.4757811 76.1413234,44.4757811 C83.6957394,44.4757811 89.8413281,38.3300055 89.8413281,30.7755895 C89.8413281,23.2211735 83.6957394,17.0755848 76.1413234,17.0755848 Z M76.1413234,45.0430489 C68.2743122,45.0430489 61.8740509,38.6424139 61.8740509,30.7755895 C61.8740509,22.9087651 68.2743122,16.5085038 76.1413234,16.5085038 C84.007961,16.5085038 90.4080355,22.9087651 90.4080355,30.7755895 C90.4080355,38.6424139 84.007961,45.0430489 76.1413234,45.0430489 L76.1413234,45.0430489 Z" id="Fill-111" fill="#CAD7FF"></path>
                <path d="M137.404197,160.243192 L145.863701,160.243192 C146.436761,160.243192 146.904813,160.918789 146.904813,161.745297 C146.904813,162.571266 146.436761,163.246593 145.863701,163.246593 L137.404197,163.246593 C136.831698,163.246593 136.362898,162.571266 136.362898,161.745297 C136.362898,160.918789 136.831324,160.243192 137.404197,160.243192 Z M151.655214,160.243192 L160.115091,160.243192 C160.688712,160.243192 161.15583,160.918789 161.15583,161.745297 C161.15583,162.571266 160.688712,163.246593 160.115091,163.246593 L151.655214,163.246593 C151.082715,163.246593 150.614476,162.571266 150.614476,161.745297 C150.614476,160.918789 151.082715,160.243192 151.655214,160.243192 Z M137.404197,153.579926 L165.516842,153.579926 C166.088594,153.579926 166.55758,154.255523 166.55758,155.081223 C166.55758,155.907192 166.088594,156.583058 165.516842,156.583058 L137.404197,156.583058 C136.831324,156.583058 136.362898,155.907192 136.362898,155.081492 C136.362898,154.255523 136.831324,153.579926 137.404197,153.579926 L137.404197,153.579926 Z" id="Fill-112" fill="#CAD7FF"></path>
                <path d="M227.047468,33.6663013 C223.495504,33.6663013 220.614321,36.5459892 220.614321,40.0988872 C220.614321,43.6514116 223.495504,46.5314731 227.047468,46.5314731 C230.599431,46.5314731 233.480614,43.6514116 233.480614,40.0988872 C233.480614,36.5459892 230.599431,33.6663013 227.047468,33.6663013" id="Fill-113" fill="#E64980"></path>
                <path d="M227.744824,35.9630262 C225.076652,35.9630262 222.910672,38.1266773 222.910672,40.796032 C222.910672,43.4653866 225.076652,45.6296928 227.744824,45.6296928 C230.412997,45.6296928 232.576793,43.4653866 232.576793,40.796032 C232.576793,40.3104169 232.506923,39.8416149 232.373732,39.3996702 C232.356265,39.3472657 232.316963,39.3101458 232.26456,39.2968263 C232.212157,39.2830701 232.159755,39.2979181 232.120453,39.3363481 L231.62481,39.8322257 C231.587691,39.8697823 231.574591,39.9189115 231.585508,39.9708793 C231.642278,40.2370506 231.670662,40.5130476 231.670662,40.796032 C231.670662,42.9651419 229.912987,44.7230948 227.744824,44.7230948 C225.576661,44.7230948 223.818986,42.9651419 223.818986,40.796032 C223.818986,38.6273587 225.576661,36.8694058 227.744824,36.8694058 C228.653138,36.8694058 229.491582,37.1783741 230.15535,37.6969604 C230.216487,37.7441244 230.301641,37.738884 230.356227,37.6847326 L230.786366,37.2541423 C230.816935,37.2233546 230.832219,37.1838329 230.830035,37.139289 C230.827852,37.0951819 230.808201,37.0578437 230.773266,37.0298946 C229.945739,36.3623922 228.891134,35.9630262 227.744824,35.9630262 Z M225.203292,40.3171858 C224.96748,40.0811471 224.96748,39.6985942 225.203292,39.4625556 C225.439104,39.227172 225.821207,39.227172 226.05702,39.4625556 L227.744824,41.1499808 L231.546206,37.348252 C231.782018,37.1124317 232.166305,37.1124317 232.402117,37.348252 C232.635746,37.5842907 232.635746,37.9666252 232.402117,38.2026639 L228.17278,42.4317077 C227.936968,42.6670913 227.552681,42.6670913 227.316869,42.4317077 L225.203292,40.3171858 L225.203292,40.3171858 Z" id="Fill-114" fill="#FFFFFF"></path>
                <path d="M222.129651,43.1069391 L224.039229,45.0155824 L219.554898,47.8364134 C219.483896,47.880883 219.394209,47.8709801 219.334418,47.8115627 C219.274627,47.7525191 219.265285,47.6630193 219.310128,47.5923911 L222.129651,43.1069391" id="Fill-115" fill="#E64980"></path>
                <path d="M184.951059,115.577327 C184.896925,117.250037 183.533281,118.611917 181.860303,118.664753 C180.014614,118.724032 178.504036,117.214727 178.563325,115.368045 C178.617459,113.69585 179.978525,112.333712 181.651503,112.280361 C183.49977,112.221597 185.00777,113.730387 184.951059,115.577327 Z M181.757192,110.639094 C179.09177,110.639094 176.923859,112.80769 176.923859,115.472428 C176.923859,118.137939 179.09177,120.305761 181.757192,120.305761 C184.422614,120.305761 186.590525,118.137939 186.590525,115.472428 C186.590525,112.80769 184.422614,110.639094 181.757192,110.639094 L181.757192,110.639094 Z" id="Fill-116" fill="#CAD7FF"></path>
                <path d="M180.427242,118.148667 C178.218709,118.148667 176.42124,116.351945 176.42124,114.143039 C176.42124,111.934319 178.218709,110.137597 180.427242,110.137597 C182.635775,110.137597 184.433244,111.934319 184.433244,114.143039 C184.433244,116.351945 182.635775,118.148667 180.427242,118.148667 Z M186.253135,114.809709 C186.277425,114.590724 186.290505,114.368376 186.290505,114.143039 C186.290505,113.917701 186.277425,113.69554 186.253135,113.476555 L185.399244,113.225245 C185.3189,112.781297 185.180633,112.357341 184.990049,111.961598 L185.531905,111.257372 C185.311426,110.868356 185.047971,110.50662 184.749016,110.179637 L183.911941,110.477098 C183.590564,110.170856 183.229949,109.906841 182.83757,109.693835 L182.86186,108.807245 C182.462007,108.624135 182.035996,108.48456 181.595037,108.395621 L181.092418,109.127128 C180.875675,109.098166 180.653327,109.083405 180.427242,109.083405 C180.201157,109.083405 179.978809,109.098166 179.762066,109.127128 L179.259448,108.395621 C178.818488,108.48456 178.392477,108.624135 177.992624,108.807245 L178.016914,109.693835 C177.624535,109.906841 177.26392,110.170856 176.942543,110.477098 L176.105468,110.179637 C175.804644,110.50662 175.543058,110.868356 175.322579,111.257372 L175.864435,111.961598 C175.673851,112.357341 175.535584,112.781297 175.45524,113.225245 L174.601349,113.476555 C174.577059,113.69554 174.563979,113.917701 174.563979,114.143039 C174.563979,114.368376 174.577059,114.590724 174.601349,114.809709 L175.457109,115.061392 C175.537453,115.504407 175.677588,115.927055 175.866304,116.321115 L175.322579,117.029266 C175.543058,117.418282 175.804644,117.779457 176.105468,118.106813 L176.948149,117.806924 C177.269526,118.109803 177.628272,118.371949 178.016914,118.583834 L177.992624,119.479392 C178.392477,119.662129 178.818488,119.80133 179.259448,119.891017 L179.767672,119.150915 C179.982546,119.179129 180.203026,119.19389 180.427242,119.19389 C180.651459,119.19389 180.871938,119.179129 181.086812,119.150915 L181.595037,119.891017 C182.035996,119.80133 182.462007,119.662129 182.86186,119.479392 L182.83757,118.583834 C183.226212,118.371949 183.586827,118.109803 183.906335,117.806924 L184.749016,118.106813 C185.047971,117.779457 185.311426,117.418282 185.531905,117.029266 L184.98818,116.321115 C185.176896,115.927055 185.317031,115.504407 185.397376,115.061392 L186.253135,114.809709 L186.253135,114.809709 Z" id="Fill-117" fill="#CAD7FF"></path>
                <path d="M36.3256964,70.9750005 C36.0986772,70.6760451 35.7535706,70.5047063 35.3796895,70.5047063 L30.7492441,70.5047063 L31.4004063,65.6470548 C31.4476786,65.2877478 31.3389336,64.9267591 31.1023851,64.6573256 C30.8662104,64.387892 30.5239064,64.2337432 30.1631047,64.2337432 C30.0541728,64.2337432 29.9532753,64.2914789 29.8977817,64.3850893 L26.7198859,69.761989 C26.4364388,70.2408782 25.9739922,70.5047063 25.4173746,70.5047063 L24.7236112,70.5047063 C24.5533935,70.5047063 24.4153135,70.6429732 24.4153135,70.8133777 L24.4153135,80.0496047 C24.4153135,80.2201961 24.5533935,80.3580893 24.7236112,80.3580893 L31.9491763,80.3580893 C33.268317,80.3580893 34.4374194,79.4701918 34.792429,78.1986971 L36.5271176,72.0202233 C36.6282019,71.6568056 36.5543973,71.2758244 36.3256964,70.9750005 Z M20.8069218,78.4191767 C20.3782945,78.4191767 20.0316931,78.0697726 20.0316931,77.6437611 C20.0316931,77.217376 20.3782945,76.8681587 20.8069218,76.8681587 C21.235736,76.8681587 21.584019,77.217376 21.584019,77.6437611 C21.584019,78.0697726 21.235736,78.4191767 20.8069218,78.4191767 Z M23.0533848,70.5047063 L19.2097526,70.5047063 C18.6826569,70.5047063 18.2538428,70.9337073 18.2538428,71.4606162 L18.2538428,79.4023663 C18.2538428,79.9292751 18.6826569,80.3580893 19.2097526,80.3580893 L23.0533848,80.3580893 C23.2236025,80.3580893 23.3618694,80.2201961 23.3618694,80.0496047 L23.3618694,70.8133777 C23.3618694,70.6429732 23.2236025,70.5047063 23.0533848,70.5047063 L23.0533848,70.5047063 Z" id="Fill-118" fill="#E7EDFF"></path>
                <path d="M72.7139867,62.106115 C71.4380077,62.106115 70.3996982,63.1418086 70.3996982,64.4153586 L70.3996982,74.0818944 C70.3996982,75.3550707 71.4380077,76.3907643 72.7139867,76.3907643 L78.1134948,76.3907643 C78.2674568,76.3907643 78.3920839,76.5155782 78.3920839,76.6699139 L78.3920839,80.0559575 L81.9750643,76.4726034 C82.0275683,76.420473 82.0981965,76.3907643 82.1723748,76.3907643 L93.4743836,76.3907643 C94.7499889,76.3907643 95.787551,75.3550707 95.787551,74.0818944 L95.787551,64.4153586 C95.787551,63.1418086 94.7499889,62.106115 93.4743836,62.106115 L72.7139867,62.106115 Z M78.0069919,80.986643 C77.9025444,80.9434813 77.8345321,80.8418365 77.8345321,80.7289808 L77.8345321,76.9486898 L72.7139867,76.9486898 C71.1306442,76.9486898 69.8421464,75.6624343 69.8421464,74.0818944 L69.8421464,64.4153586 C69.8421464,62.8344451 71.1306442,61.5485632 72.7139867,61.5485632 L93.4743836,61.5485632 C95.0573524,61.5485632 96.3451028,62.8344451 96.3451028,64.4153586 L96.3451028,74.0818944 C96.3451028,75.6624343 95.0573524,76.9486898 93.4743836,76.9486898 L82.2876595,76.9486898 L78.3104317,80.9261045 C78.2571802,80.9795428 78.1858046,81.0077567 78.1134948,81.0077567 C78.0776202,81.0077567 78.0413718,81.0006565 78.0069919,80.986643 L78.0069919,80.986643 Z" id="Fill-119" fill="#C9D5FD"></path>
                <path d="M74.727674,66.0364397 C74.366516,66.0364397 74.0830317,66.3216694 74.0830317,66.6850036 L74.0830317,72.1053565 C74.0830317,72.4568267 74.3783897,72.753426 74.727674,72.753426 L80.1519707,72.753426 C80.5012551,72.753426 80.7966131,72.4568267 80.7966131,72.1053565 L80.7966131,66.6850036 C80.7966131,66.3216694 80.5131288,66.0364397 80.1519707,66.0364397 L74.727674,66.0364397 Z M80.1519707,74.2285134 L74.727674,74.2285134 C73.557621,74.2285134 72.6067364,73.2759352 72.6067364,72.1053565 L72.6067364,66.6850036 C72.6067364,65.5144249 73.557621,64.5618467 74.727674,64.5618467 L80.1519707,64.5618467 C81.3220238,64.5618467 82.2734031,65.5144249 82.2734031,66.6850036 L82.2734031,72.1053565 C82.2734031,73.2759352 81.3220238,74.2285134 80.1519707,74.2285134 L80.1519707,74.2285134 Z" id="Fill-120" fill="#C9D5FD"></path>
                <path d="M86.6682903,67.549482 L78.048472,67.549482 C77.8946968,67.549482 77.7695093,67.0296516 77.7695093,66.3884237 C77.7695093,65.747974 77.8946968,65.2281436 78.048472,65.2281436 L86.6682903,65.2281436 C86.8222523,65.2281436 86.9468794,65.747974 86.9468794,66.3884237 C86.9468794,67.0296516 86.8222523,67.549482 86.6682903,67.549482 Z M93.6141452,67.549482 L89.3047032,67.549482 C89.1507412,67.549482 89.0257404,67.0296516 89.0257404,66.3884237 C89.0257404,65.747974 89.1507412,65.2281436 89.3047032,65.2281436 L93.6141452,65.2281436 C93.7681073,65.2281436 93.8927343,65.747974 93.8927343,66.3884237 C93.8927343,67.0296516 93.7681073,67.549482 93.6141452,67.549482 Z M82.356793,74.8948102 L78.048472,74.8948102 C77.8946968,74.8948102 77.7695093,74.3749798 77.7695093,73.7345301 C77.7695093,73.0940803 77.8946968,72.5742499 78.048472,72.5742499 L82.356793,72.5742499 C82.510755,72.5742499 82.6359426,73.0940803 82.6359426,73.7345301 C82.6359426,74.3749798 82.510755,74.8948102 82.356793,74.8948102 Z M93.6141452,74.8948102 L84.9935795,74.8948102 C84.8398044,74.8948102 84.7146168,74.3749798 84.7146168,73.7345301 C84.7146168,73.0940803 84.8398044,72.5742499 84.9935795,72.5742499 L93.6141452,72.5742499 C93.7681073,72.5742499 93.8927343,73.0940803 93.8927343,73.7345301 C93.8927343,74.3749798 93.7681073,74.8948102 93.6141452,74.8948102 L93.6141452,74.8948102 Z" id="Fill-121" fill="#C9D5FD"></path>
                <path d="M74.727674,71.7565113 C74.366516,71.7565113 74.0830317,72.0407524 74.0830317,72.4045809 L74.0830317,77.8249337 C74.0830317,78.176404 74.3783897,78.4730033 74.727674,78.4730033 L80.1519707,78.4730033 C80.5012551,78.4730033 80.7966131,78.176404 80.7966131,77.8249337 L80.7966131,72.4045809 C80.7966131,72.0407524 80.5131288,71.7565113 80.1519707,71.7565113 L74.727674,71.7565113 Z M80.1519707,79.9480906 L74.727674,79.9480906 C73.557621,79.9480906 72.6067364,78.9960068 72.6067364,77.8249337 L72.6067364,72.4045809 C72.6067364,71.2335078 73.557621,70.281424 74.727674,70.281424 L80.1519707,70.281424 C81.3220238,70.281424 82.2734031,71.2335078 82.2734031,72.4045809 L82.2734031,77.8249337 C82.2734031,78.9960068 81.3220238,79.9480906 80.1519707,79.9480906 L80.1519707,79.9480906 Z" id="Fill-122" fill="#C9D5FD"></path>
                <path d="M86.6682903,73.2692462 L78.048472,73.2692462 C77.8946968,73.2692462 77.7695093,72.7494157 77.7695093,72.108966 C77.7695093,71.4669599 77.8946968,70.9479077 78.048472,70.9479077 L86.6682903,70.9479077 C86.8222523,70.9479077 86.9468794,71.4669599 86.9468794,72.108966 C86.9468794,72.7494157 86.8222523,73.2692462 86.6682903,73.2692462 Z M93.6141452,73.2692462 L89.3047032,73.2692462 C89.1507412,73.2692462 89.0257404,72.7494157 89.0257404,72.108966 C89.0257404,71.4669599 89.1507412,70.9479077 89.3047032,70.9479077 L93.6141452,70.9479077 C93.7681073,70.9479077 93.8927343,71.4669599 93.8927343,72.108966 C93.8927343,72.7494157 93.7681073,73.2692462 93.6141452,73.2692462 Z M82.356793,80.6145743 L78.048472,80.6145743 C77.8946968,80.6145743 77.7695093,80.0947439 77.7695093,79.453516 C77.7695093,78.8115099 77.8946968,78.2924577 78.048472,78.2924577 L82.356793,78.2924577 C82.510755,78.2924577 82.6359426,78.8115099 82.6359426,79.453516 C82.6359426,80.0947439 82.510755,80.6145743 82.356793,80.6145743 Z M93.6141452,80.6145743 L84.9935795,80.6145743 C84.8398044,80.6145743 84.7146168,80.0947439 84.7146168,79.453516 C84.7146168,78.8115099 84.8398044,78.2924577 84.9935795,78.2924577 L93.6141452,78.2924577 C93.7681073,78.2924577 93.8927343,78.8115099 93.8927343,79.453516 C93.8927343,80.0947439 93.7681073,80.6145743 93.6141452,80.6145743 L93.6141452,80.6145743 Z" id="Fill-123" fill="#C9D5FD"></path>
                <path d="M54.6374618,120.263777 C50.9378888,120.263777 47.5772565,121.775183 45.1426384,124.210175 C42.7074599,126.644606 41.1960535,130.005986 41.1960535,133.705185 L41.1960535,141.329482 L46.3186542,141.329482 L46.3186542,133.705185 C46.3186542,131.420418 47.255132,129.34137 48.7639225,127.832019 C50.2734604,126.323229 52.3523215,125.386564 54.6374618,125.386564 C56.9222284,125.386564 59.0012764,126.323229 60.5100669,127.832019 C62.0190442,129.34137 62.955522,131.420418 62.955522,133.705185 L62.955522,141.329482 L68.0783096,141.329482 L68.0783096,133.705185 C68.0783096,130.005986 66.5667163,126.644606 64.1319115,124.210175 C61.6971066,121.775183 58.3361006,120.263777 54.6374618,120.263777" id="Fill-124" fill="#F59F00"></path>
                <path d="M67.2123797,138.799945 C67.2123797,138.976703 66.9956838,139.120201 66.7287642,139.120201 C66.4618445,139.120201 66.245713,138.976703 66.245713,138.799945 L66.245713,134.189493 C66.245713,134.012922 66.4618445,133.86905 66.7287642,133.86905 C66.9956838,133.86905 67.2123797,134.012922 67.2123797,134.189493 L67.2123797,138.799945 Z M65.1648024,127.462623 C65.2927927,127.677497 65.4134959,127.893492 65.525791,128.110608 C65.640702,128.333517 65.7473917,128.555865 65.8456733,128.7784 C65.9168621,128.940023 65.843618,129.128551 65.6818084,129.199367 C65.5201856,129.270929 65.3318437,129.197685 65.260655,129.035502 C65.1644287,128.818198 65.0639049,128.607995 64.9577758,128.403585 C64.8492176,128.193382 64.7359882,127.988784 64.6171535,127.790352 C64.5267195,127.63938 64.5762339,127.442817 64.7273933,127.352943 C64.8785526,127.261949 65.0745552,127.31109 65.1648024,127.462623 Z M45.5398754,125.523336 C45.6062062,125.450092 45.6798239,125.370495 45.7601682,125.286227 C45.8485469,125.192804 45.9236594,125.115449 45.9855058,125.053416 C47.1376052,123.90113 48.4886967,123.0009 49.9606783,122.389349 C51.4272414,121.779107 53.0118919,121.456422 54.6374618,121.456422 C56.2620975,121.456422 57.8469348,121.779107 59.3134979,122.389349 C60.7852927,123.0009 62.1363842,123.90113 63.2888573,125.053416 C63.4375876,125.202333 63.5865047,125.359284 63.7346745,125.523336 C63.8527619,125.65469 63.8419248,125.857045 63.7109449,125.974759 C63.5795914,126.093407 63.377236,126.082757 63.2593354,125.951216 C63.126674,125.803981 62.9854175,125.65525 62.8363135,125.50652 C61.7423236,124.412156 60.4614866,123.558639 59.0683545,122.979226 C57.6804541,122.402055 56.1791374,122.096934 54.6374618,122.096934 C53.0954125,122.096934 51.5937222,122.402429 50.2058218,122.979226 C48.8125028,123.558639 47.5320394,124.412156 46.4380495,125.50652 C46.3511656,125.593591 46.2792295,125.666274 46.2229885,125.725879 C46.1588999,125.793517 46.0895797,125.869377 46.0150277,125.951216 C45.8971271,126.082757 45.6947717,126.093407 45.563605,125.974759 C45.4324383,125.857045 45.421788,125.65469 45.5398754,125.523336 Z M43.4285029,128.7784 C43.5269714,128.555865 43.6338479,128.33277 43.7487589,128.110608 C43.8612409,127.893492 43.9811967,127.677497 44.1090002,127.462623 C44.1998079,127.31109 44.3956237,127.261949 44.5469698,127.352943 C44.6981291,127.442817 44.7474568,127.63938 44.6572096,127.790352 C44.5385617,127.988784 44.4251455,128.193382 44.3165873,128.403585 C44.2110187,128.607995 44.1097476,128.818198 44.0137081,129.035502 C43.9428931,129.197685 43.7539906,129.270929 43.5923679,129.199367 C43.4311188,129.128551 43.3573142,128.940023 43.4285029,128.7784 Z M42.388325,138.799945 L42.388325,134.189493 C42.388325,134.012922 42.6052397,133.86905 42.8717994,133.86905 C43.1389232,133.86905 43.3549917,134.012922 43.3549917,134.189493 L43.3549917,138.799945 C43.3549917,138.976703 43.1389232,139.120201 42.8717994,139.120201 C42.6052397,139.120201 42.388325,138.976703 42.388325,138.799945 L42.388325,138.799945 Z" id="Fill-125" fill="#FFD43B"></path>
                <path d="M36.1713607,169.244255 C36.1765924,171.135148 37.7096731,172.665426 39.6020607,172.665426 L69.6721155,172.665426 C70.558892,172.665426 71.3666321,172.329101 71.9763142,171.776033 C72.6682091,171.150096 73.1026287,170.243887 73.1026287,169.233044 L73.1026287,143.675534 C73.1026287,141.781839 71.5661848,140.246703 69.6721155,140.246703 L39.6020607,140.246703 C38.6564274,140.246703 37.8023492,140.627123 37.18183,141.243906 C36.5624317,141.860688 36.1767793,142.714019 36.1713607,143.655542 L36.1713607,169.244255" id="Fill-126" fill="#F59F00"></path>
                <path d="M36.7158332,152.131114 L36.7158332,143.655542 C36.7158332,142.891524 37.0250652,142.168612 37.5656139,141.630679 C38.1093391,141.089944 38.835427,140.791549 39.6020607,140.791549 L69.6721155,140.791549 C71.2651741,140.791549 72.5581562,142.082102 72.5581562,143.675534 L72.5581562,154.596375 C68.5663542,151.468928 62.9988705,153.317593 58.6869995,154.936063 C55.3379517,156.192983 52.2390922,157.468589 47.7325264,157.241569 C43.5923679,157.032674 39.6487725,155.472501 36.7158332,152.131114" id="Fill-127" fill="#FFD43B"></path>
                <path d="M43.9146792,166.990692 L65.3589365,166.990692 C66.4439578,166.990692 67.323634,166.110829 67.323634,165.025807 L67.323634,147.884826 C67.323634,146.799244 66.4439578,145.920316 65.3589365,145.920316 L43.9146792,145.920316 C42.8296579,145.920316 41.9497948,146.799244 41.9497948,147.884826 L41.9497948,165.025807 C41.9497948,166.110829 42.8296579,166.990692 43.9146792,166.990692" id="Fill-128" fill="#FAB005"></path>
                <path d="M43.9146792,166.386241 C43.1635537,166.386241 42.5551795,165.77712 42.5551795,165.025807 L42.5551795,147.884826 C42.5551795,147.133327 43.1635537,146.52514 43.9146792,146.52514 L65.3589365,146.52514 C66.1098751,146.52514 66.7186231,147.133327 66.7186231,147.884826 L66.7186231,165.025807 C66.7186231,165.77712 66.1098751,166.386241 65.3589365,166.386241 L43.9146792,166.386241" id="Fill-129" fill="#F59F00"></path>
                <path d="M67.8227027,143.745415 C67.8227027,144.540636 68.466391,145.183764 69.260865,145.183764 C70.0547784,145.183764 70.6988405,144.540636 70.6988405,143.745415 C70.6988405,142.952062 70.0547784,142.308374 69.260865,142.308374 C68.466391,142.308374 67.8227027,142.952062 67.8227027,143.745415" id="Fill-130" fill="#FAB005"></path>
                <path d="M68.4564881,143.745415 C68.4564881,144.190485 68.8165425,144.550726 69.260865,144.550726 C69.7050006,144.550726 70.0652419,144.190485 70.0652419,143.745415 C70.0652419,143.302027 69.7050006,142.941599 69.260865,142.941599 C68.8165425,142.941599 68.4564881,143.302027 68.4564881,143.745415" id="Fill-131" fill="#F59F00"></path>
                <path d="M38.3460744,143.745415 C38.3460744,144.540636 38.9901364,145.183764 39.7842367,145.183764 C40.5781501,145.183764 41.222399,144.540636 41.222399,143.745415 C41.222399,142.952062 40.5781501,142.308374 39.7842367,142.308374 C38.9901364,142.308374 38.3460744,142.952062 38.3460744,143.745415" id="Fill-132" fill="#FAB005"></path>
                <path d="M38.3460744,169.063013 C38.3460744,169.855245 38.9901364,170.499868 39.7842367,170.499868 C40.5781501,170.499868 41.222399,169.855245 41.222399,169.063013 C41.222399,168.267044 40.5781501,167.62429 39.7842367,167.62429 C38.9901364,167.62429 38.3460744,168.267044 38.3460744,169.063013" id="Fill-133" fill="#FAB005"></path>
                <path d="M67.8227027,169.063013 C67.8227027,169.855245 68.466391,170.499868 69.260865,170.499868 C70.0547784,170.499868 70.6988405,169.855245 70.6988405,169.063013 C70.6988405,168.267044 70.0547784,167.62429 69.260865,167.62429 C68.466391,167.62429 67.8227027,168.267044 67.8227027,169.063013" id="Fill-134" fill="#FAB005"></path>
                <path d="M38.979673,143.745415 C38.979673,144.190485 39.3401011,144.550726 39.7842367,144.550726 C40.228746,144.550726 40.5889872,144.190485 40.5889872,143.745415 C40.5889872,143.302027 40.228746,142.941599 39.7842367,142.941599 C39.3401011,142.941599 38.979673,143.302027 38.979673,143.745415" id="Fill-135" fill="#F59F00"></path>
                <path d="M38.979673,169.063013 C38.979673,169.505841 39.3401011,169.866456 39.7842367,169.866456 C40.228746,169.866456 40.5889872,169.505841 40.5889872,169.063013 C40.5889872,168.618317 40.228746,168.257702 39.7842367,168.257702 C39.3401011,168.257702 38.979673,168.618317 38.979673,169.063013" id="Fill-136" fill="#F59F00"></path>
                <path d="M68.4564881,169.063013 C68.4564881,169.505841 68.8165425,169.866456 69.260865,169.866456 C69.7050006,169.866456 70.0652419,169.505841 70.0652419,169.063013 C70.0652419,168.618317 69.7050006,168.257702 69.260865,168.257702 C68.8165425,168.257702 68.4564881,168.618317 68.4564881,169.063013" id="Fill-137" fill="#F59F00"></path>
                <path d="M43.099652,156.380204 L43.099652,147.884826 C43.099652,147.434338 43.4641907,147.069425 43.9146792,147.069425 L65.3589365,147.069425 C65.8096118,147.069425 66.1739637,147.434338 66.1739637,147.884826 L66.1739637,152.944273 C63.6066842,153.157091 60.970645,154.078621 58.6869995,154.936063 C57.8844911,155.236887 57.0961831,155.538645 56.299467,155.821718 C56.9134466,155.320594 57.2695772,154.575261 57.2695772,153.781161 C57.2695772,152.327303 56.0907587,151.148485 54.6369013,151.148485 C53.182857,151.148485 52.0042253,152.327303 52.0042253,153.781161 C52.0042253,154.537892 52.3267235,155.252021 52.8934308,155.753145 L52.7116285,156.860775 C51.2140488,157.172436 49.5935237,157.335367 47.7325264,157.241569 C46.1439522,157.161786 44.5841524,156.882076 43.099652,156.380204" id="Fill-138" fill="#FFD43B"></path>
                <path d="M52.548511,153.781161 C52.548511,152.62738 53.483494,151.692584 54.6369013,151.692584 C55.7901217,151.692584 56.7249179,152.62738 56.7249179,153.781161 C56.7249179,154.439423 56.4196097,155.027244 55.9427758,155.409907 C55.7944192,155.528555 55.7269674,155.706247 55.7574235,155.893654 L56.5330259,160.6207 C56.5582502,160.774475 56.5186386,160.917787 56.4175544,161.037182 C56.3162832,161.155643 56.1819401,161.218797 56.0255491,161.218797 L53.1540825,161.218797 C52.9980652,161.218797 52.8635352,161.155643 52.7622641,161.037182 C52.660993,160.917787 52.6213814,160.774475 52.6466057,160.6207 L53.4332321,155.824334 C53.4631277,155.6444 53.4022155,155.474369 53.2641355,155.35404 C52.8257921,154.97119 52.548511,154.408407 52.548511,153.781161" id="Fill-139" fill="#393F44"></path>
                <path d="M102.062625,165.73919 C100.60148,165.978167 99.2234827,164.987504 98.9846921,163.526359 C98.7457146,162.065215 99.736378,160.687404 101.197523,160.44824 C102.65848,160.209449 104.036665,161.200486 104.275455,162.661257 C104.514433,164.122215 103.523582,165.500212 102.062625,165.73919 Z M97.1291133,154.685314 C93.2740835,155.296491 90.3833716,158.260447 89.6800791,161.876312 L54.888958,167.564499 C54.0797232,167.697161 53.5305795,168.461365 53.6630541,169.270414 C53.7534881,169.823481 54.1473618,170.27752 54.6815577,170.44755 L61.5984514,172.629925 C61.8342524,172.704664 62.0913541,172.656083 62.2824987,172.499132 L64.5592309,170.638134 C64.7139403,170.511078 64.9254512,170.479314 65.111551,170.552185 L67.7018126,171.577975 C67.9589143,171.680741 68.2511432,171.630293 68.4577961,171.445314 L70.4529496,169.675872 L73.7427669,169.135884 L75.886464,170.324231 C76.0234229,170.39897 76.1820561,170.426997 76.3367655,170.400839 L78.0817308,170.116831 C78.3412615,170.073856 78.5550146,169.888878 78.6342377,169.638502 L79.5484807,166.743493 C79.6325619,166.477983 79.9845819,166.423424 80.1450836,166.651377 L81.8134415,169.025644 C81.9982333,169.289098 82.3175551,169.423628 82.6350083,169.371311 L87.2510665,168.616449 L87.603647,169.782375 C87.6839913,170.047698 87.9483799,170.212123 88.2219241,170.16728 L91.786033,169.584317 C93.7722179,171.820877 96.826421,173.024172 99.9972166,172.504737 C104.958568,171.693821 108.308924,166.981349 107.425698,162.015887 C106.568817,157.198408 101.962101,153.919054 97.1291133,154.685314 L97.1291133,154.685314 Z" id="Fill-140" fill="#393F44"></path>
            </g>
        </g>
    </g>
</svg>